<svg width="300" height="300" viewBox="0 0 300 300" fill="none" xmlns="http://www.w3.org/2000/svg">
<path opacity="0.7" d="M40.758 100.254C40.758 100.254 24.03 143.454 47.538 186.954C71.046 230.454 119.466 253.434 158.22 273.084C196.974 292.734 237.216 283.164 256.338 250.98C275.46 218.796 249.234 195.822 249.198 149.928C249.162 104.034 256.068 91.884 231.198 53.112C206.328 14.34 145.362 5.75397 99.258 34.512C53.154 63.27 40.758 100.254 40.758 100.254Z" fill="white"/>
<path d="M11.868 168.126C8.76716 153.783 10.1087 138.836 15.714 125.274C23.4 106.302 39.876 92.826 58.344 84.96C85.188 73.56 111.54 73.314 133.344 50.916C140.07 44.004 145.722 36.09 152.592 29.316C172.872 9.35996 202.548 11.778 224.706 27.606C270.906 60.606 287.562 126.006 284.988 180.042C283.836 204.3 272.256 226.878 253.926 242.79C212.472 278.79 142.086 272.73 94.47 253.938C58.986 239.94 20.208 207.258 11.868 168.126Z" fill="#3451FF"/>
<path opacity="0.7" d="M11.868 168.126C8.76716 153.783 10.1087 138.836 15.714 125.274C23.4 106.302 39.876 92.826 58.344 84.96C85.188 73.56 111.54 73.314 133.344 50.916C140.07 44.004 145.722 36.09 152.592 29.316C172.872 9.35996 202.548 11.778 224.706 27.606C270.906 60.606 287.562 126.006 284.988 180.042C283.836 204.3 272.256 226.878 253.926 242.79C212.472 278.79 142.086 272.73 94.47 253.938C58.986 239.94 20.208 207.258 11.868 168.126Z" fill="white"/>
<path d="M150.564 64.182V68.166" stroke="#263238" stroke-width="1.10721" stroke-linecap="round" stroke-linejoin="round"/>
<path d="M150.564 72.468V78.918" stroke="#263238" stroke-width="1.10721" stroke-linecap="round" stroke-linejoin="round" stroke-dasharray="7.17 7.17"/>
<path d="M150.564 81.066V85.05" stroke="#263238" stroke-width="1.10721" stroke-linecap="round" stroke-linejoin="round"/>
<path d="M214.146 131.628H210.162" stroke="#263238" stroke-width="1.10721" stroke-linecap="round" stroke-linejoin="round"/>
<path d="M205.86 131.628H199.41" stroke="#263238" stroke-width="1.10721" stroke-linecap="round" stroke-linejoin="round" stroke-dasharray="7.17 7.17"/>
<path d="M197.262 131.628H193.278" stroke="#263238" stroke-width="1.10721" stroke-linecap="round" stroke-linejoin="round"/>
<path d="M107.856 131.628H103.866" stroke="#263238" stroke-width="1.10721" stroke-linecap="round" stroke-linejoin="round"/>
<path d="M99.57 131.628H93.12" stroke="#263238" stroke-width="1.10721" stroke-linecap="round" stroke-linejoin="round" stroke-dasharray="7.17 7.17"/>
<path d="M90.972 131.628H86.982" stroke="#263238" stroke-width="1.10721" stroke-linecap="round" stroke-linejoin="round"/>
<path d="M260.4 145.14C260.4 144.861 260.511 144.594 260.708 144.398C260.904 144.201 261.172 144.09 261.45 144.09C261.729 144.09 261.996 144.201 262.192 144.398C262.389 144.594 262.5 144.861 262.5 145.14V147.432C262.5 147.71 262.389 147.978 262.192 148.174C261.996 148.371 261.729 148.482 261.45 148.482C261.172 148.482 260.904 148.371 260.708 148.174C260.511 147.978 260.4 147.71 260.4 147.432V145.14ZM261.09 147.474C261.09 147.786 261.228 147.906 261.45 147.906C261.672 147.906 261.804 147.786 261.804 147.474V145.074C261.804 144.762 261.666 144.642 261.45 144.642C261.234 144.642 261.09 144.762 261.09 145.074V147.474Z" fill="#263238"/>
<path d="M260.892 150.924C261.065 150.945 261.239 150.9 261.379 150.798C261.52 150.695 261.616 150.543 261.648 150.372H262.116V154.8H261.426V151.446H260.892V150.924Z" fill="#263238"/>
<path d="M260.4 157.71C260.4 157.432 260.511 157.164 260.708 156.968C260.904 156.771 261.172 156.66 261.45 156.66C261.729 156.66 261.996 156.771 262.192 156.968C262.389 157.164 262.5 157.432 262.5 157.71V159.996C262.5 160.275 262.389 160.542 262.192 160.738C261.996 160.935 261.729 161.046 261.45 161.046C261.172 161.046 260.904 160.935 260.708 160.738C260.511 160.542 260.4 160.275 260.4 159.996V157.71ZM261.09 160.044C261.09 160.356 261.228 160.476 261.45 160.476C261.672 160.476 261.804 160.356 261.804 160.044V157.644C261.804 157.326 261.666 157.212 261.45 157.212C261.234 157.212 261.09 157.326 261.09 157.644V160.044Z" fill="#263238"/>
<path d="M260.892 163.494C261.065 163.515 261.239 163.47 261.379 163.368C261.52 163.265 261.616 163.113 261.648 162.942H262.116V167.334H261.426V163.98H260.892V163.494Z" fill="#263238"/>
<path d="M260.4 170.28C260.4 170.002 260.511 169.734 260.708 169.538C260.904 169.341 261.172 169.23 261.45 169.23C261.729 169.23 261.996 169.341 262.192 169.538C262.389 169.734 262.5 170.002 262.5 170.28V172.566C262.5 172.844 262.389 173.112 262.192 173.308C261.996 173.505 261.729 173.616 261.45 173.616C261.172 173.616 260.904 173.505 260.708 173.308C260.511 173.112 260.4 172.844 260.4 172.566V170.28ZM261.09 172.608C261.09 172.926 261.228 173.04 261.45 173.04C261.672 173.04 261.804 172.926 261.804 172.608V170.208C261.804 169.896 261.666 169.776 261.45 169.776C261.234 169.776 261.09 169.896 261.09 170.208V172.608Z" fill="#263238"/>
<path d="M260.892 176.058C261.065 176.079 261.239 176.034 261.379 175.932C261.52 175.829 261.616 175.677 261.648 175.506H262.116V179.904H261.426V176.55H260.892V176.058Z" fill="#263238"/>
<path d="M260.4 182.844C260.4 182.565 260.511 182.298 260.708 182.101C260.904 181.905 261.172 181.794 261.45 181.794C261.729 181.794 261.996 181.905 262.192 182.101C262.389 182.298 262.5 182.565 262.5 182.844V185.136C262.5 185.414 262.389 185.681 262.192 185.878C261.996 186.075 261.729 186.186 261.45 186.186C261.172 186.186 260.904 186.075 260.708 185.878C260.511 185.681 260.4 185.414 260.4 185.136V182.844ZM261.09 185.178C261.09 185.49 261.228 185.61 261.45 185.61C261.672 185.61 261.804 185.49 261.804 185.178V182.778C261.804 182.466 261.666 182.346 261.45 182.346C261.234 182.346 261.09 182.466 261.09 182.778V185.178Z" fill="#263238"/>
<path d="M260.4 189.132C260.4 188.854 260.511 188.586 260.708 188.39C260.904 188.193 261.172 188.082 261.45 188.082C261.729 188.082 261.996 188.193 262.192 188.39C262.389 188.586 262.5 188.854 262.5 189.132V191.4C262.5 191.679 262.389 191.946 262.192 192.142C261.996 192.339 261.729 192.45 261.45 192.45C261.172 192.45 260.904 192.339 260.708 192.142C260.511 191.946 260.4 191.679 260.4 191.4V189.132ZM261.09 191.46C261.09 191.778 261.228 191.892 261.45 191.892C261.672 191.892 261.804 191.778 261.804 191.46V189.06C261.804 188.742 261.666 188.622 261.45 188.622C261.234 188.622 261.09 188.742 261.09 189.06V191.46Z" fill="#263238"/>
<path d="M260.4 195.414C260.4 195.136 260.511 194.868 260.708 194.672C260.904 194.475 261.172 194.364 261.45 194.364C261.729 194.364 261.996 194.475 262.192 194.672C262.389 194.868 262.5 195.136 262.5 195.414V197.7C262.5 197.978 262.389 198.246 262.192 198.442C261.996 198.639 261.729 198.75 261.45 198.75C261.172 198.75 260.904 198.639 260.708 198.442C260.511 198.246 260.4 197.978 260.4 197.7V195.414ZM261.09 197.748C261.09 198.06 261.228 198.18 261.45 198.18C261.672 198.18 261.804 198.06 261.804 197.748V195.348C261.804 195.036 261.666 194.916 261.45 194.916C261.234 194.916 261.09 195.036 261.09 195.348V197.748Z" fill="#263238"/>
<path d="M260.892 207.48C261.065 207.501 261.239 207.456 261.379 207.354C261.52 207.251 261.616 207.099 261.648 206.928H262.116V211.326H261.426V207.972H260.892V207.48Z" fill="#263238"/>
<path d="M260.892 213.768C261.066 213.791 261.241 213.745 261.382 213.641C261.523 213.537 261.618 213.383 261.648 213.21H262.116V217.608H261.426V214.254H260.892V213.768Z" fill="#263238"/>
<path d="M260.892 220.05C261.065 220.071 261.239 220.026 261.379 219.924C261.52 219.821 261.616 219.669 261.648 219.498H262.116V223.89H261.426V220.542H260.892V220.05Z" fill="#263238"/>
<path d="M260.4 226.836C260.4 226.558 260.511 226.29 260.708 226.094C260.904 225.897 261.172 225.786 261.45 225.786C261.729 225.786 261.996 225.897 262.192 226.094C262.389 226.29 262.5 226.558 262.5 226.836V229.122C262.5 229.4 262.389 229.668 262.192 229.864C261.996 230.061 261.729 230.172 261.45 230.172C261.172 230.172 260.904 230.061 260.708 229.864C260.511 229.668 260.4 229.4 260.4 229.122V226.836ZM261.09 229.164C261.09 229.482 261.228 229.596 261.45 229.596C261.672 229.596 261.804 229.482 261.804 229.164V226.8C261.804 226.482 261.666 226.362 261.45 226.362C261.234 226.362 261.09 226.482 261.09 226.8V229.164Z" fill="#263238"/>
<path d="M260.4 233.118C260.4 232.84 260.511 232.572 260.708 232.376C260.904 232.179 261.172 232.068 261.45 232.068C261.729 232.068 261.996 232.179 262.192 232.376C262.389 232.572 262.5 232.84 262.5 233.118V235.404C262.5 235.682 262.389 235.95 262.192 236.146C261.996 236.343 261.729 236.454 261.45 236.454C261.172 236.454 260.904 236.343 260.708 236.146C260.511 235.95 260.4 235.682 260.4 235.404V233.118ZM261.09 235.452C261.09 235.764 261.228 235.884 261.45 235.884C261.672 235.884 261.804 235.764 261.804 235.452V233.052C261.804 232.74 261.666 232.62 261.45 232.62C261.234 232.62 261.09 232.74 261.09 233.052V235.452Z" fill="#263238"/>
<path d="M260.892 238.902C261.065 238.923 261.239 238.878 261.379 238.776C261.52 238.673 261.616 238.521 261.648 238.35H262.116V242.742H261.426V239.4H260.892V238.902Z" fill="#263238"/>
<path d="M264.6 138.354C264.773 138.375 264.948 138.33 265.09 138.228C265.231 138.126 265.328 137.973 265.362 137.802H265.824V142.2H265.134V138.846H264.6V138.354Z" fill="#263238"/>
<path d="M264.6 144.642C264.773 144.663 264.948 144.618 265.09 144.516C265.231 144.414 265.328 144.261 265.362 144.09H265.824V148.482H265.134V145.128H264.6V144.642Z" fill="#263238"/>
<path d="M264.144 157.71C264.133 157.566 264.152 157.421 264.2 157.285C264.247 157.148 264.323 157.023 264.421 156.917C264.519 156.811 264.638 156.726 264.771 156.668C264.903 156.611 265.046 156.581 265.191 156.581C265.336 156.581 265.479 156.611 265.611 156.668C265.744 156.726 265.863 156.811 265.961 156.917C266.059 157.023 266.135 157.148 266.182 157.285C266.23 157.421 266.249 157.566 266.238 157.71V159.996C266.249 160.14 266.23 160.285 266.182 160.422C266.135 160.558 266.059 160.683 265.961 160.789C265.863 160.895 265.744 160.98 265.611 161.038C265.479 161.095 265.336 161.125 265.191 161.125C265.046 161.125 264.903 161.095 264.771 161.038C264.638 160.98 264.519 160.895 264.421 160.789C264.323 160.683 264.247 160.558 264.2 160.422C264.152 160.285 264.133 160.14 264.144 159.996V157.71ZM264.834 160.044C264.834 160.356 264.972 160.476 265.188 160.476C265.404 160.476 265.548 160.356 265.548 160.044V157.644C265.548 157.326 265.41 157.212 265.188 157.212C264.966 157.212 264.834 157.326 264.834 157.644V160.044Z" fill="#263238"/>
<path d="M264.6 176.058C264.773 176.079 264.948 176.034 265.09 175.932C265.231 175.83 265.328 175.677 265.362 175.506H265.824V179.904H265.134V176.55H264.6V176.058Z" fill="#263238"/>
<path d="M264.144 182.844C264.133 182.7 264.152 182.555 264.2 182.419C264.247 182.282 264.323 182.157 264.421 182.051C264.519 181.945 264.638 181.86 264.771 181.802C264.903 181.745 265.046 181.715 265.191 181.715C265.336 181.715 265.479 181.745 265.611 181.802C265.744 181.86 265.863 181.945 265.961 182.051C266.059 182.157 266.135 182.282 266.182 182.419C266.23 182.555 266.249 182.7 266.238 182.844V185.136C266.249 185.28 266.23 185.425 266.182 185.562C266.135 185.698 266.059 185.823 265.961 185.929C265.863 186.035 265.744 186.12 265.611 186.178C265.479 186.235 265.336 186.265 265.191 186.265C265.046 186.265 264.903 186.235 264.771 186.178C264.638 186.12 264.519 186.035 264.421 185.929C264.323 185.823 264.247 185.698 264.2 185.562C264.152 185.425 264.133 185.28 264.144 185.136V182.844ZM264.834 185.178C264.834 185.49 264.972 185.61 265.188 185.61C265.404 185.61 265.548 185.49 265.548 185.178V182.778C265.548 182.466 265.41 182.346 265.188 182.346C264.966 182.346 264.834 182.466 264.834 182.778V185.178Z" fill="#263238"/>
<path d="M264.6 188.628C264.773 188.649 264.948 188.604 265.09 188.502C265.231 188.4 265.328 188.247 265.362 188.076H265.824V192.474H265.134V189.12H264.6V188.628Z" fill="#263238"/>
<path d="M264.6 194.91C264.773 194.933 264.949 194.889 265.091 194.786C265.233 194.683 265.33 194.53 265.362 194.358H265.824V198.756H265.134V195.402H264.6V194.91Z" fill="#263238"/>
<path d="M264.6 201.198C264.773 201.219 264.948 201.174 265.09 201.072C265.231 200.97 265.328 200.817 265.362 200.646H265.824V205.038H265.134V201.684H264.6V201.198Z" fill="#263238"/>
<path d="M264.144 207.984C264.133 207.84 264.152 207.695 264.2 207.559C264.247 207.422 264.323 207.297 264.421 207.191C264.519 207.085 264.638 207 264.771 206.942C264.903 206.885 265.046 206.855 265.191 206.855C265.336 206.855 265.479 206.885 265.611 206.942C265.744 207 265.863 207.085 265.961 207.191C266.059 207.297 266.135 207.422 266.182 207.559C266.23 207.695 266.249 207.84 266.238 207.984V210.27C266.249 210.414 266.23 210.559 266.182 210.696C266.135 210.832 266.059 210.957 265.961 211.063C265.863 211.169 265.744 211.254 265.611 211.312C265.479 211.37 265.336 211.399 265.191 211.399C265.046 211.399 264.903 211.37 264.771 211.312C264.638 211.254 264.519 211.169 264.421 211.063C264.323 210.957 264.247 210.832 264.2 210.696C264.152 210.559 264.133 210.414 264.144 210.27V207.984ZM264.834 210.312C264.834 210.63 264.972 210.744 265.188 210.744C265.404 210.744 265.548 210.63 265.548 210.312V207.942C265.548 207.624 265.41 207.504 265.188 207.504C264.966 207.504 264.834 207.624 264.834 207.942V210.312Z" fill="#263238"/>
<path d="M264.144 214.266C264.133 214.122 264.152 213.977 264.2 213.841C264.247 213.704 264.323 213.579 264.421 213.473C264.519 213.367 264.638 213.282 264.771 213.224C264.903 213.167 265.046 213.137 265.191 213.137C265.336 213.137 265.479 213.167 265.611 213.224C265.744 213.282 265.863 213.367 265.961 213.473C266.059 213.579 266.135 213.704 266.182 213.841C266.23 213.977 266.249 214.122 266.238 214.266V216.552C266.249 216.696 266.23 216.841 266.182 216.978C266.135 217.114 266.059 217.239 265.961 217.345C265.863 217.451 265.744 217.536 265.611 217.594C265.479 217.651 265.336 217.681 265.191 217.681C265.046 217.681 264.903 217.651 264.771 217.594C264.638 217.536 264.519 217.451 264.421 217.345C264.323 217.239 264.247 217.114 264.2 216.978C264.152 216.841 264.133 216.696 264.144 216.552V214.266ZM264.834 216.6C264.834 216.912 264.972 217.032 265.188 217.032C265.404 217.032 265.548 216.912 265.548 216.6V214.2C265.548 213.888 265.41 213.768 265.188 213.768C264.966 213.768 264.834 213.888 264.834 214.2V216.6Z" fill="#263238"/>
<path d="M257.154 176.058C257.327 176.079 257.502 176.034 257.644 175.932C257.785 175.83 257.882 175.677 257.916 175.506H258.378V179.904H257.688V176.55H257.154V176.058Z" fill="#263238"/>
<path d="M256.668 182.844C256.668 182.565 256.779 182.298 256.976 182.101C257.172 181.905 257.439 181.794 257.718 181.794C257.996 181.794 258.264 181.905 258.46 182.101C258.657 182.298 258.768 182.565 258.768 182.844V185.136C258.768 185.414 258.657 185.681 258.46 185.878C258.264 186.075 257.996 186.186 257.718 186.186C257.439 186.186 257.172 186.075 256.976 185.878C256.779 185.681 256.668 185.414 256.668 185.136V182.844ZM257.358 185.178C257.358 185.49 257.496 185.61 257.718 185.61C257.94 185.61 258.078 185.49 258.078 185.178V182.778C258.078 182.466 257.94 182.346 257.718 182.346C257.496 182.346 257.358 182.466 257.358 182.778V185.178Z" fill="#263238"/>
<path d="M256.668 189.132C256.668 188.854 256.779 188.586 256.976 188.39C257.172 188.193 257.439 188.082 257.718 188.082C257.996 188.082 258.264 188.193 258.46 188.39C258.657 188.586 258.768 188.854 258.768 189.132V191.4C258.768 191.679 258.657 191.946 258.46 192.142C258.264 192.339 257.996 192.45 257.718 192.45C257.439 192.45 257.172 192.339 256.976 192.142C256.779 191.946 256.668 191.679 256.668 191.4V189.132ZM257.358 191.46C257.358 191.778 257.496 191.892 257.718 191.892C257.94 191.892 258.078 191.778 258.078 191.46V189.06C258.078 188.742 257.94 188.622 257.718 188.622C257.496 188.622 257.358 188.742 257.358 189.06V191.46Z" fill="#263238"/>
<path d="M257.154 194.91C257.328 194.933 257.503 194.889 257.645 194.786C257.787 194.683 257.884 194.53 257.916 194.358H258.378V198.756H257.688V195.402H257.154V194.91Z" fill="#263238"/>
<path d="M257.154 207.48C257.327 207.501 257.502 207.456 257.644 207.354C257.785 207.252 257.882 207.099 257.916 206.928H258.378V211.326H257.688V207.972H257.154V207.48Z" fill="#263238"/>
<path d="M257.154 213.768C257.328 213.789 257.504 213.743 257.645 213.64C257.787 213.536 257.884 213.382 257.916 213.21H258.378V217.608H257.688V214.254H257.154V213.768Z" fill="#263238"/>
<path d="M257.154 220.05C257.327 220.071 257.502 220.026 257.644 219.924C257.785 219.822 257.882 219.669 257.916 219.498H258.378V223.89H257.688V220.542H257.154V220.05Z" fill="#263238"/>
<path d="M252.936 157.71C252.925 157.566 252.944 157.421 252.992 157.285C253.039 157.148 253.115 157.023 253.213 156.917C253.311 156.811 253.43 156.726 253.563 156.668C253.695 156.611 253.838 156.581 253.983 156.581C254.128 156.581 254.271 156.611 254.403 156.668C254.536 156.726 254.655 156.811 254.753 156.917C254.851 157.023 254.927 157.148 254.974 157.285C255.022 157.421 255.041 157.566 255.03 157.71V159.996C255.041 160.14 255.022 160.285 254.974 160.422C254.927 160.558 254.851 160.683 254.753 160.789C254.655 160.895 254.536 160.98 254.403 161.038C254.271 161.095 254.128 161.125 253.983 161.125C253.838 161.125 253.695 161.095 253.563 161.038C253.43 160.98 253.311 160.895 253.213 160.789C253.115 160.683 253.039 160.558 252.992 160.422C252.944 160.285 252.925 160.14 252.936 159.996V157.71ZM253.626 160.044C253.626 160.356 253.764 160.476 253.98 160.476C254.196 160.476 254.34 160.356 254.34 160.044V157.644C254.34 157.326 254.202 157.212 253.98 157.212C253.758 157.212 253.626 157.326 253.626 157.644V160.044Z" fill="#263238"/>
<path d="M252.936 170.28C252.925 170.136 252.944 169.991 252.992 169.854C253.039 169.718 253.115 169.593 253.213 169.487C253.311 169.381 253.43 169.296 253.563 169.238C253.695 169.18 253.838 169.151 253.983 169.151C254.128 169.151 254.271 169.18 254.403 169.238C254.536 169.296 254.655 169.381 254.753 169.487C254.851 169.593 254.927 169.718 254.974 169.854C255.022 169.991 255.041 170.136 255.03 170.28V172.566C255.041 172.71 255.022 172.855 254.974 172.991C254.927 173.128 254.851 173.253 254.753 173.359C254.655 173.465 254.536 173.55 254.403 173.608C254.271 173.665 254.128 173.695 253.983 173.695C253.838 173.695 253.695 173.665 253.563 173.608C253.43 173.55 253.311 173.465 253.213 173.359C253.115 173.253 253.039 173.128 252.992 172.991C252.944 172.855 252.925 172.71 252.936 172.566V170.28ZM253.626 172.608C253.626 172.926 253.764 173.04 253.98 173.04C254.196 173.04 254.34 172.926 254.34 172.608V170.208C254.34 169.896 254.202 169.776 253.98 169.776C253.758 169.776 253.626 169.896 253.626 170.208V172.608Z" fill="#263238"/>
<path d="M253.416 188.628C253.589 188.649 253.764 188.604 253.906 188.502C254.047 188.4 254.144 188.247 254.178 188.076H254.64V192.474H253.95V189.12H253.416V188.628Z" fill="#263238"/>
<path d="M253.416 194.91C253.59 194.933 253.765 194.889 253.907 194.786C254.049 194.683 254.146 194.53 254.178 194.358H254.64V198.756H253.95V195.402H253.416V194.91Z" fill="#263238"/>
<path d="M253.416 213.768C253.59 213.789 253.766 213.743 253.907 213.64C254.049 213.536 254.146 213.382 254.178 213.21H254.64V217.608H253.95V214.254H253.416V213.768Z" fill="#263238"/>
<path d="M252.936 220.554C252.925 220.41 252.944 220.265 252.992 220.129C253.039 219.992 253.115 219.867 253.213 219.761C253.311 219.655 253.43 219.57 253.563 219.512C253.695 219.455 253.838 219.425 253.983 219.425C254.128 219.425 254.271 219.455 254.403 219.512C254.536 219.57 254.655 219.655 254.753 219.761C254.851 219.867 254.927 219.992 254.974 220.129C255.022 220.265 255.041 220.41 255.03 220.554V222.84C255.041 222.984 255.022 223.129 254.974 223.266C254.927 223.402 254.851 223.527 254.753 223.633C254.655 223.739 254.536 223.824 254.403 223.882C254.271 223.939 254.128 223.969 253.983 223.969C253.838 223.969 253.695 223.939 253.563 223.882C253.43 223.824 253.311 223.739 253.213 223.633C253.115 223.527 253.039 223.402 252.992 223.266C252.944 223.129 252.925 222.984 252.936 222.84V220.554ZM253.626 222.882C253.626 223.194 253.764 223.314 253.98 223.314C254.196 223.314 254.34 223.194 254.34 222.882V220.482C254.34 220.17 254.202 220.05 253.98 220.05C253.758 220.05 253.626 220.17 253.626 220.482V222.882Z" fill="#263238"/>
<path d="M253.416 226.332C253.589 226.354 253.764 226.308 253.906 226.206C254.047 226.104 254.144 225.951 254.178 225.78H254.64V230.178H253.95V226.8H253.416V226.332Z" fill="#263238"/>
<path d="M98.238 164.4C98.238 164.121 98.3486 163.854 98.5455 163.658C98.7424 163.461 99.0095 163.35 99.288 163.35C99.5665 163.35 99.8335 163.461 100.03 163.658C100.227 163.854 100.338 164.121 100.338 164.4V166.686C100.338 166.964 100.227 167.232 100.03 167.428C99.8335 167.625 99.5665 167.736 99.288 167.736C99.0095 167.736 98.7424 167.625 98.5455 167.428C98.3486 167.232 98.238 166.964 98.238 166.686V164.4ZM98.928 166.728C98.928 167.046 99.066 167.166 99.288 167.166C99.51 167.166 99.642 167.046 99.642 166.728V164.328C99.642 164.01 99.504 163.89 99.288 163.89C99.072 163.89 98.928 164.01 98.928 164.328V166.728Z" fill="#263238"/>
<path d="M98.238 170.7C98.238 170.422 98.3486 170.154 98.5455 169.958C98.7424 169.761 99.0095 169.65 99.288 169.65C99.5665 169.65 99.8335 169.761 100.03 169.958C100.227 170.154 100.338 170.422 100.338 170.7V172.986C100.338 173.265 100.227 173.532 100.03 173.728C99.8335 173.925 99.5665 174.036 99.288 174.036C99.0095 174.036 98.7424 173.925 98.5455 173.728C98.3486 173.532 98.238 173.265 98.238 172.986V170.7ZM98.928 173.034C98.928 173.346 99.066 173.466 99.288 173.466C99.51 173.466 99.642 173.346 99.642 173.034V170.634C99.642 170.322 99.504 170.202 99.288 170.202C99.072 170.202 98.928 170.322 98.928 170.634V173.034Z" fill="#263238"/>
<path d="M98.724 176.484C98.8966 176.505 99.0708 176.46 99.2112 176.358C99.3516 176.255 99.4478 176.103 99.48 175.932H99.948V180.33H99.258V177H98.724V176.484Z" fill="#263238"/>
<path d="M98.238 183.27C98.238 182.991 98.3486 182.724 98.5455 182.527C98.7424 182.331 99.0095 182.22 99.288 182.22C99.5665 182.22 99.8335 182.331 100.03 182.527C100.227 182.724 100.338 182.991 100.338 183.27V185.556C100.338 185.834 100.227 186.102 100.03 186.298C99.8335 186.495 99.5665 186.606 99.288 186.606C99.0095 186.606 98.7424 186.495 98.5455 186.298C98.3486 186.102 98.238 185.834 98.238 185.556V183.27ZM98.928 185.598C98.928 185.916 99.066 186.036 99.288 186.036C99.51 186.036 99.642 185.916 99.642 185.598V183.228C99.642 182.91 99.504 182.79 99.288 182.79C99.072 182.79 98.928 182.91 98.928 183.228V185.598Z" fill="#263238"/>
<path d="M98.724 189.054C98.8966 189.075 99.0708 189.03 99.2112 188.928C99.3516 188.825 99.4478 188.673 99.48 188.502H99.948V192.894H99.258V189.54H98.724V189.054Z" fill="#263238"/>
<path d="M98.238 195.84C98.238 195.562 98.3486 195.294 98.5455 195.098C98.7424 194.901 99.0095 194.79 99.288 194.79C99.5665 194.79 99.8335 194.901 100.03 195.098C100.227 195.294 100.338 195.562 100.338 195.84V198.126C100.338 198.405 100.227 198.672 100.03 198.869C99.8335 199.065 99.5665 199.176 99.288 199.176C99.0095 199.176 98.7424 199.065 98.5455 198.869C98.3486 198.672 98.238 198.405 98.238 198.126V195.84ZM98.928 198.168C98.928 198.48 99.066 198.6 99.288 198.6C99.51 198.6 99.642 198.48 99.642 198.168V195.768C99.642 195.456 99.504 195.336 99.288 195.336C99.072 195.336 98.928 195.456 98.928 195.768V198.168Z" fill="#263238"/>
<path d="M98.724 201.6C98.8966 201.621 99.0708 201.576 99.2112 201.474C99.3516 201.371 99.4478 201.219 99.48 201.048H99.948V205.446H99.258V202.092H98.724V201.6Z" fill="#263238"/>
<path d="M98.238 208.404C98.238 208.126 98.3486 207.858 98.5455 207.662C98.7424 207.465 99.0095 207.354 99.288 207.354C99.5665 207.354 99.8335 207.465 100.03 207.662C100.227 207.858 100.338 208.126 100.338 208.404V210.69C100.338 210.968 100.227 211.236 100.03 211.432C99.8335 211.629 99.5665 211.74 99.288 211.74C99.0095 211.74 98.7424 211.629 98.5455 211.432C98.3486 211.236 98.238 210.968 98.238 210.69V208.404ZM98.928 210.738C98.928 211.05 99.066 211.17 99.288 211.17C99.51 211.17 99.642 211.05 99.642 210.738V208.338C99.642 208.026 99.504 207.906 99.288 207.906C99.072 207.906 98.928 208.026 98.928 208.338V210.738Z" fill="#263238"/>
<path d="M98.238 214.692C98.238 214.413 98.3486 214.146 98.5455 213.949C98.7424 213.753 99.0095 213.642 99.288 213.642C99.5665 213.642 99.8335 213.753 100.03 213.949C100.227 214.146 100.338 214.413 100.338 214.692V216.978C100.338 217.256 100.227 217.524 100.03 217.72C99.8335 217.917 99.5665 218.028 99.288 218.028C99.0095 218.028 98.7424 217.917 98.5455 217.72C98.3486 217.524 98.238 217.256 98.238 216.978V214.692ZM98.928 217.02C98.928 217.332 99.066 217.452 99.288 217.452C99.51 217.452 99.642 217.332 99.642 217.02V214.62C99.642 214.308 99.504 214.188 99.288 214.188C99.072 214.188 98.928 214.308 98.928 214.62V217.02Z" fill="#263238"/>
<path d="M98.238 220.974C98.238 220.695 98.3486 220.428 98.5455 220.231C98.7424 220.035 99.0095 219.924 99.288 219.924C99.5665 219.924 99.8335 220.035 100.03 220.231C100.227 220.428 100.338 220.695 100.338 220.974V223.26C100.338 223.538 100.227 223.805 100.03 224.002C99.8335 224.199 99.5665 224.31 99.288 224.31C99.0095 224.31 98.7424 224.199 98.5455 224.002C98.3486 223.805 98.238 223.538 98.238 223.26V220.974ZM98.928 223.302C98.928 223.62 99.066 223.74 99.288 223.74C99.51 223.74 99.642 223.62 99.642 223.302V220.932C99.642 220.614 99.504 220.5 99.288 220.5C99.072 220.5 98.928 220.614 98.928 220.932V223.302Z" fill="#263238"/>
<path d="M98.724 226.758C98.8966 226.779 99.0708 226.734 99.2112 226.632C99.3516 226.529 99.4478 226.377 99.48 226.206H99.948V230.598H99.258V227.244H98.724V226.758Z" fill="#263238"/>
<path d="M98.724 233.04C98.8966 233.061 99.0708 233.016 99.2112 232.914C99.3516 232.811 99.4478 232.659 99.48 232.488H99.948V236.886H99.258V233.532H98.724V233.04Z" fill="#263238"/>
<path d="M98.724 239.322C98.8966 239.343 99.0708 239.298 99.2112 239.196C99.3516 239.093 99.4478 238.941 99.48 238.77H99.948V243.168H99.258V239.814H98.724V239.322Z" fill="#263238"/>
<path d="M98.724 245.61C98.8966 245.631 99.0708 245.586 99.2112 245.484C99.3516 245.381 99.4478 245.229 99.48 245.058H99.948V249.45H99.258V246.096H98.724V245.61Z" fill="#263238"/>
<path d="M98.928 254.724C98.928 255.042 99.066 255.156 99.288 255.156C99.51 255.156 99.642 255.042 99.642 254.724V252.324C99.642 252.012 99.504 251.892 99.288 251.892C99.072 251.892 98.928 252.012 98.928 252.324V254.724Z" fill="#263238"/>
<path d="M102.456 189.054C102.629 189.075 102.804 189.03 102.946 188.928C103.087 188.826 103.184 188.673 103.218 188.502H103.68V192.894H102.99V189.54H102.456V189.054Z" fill="#263238"/>
<path d="M102.456 195.336C102.629 195.358 102.804 195.313 102.946 195.21C103.087 195.108 103.184 194.955 103.218 194.784H103.68V199.2H102.99V195.846H102.456V195.336Z" fill="#263238"/>
<path d="M102 208.404C101.989 208.26 102.008 208.115 102.056 207.978C102.103 207.842 102.179 207.717 102.277 207.611C102.375 207.505 102.494 207.42 102.627 207.362C102.759 207.305 102.902 207.275 103.047 207.275C103.192 207.275 103.335 207.305 103.467 207.362C103.6 207.42 103.719 207.505 103.817 207.611C103.915 207.717 103.991 207.842 104.038 207.978C104.086 208.115 104.105 208.26 104.094 208.404V210.69C104.105 210.834 104.086 210.979 104.038 211.115C103.991 211.252 103.915 211.377 103.817 211.483C103.719 211.589 103.6 211.674 103.467 211.732C103.335 211.789 103.192 211.819 103.047 211.819C102.902 211.819 102.759 211.789 102.627 211.732C102.494 211.674 102.375 211.589 102.277 211.483C102.179 211.377 102.103 211.252 102.056 211.115C102.008 210.979 101.989 210.834 102 210.69V208.404ZM102.69 210.738C102.69 211.05 102.828 211.17 103.044 211.17C103.26 211.17 103.404 211.05 103.404 210.738V208.338C103.404 208.026 103.266 207.906 103.044 207.906C102.822 207.906 102.69 208.026 102.69 208.338V210.738Z" fill="#263238"/>
<path d="M102.456 214.2C102.629 214.221 102.804 214.176 102.946 214.074C103.087 213.972 103.184 213.819 103.218 213.648H103.68V218.046H102.99V214.68H102.456V214.2Z" fill="#263238"/>
<path d="M102 220.974C101.989 220.83 102.008 220.685 102.056 220.549C102.103 220.412 102.179 220.287 102.277 220.181C102.375 220.075 102.494 219.99 102.627 219.932C102.759 219.875 102.902 219.845 103.047 219.845C103.192 219.845 103.335 219.875 103.467 219.932C103.6 219.99 103.719 220.075 103.817 220.181C103.915 220.287 103.991 220.412 104.038 220.549C104.086 220.685 104.105 220.83 104.094 220.974V223.26C104.105 223.404 104.086 223.549 104.038 223.686C103.991 223.822 103.915 223.947 103.817 224.053C103.719 224.159 103.6 224.244 103.467 224.302C103.335 224.359 103.192 224.389 103.047 224.389C102.902 224.389 102.759 224.359 102.627 224.302C102.494 224.244 102.375 224.159 102.277 224.053C102.179 223.947 102.103 223.822 102.056 223.686C102.008 223.549 101.989 223.404 102 223.26V220.974ZM102.69 223.302C102.69 223.62 102.828 223.74 103.044 223.74C103.26 223.74 103.404 223.62 103.404 223.302V220.932C103.404 220.614 103.266 220.5 103.044 220.5C102.822 220.5 102.69 220.614 102.69 220.932V223.302Z" fill="#263238"/>
<path d="M102.666 235.872C102.666 236.184 102.804 236.304 103.02 236.304C103.236 236.304 103.38 236.184 103.38 235.872V233.472C103.38 233.16 103.242 233.04 103.02 233.04C102.798 233.04 102.666 233.16 102.666 233.472V235.872Z" fill="#263238"/>
<path d="M102.456 239.322C102.622 239.34 102.789 239.297 102.926 239.201C103.063 239.105 103.16 238.962 103.2 238.8H103.662V243.198H102.972V239.844H102.438L102.456 239.322Z" fill="#263238"/>
<path d="M102.456 245.61C102.629 245.631 102.804 245.586 102.946 245.484C103.087 245.382 103.184 245.229 103.218 245.058H103.68V249.45H102.99V246.096H102.456V245.61Z" fill="#263238"/>
<path d="M102 264.96C101.989 264.816 102.008 264.671 102.056 264.535C102.103 264.398 102.179 264.273 102.277 264.167C102.375 264.061 102.494 263.976 102.627 263.918C102.759 263.861 102.902 263.831 103.047 263.831C103.192 263.831 103.335 263.861 103.467 263.918C103.6 263.976 103.719 264.061 103.817 264.167C103.915 264.273 103.991 264.398 104.038 264.535C104.086 264.671 104.105 264.816 104.094 264.96V267.252C104.105 267.396 104.086 267.541 104.038 267.678C103.991 267.814 103.915 267.939 103.817 268.045C103.719 268.151 103.6 268.236 103.467 268.294C103.335 268.351 103.192 268.381 103.047 268.381C102.902 268.381 102.759 268.351 102.627 268.294C102.494 268.236 102.375 268.151 102.277 268.045C102.179 267.939 102.103 267.814 102.056 267.678C102.008 267.541 101.989 267.396 102 267.252V264.96ZM102.69 267.294C102.69 267.606 102.828 267.726 103.044 267.726C103.26 267.726 103.404 267.606 103.404 267.294V264.894C103.404 264.582 103.266 264.462 103.044 264.462C102.822 264.462 102.69 264.582 102.69 264.894V267.294Z" fill="#263238"/>
<path d="M94.5 183.27C94.5 182.991 94.6106 182.724 94.8075 182.527C95.0044 182.331 95.2715 182.22 95.55 182.22C95.8285 182.22 96.0956 182.331 96.2925 182.527C96.4894 182.724 96.6 182.991 96.6 183.27V185.556C96.6 185.834 96.4894 186.102 96.2925 186.298C96.0956 186.495 95.8285 186.606 95.55 186.606C95.2715 186.606 95.0044 186.495 94.8075 186.298C94.6106 186.102 94.5 185.834 94.5 185.556V183.27ZM95.19 185.598C95.19 185.916 95.328 186.036 95.55 186.036C95.772 186.036 95.91 185.916 95.91 185.598V183.228C95.91 182.91 95.772 182.79 95.55 182.79C95.328 182.79 95.19 182.91 95.19 183.228V185.598Z" fill="#263238"/>
<path d="M94.986 189.054C95.1593 189.075 95.3343 189.03 95.4757 188.928C95.6171 188.826 95.7144 188.673 95.748 188.502H96.21V192.894H95.52V189.54H94.986V189.054Z" fill="#263238"/>
<path d="M94.986 195.336C95.1593 195.358 95.3343 195.313 95.4757 195.21C95.6171 195.108 95.7144 194.955 95.748 194.784H96.21V199.2H95.52V195.846H94.986V195.336Z" fill="#263238"/>
<path d="M94.5 202.122C94.5 201.844 94.6106 201.576 94.8075 201.38C95.0044 201.183 95.2715 201.072 95.55 201.072C95.8285 201.072 96.0956 201.183 96.2925 201.38C96.4894 201.576 96.6 201.844 96.6 202.122V204.408C96.6 204.686 96.4894 204.954 96.2925 205.15C96.0956 205.347 95.8285 205.458 95.55 205.458C95.2715 205.458 95.0044 205.347 94.8075 205.15C94.6106 204.954 94.5 204.686 94.5 204.408V202.122ZM95.19 204.45C95.19 204.768 95.328 204.888 95.55 204.888C95.772 204.888 95.91 204.768 95.91 204.45V202.08C95.91 201.762 95.772 201.642 95.55 201.642C95.328 201.642 95.19 201.762 95.19 202.08V204.45Z" fill="#263238"/>
<path d="M94.5 214.692C94.5 214.413 94.6106 214.146 94.8075 213.949C95.0044 213.753 95.2715 213.642 95.55 213.642C95.8285 213.642 96.0956 213.753 96.2925 213.949C96.4894 214.146 96.6 214.413 96.6 214.692V216.978C96.6 217.256 96.4894 217.524 96.2925 217.72C96.0956 217.917 95.8285 218.028 95.55 218.028C95.2715 218.028 95.0044 217.917 94.8075 217.72C94.6106 217.524 94.5 217.256 94.5 216.978V214.692ZM95.19 217.02C95.19 217.332 95.328 217.452 95.55 217.452C95.772 217.452 95.91 217.332 95.91 217.02V214.62C95.91 214.308 95.772 214.188 95.55 214.188C95.328 214.188 95.19 214.308 95.19 214.62V217.02Z" fill="#263238"/>
<path d="M94.5 220.974C94.5 220.695 94.6106 220.428 94.8075 220.231C95.0044 220.035 95.2715 219.924 95.55 219.924C95.8285 219.924 96.0956 220.035 96.2925 220.231C96.4894 220.428 96.6 220.695 96.6 220.974V223.26C96.6 223.538 96.4894 223.805 96.2925 224.002C96.0956 224.199 95.8285 224.31 95.55 224.31C95.2715 224.31 95.0044 224.199 94.8075 224.002C94.6106 223.805 94.5 223.538 94.5 223.26V220.974ZM95.19 223.302C95.19 223.62 95.328 223.74 95.55 223.74C95.772 223.74 95.91 223.62 95.91 223.302V220.932C95.91 220.614 95.772 220.5 95.55 220.5C95.328 220.5 95.19 220.614 95.19 220.932V223.302Z" fill="#263238"/>
<path d="M94.986 226.758C95.1593 226.78 95.3343 226.735 95.4757 226.632C95.6171 226.53 95.7144 226.377 95.748 226.206H96.21V230.598H95.52V227.244H94.986V226.758Z" fill="#263238"/>
<path d="M94.5 233.544C94.5 233.266 94.6106 232.998 94.8075 232.802C95.0044 232.605 95.2715 232.494 95.55 232.494C95.8285 232.494 96.0956 232.605 96.2925 232.802C96.4894 232.998 96.6 233.266 96.6 233.544V235.83C96.6 236.108 96.4894 236.376 96.2925 236.572C96.0956 236.769 95.8285 236.88 95.55 236.88C95.2715 236.88 95.0044 236.769 94.8075 236.572C94.6106 236.376 94.5 236.108 94.5 235.83V233.544ZM95.19 235.872C95.19 236.184 95.328 236.304 95.55 236.304C95.772 236.304 95.91 236.184 95.91 235.872V233.472C95.91 233.16 95.772 233.04 95.55 233.04C95.328 233.04 95.19 233.16 95.19 233.472V235.872Z" fill="#263238"/>
<path d="M94.986 239.322C95.1593 239.343 95.3343 239.298 95.4757 239.196C95.6171 239.094 95.7144 238.941 95.748 238.77H96.21V243.168H95.52V239.814H94.986V239.322Z" fill="#263238"/>
<path d="M90.768 170.7C90.7571 170.556 90.776 170.411 90.8237 170.274C90.8714 170.138 90.9467 170.013 91.045 169.907C91.1433 169.801 91.2624 169.716 91.3949 169.658C91.5274 169.601 91.6704 169.571 91.815 169.571C91.9596 169.571 92.1026 169.601 92.2351 169.658C92.3676 169.716 92.4867 169.801 92.585 169.907C92.6833 170.013 92.7586 170.138 92.8063 170.274C92.8539 170.411 92.8729 170.556 92.862 170.7V172.986C92.8729 173.13 92.8539 173.275 92.8063 173.411C92.7586 173.548 92.6833 173.673 92.585 173.779C92.4867 173.885 92.3676 173.97 92.2351 174.028C92.1026 174.085 91.9596 174.115 91.815 174.115C91.6704 174.115 91.5274 174.085 91.3949 174.028C91.2624 173.97 91.1433 173.885 91.045 173.779C90.9467 173.673 90.8714 173.548 90.8237 173.411C90.776 173.275 90.7571 173.13 90.768 172.986V170.7ZM91.458 173.034C91.458 173.346 91.596 173.466 91.812 173.466C92.028 173.466 92.172 173.346 92.172 173.034V170.634C92.172 170.322 92.034 170.202 91.812 170.202C91.59 170.202 91.458 170.322 91.458 170.634V173.034Z" fill="#263238"/>
<path d="M91.248 182.766C91.4213 182.787 91.5963 182.742 91.7377 182.64C91.8791 182.538 91.9764 182.385 92.01 182.214H92.472V186.6H91.8V183.246H91.266L91.248 182.766Z" fill="#263238"/>
<path d="M91.248 195.336C91.4213 195.358 91.5963 195.313 91.7377 195.21C91.8791 195.108 91.9764 194.955 92.01 194.784H92.472V199.2H91.8V195.846H91.266L91.248 195.336Z" fill="#263238"/>
<path d="M90.768 202.122C90.7571 201.978 90.776 201.833 90.8237 201.696C90.8714 201.56 90.9467 201.435 91.045 201.329C91.1433 201.223 91.2624 201.138 91.3949 201.08C91.5274 201.023 91.6704 200.993 91.815 200.993C91.9596 200.993 92.1026 201.023 92.2351 201.08C92.3676 201.138 92.4867 201.223 92.585 201.329C92.6833 201.435 92.7586 201.56 92.8063 201.696C92.8539 201.833 92.8729 201.978 92.862 202.122V204.408C92.8729 204.552 92.8539 204.697 92.8063 204.834C92.7586 204.97 92.6833 205.095 92.585 205.201C92.4867 205.307 92.3676 205.392 92.2351 205.45C92.1026 205.507 91.9596 205.537 91.815 205.537C91.6704 205.537 91.5274 205.507 91.3949 205.45C91.2624 205.392 91.1433 205.307 91.045 205.201C90.9467 205.095 90.8714 204.97 90.8237 204.834C90.776 204.697 90.7571 204.552 90.768 204.408V202.122ZM91.458 204.456C91.458 204.768 91.596 204.888 91.812 204.888C92.028 204.888 92.172 204.768 92.172 204.456V202.056C92.172 201.738 92.034 201.624 91.812 201.624C91.59 201.624 91.458 201.738 91.458 202.056V204.456Z" fill="#263238"/>
<path d="M91.248 220.47C91.4213 220.491 91.5963 220.446 91.7377 220.344C91.8791 220.242 91.9764 220.089 92.01 219.918H92.472V224.316H91.8V220.962H91.266L91.248 220.47Z" fill="#263238"/>
<path d="M91.248 226.758C91.4213 226.78 91.5963 226.735 91.7377 226.632C91.8791 226.53 91.9764 226.377 92.01 226.206H92.472V230.598H91.8V227.244H91.266L91.248 226.758Z" fill="#263238"/>
<path d="M91.248 233.04C91.4213 233.062 91.5963 233.017 91.7377 232.914C91.8791 232.812 91.9764 232.659 92.01 232.488H92.472V236.886H91.8V233.532H91.266L91.248 233.04Z" fill="#263238"/>
<path d="M208.266 19.566C208.266 19.2875 208.377 19.0204 208.574 18.8235C208.77 18.6266 209.038 18.516 209.316 18.516C209.594 18.516 209.862 18.6266 210.058 18.8235C210.255 19.0204 210.366 19.2875 210.366 19.566V21.852C210.366 22.1305 210.255 22.3975 210.058 22.5945C209.862 22.7914 209.594 22.902 209.316 22.902C209.038 22.902 208.77 22.7914 208.574 22.5945C208.377 22.3975 208.266 22.1305 208.266 21.852V19.566ZM208.956 21.894C208.956 22.206 209.094 22.326 209.316 22.326C209.538 22.326 209.67 22.206 209.67 21.894V19.494C209.67 19.182 209.532 19.062 209.316 19.062C209.1 19.062 208.956 19.182 208.956 19.494V21.894Z" fill="#263238"/>
<path d="M208.266 25.848C208.266 25.5695 208.377 25.3024 208.574 25.1055C208.77 24.9086 209.038 24.798 209.316 24.798C209.594 24.798 209.862 24.9086 210.058 25.1055C210.255 25.3024 210.366 25.5695 210.366 25.848V28.134C210.366 28.4124 210.255 28.6795 210.058 28.8764C209.862 29.0733 209.594 29.184 209.316 29.184C209.038 29.184 208.77 29.0733 208.574 28.8764C208.377 28.6795 208.266 28.4124 208.266 28.134V25.848ZM208.956 28.2C208.956 28.518 209.094 28.638 209.316 28.638C209.538 28.638 209.67 28.518 209.67 28.2V25.8C209.67 25.482 209.532 25.362 209.316 25.362C209.1 25.362 208.956 25.482 208.956 25.8V28.2Z" fill="#263238"/>
<path d="M208.752 44.196C208.925 44.2174 209.099 44.1722 209.239 44.0696C209.38 43.9671 209.476 43.8149 209.508 43.644H210V48.042H209.31V44.688H208.776L208.752 44.196Z" fill="#263238"/>
<path d="M208.752 50.484C208.925 50.5053 209.099 50.4601 209.239 50.3576C209.38 50.255 209.476 50.1029 209.508 49.932H210V54.324H209.31V51H208.776L208.752 50.484Z" fill="#263238"/>
<path d="M208.266 69.8339C208.266 69.5555 208.377 69.2884 208.574 69.0915C208.77 68.8946 209.038 68.7839 209.316 68.7839C209.594 68.7839 209.862 68.8946 210.058 69.0915C210.255 69.2884 210.366 69.5555 210.366 69.8339V72.1199C210.366 72.3984 210.255 72.6655 210.058 72.8624C209.862 73.0593 209.594 73.1699 209.316 73.1699C209.038 73.1699 208.77 73.0593 208.574 72.8624C208.377 72.6655 208.266 72.3984 208.266 72.1199V69.8339ZM208.956 72.1679C208.956 72.4799 209.094 72.5999 209.316 72.5999C209.538 72.5999 209.67 72.4799 209.67 72.1679V69.7679C209.67 69.4559 209.532 69.3359 209.316 69.3359C209.1 69.3359 208.956 69.4559 208.956 69.7679V72.1679Z" fill="#263238"/>
<path d="M208.266 82.404C208.266 82.1255 208.377 81.8585 208.574 81.6615C208.77 81.4646 209.038 81.354 209.316 81.354C209.594 81.354 209.862 81.4646 210.058 81.6615C210.255 81.8585 210.366 82.1255 210.366 82.404V84.69C210.366 84.9685 210.255 85.2356 210.058 85.4325C209.862 85.6294 209.594 85.74 209.316 85.74C209.038 85.74 208.77 85.6294 208.574 85.4325C208.377 85.2356 208.266 84.9685 208.266 84.69V82.404ZM208.956 84.732C208.956 85.05 209.094 85.17 209.316 85.17C209.538 85.17 209.67 85.05 209.67 84.732V82.362C209.67 82.044 209.532 81.93 209.316 81.93C209.1 81.93 208.956 82.044 208.956 82.362V84.732Z" fill="#263238"/>
<path d="M197.058 32.13C197.058 31.8515 197.169 31.5844 197.366 31.3875C197.562 31.1906 197.83 31.08 198.108 31.08C198.386 31.08 198.654 31.1906 198.85 31.3875C199.047 31.5844 199.158 31.8515 199.158 32.13V34.416C199.158 34.6944 199.047 34.9615 198.85 35.1584C198.654 35.3553 198.386 35.466 198.108 35.466C197.83 35.466 197.562 35.3553 197.366 35.1584C197.169 34.9615 197.058 34.6944 197.058 34.416V32.13ZM197.748 34.464C197.748 34.776 197.886 34.896 198.108 34.896C198.33 34.896 198.462 34.776 198.462 34.464V32.064C198.462 31.752 198.324 31.632 198.108 31.632C197.892 31.632 197.748 31.752 197.748 32.064V34.464Z" fill="#263238"/>
<path d="M197.058 38.4C197.058 38.1215 197.169 37.8544 197.366 37.6575C197.562 37.4606 197.83 37.35 198.108 37.35C198.386 37.35 198.654 37.4606 198.85 37.6575C199.047 37.8544 199.158 38.1215 199.158 38.4V40.686C199.158 40.9645 199.047 41.2315 198.85 41.4284C198.654 41.6254 198.386 41.736 198.108 41.736C197.83 41.736 197.562 41.6254 197.366 41.4284C197.169 41.2315 197.058 40.9645 197.058 40.686V38.4ZM197.748 40.728C197.748 41.04 197.886 41.16 198.108 41.16C198.33 41.16 198.462 41.04 198.462 40.728V38.4C198.462 38.088 198.324 37.968 198.108 37.968C197.892 37.968 197.748 38.088 197.748 38.4V40.728Z" fill="#263238"/>
<path d="M197.058 44.7C197.058 44.4215 197.169 44.1545 197.366 43.9576C197.562 43.7607 197.83 43.65 198.108 43.65C198.386 43.65 198.654 43.7607 198.85 43.9576C199.047 44.1545 199.158 44.4215 199.158 44.7V46.986C199.158 47.2645 199.047 47.5316 198.85 47.7285C198.654 47.9254 198.386 48.036 198.108 48.036C197.83 48.036 197.562 47.9254 197.366 47.7285C197.169 47.5316 197.058 47.2645 197.058 46.986V44.7ZM197.748 47.028C197.748 47.346 197.886 47.466 198.108 47.466C198.33 47.466 198.462 47.346 198.462 47.028V44.658C198.462 44.34 198.324 44.22 198.108 44.22C197.892 44.22 197.748 44.34 197.748 44.658V47.028Z" fill="#263238"/>
<path d="M197.544 50.484C197.717 50.5053 197.891 50.4601 198.031 50.3576C198.172 50.255 198.268 50.1029 198.3 49.932H198.768V54.324H198.078V51H197.544V50.484Z" fill="#263238"/>
<path d="M197.544 63.048C197.717 63.0693 197.891 63.0241 198.031 62.9215C198.172 62.819 198.268 62.6668 198.3 62.496H198.768V66.894H198.078V63.54H197.544V63.048Z" fill="#263238"/>
<path d="M197.544 69.3359C197.717 69.3573 197.891 69.3121 198.031 69.2095C198.172 69.107 198.268 68.9548 198.3 68.7839H198.768V73.1999H198.078V69.8459H197.544V69.3359Z" fill="#263238"/>
<path d="M197.058 82.404C197.058 82.1255 197.169 81.8585 197.366 81.6615C197.562 81.4646 197.83 81.354 198.108 81.354C198.386 81.354 198.654 81.4646 198.85 81.6615C199.047 81.8585 199.158 82.1255 199.158 82.404V84.69C199.158 84.9685 199.047 85.2356 198.85 85.4325C198.654 85.6294 198.386 85.74 198.108 85.74C197.83 85.74 197.562 85.6294 197.366 85.4325C197.169 85.2356 197.058 84.9685 197.058 84.69V82.404ZM197.748 84.732C197.748 85.05 197.886 85.17 198.108 85.17C198.33 85.17 198.462 85.05 198.462 84.732V82.362C198.462 82.044 198.324 81.93 198.108 81.93C197.892 81.93 197.748 82.044 197.748 82.362V84.732Z" fill="#263238"/>
<path d="M197.544 88.1999C197.717 88.2213 197.891 88.1761 198.031 88.0735C198.172 87.971 198.268 87.8188 198.3 87.6479H198.768V92.0399H198.078V88.6859H197.544V88.1999Z" fill="#263238"/>
<path d="M204.528 19.566C204.528 19.2875 204.639 19.0204 204.836 18.8235C205.032 18.6266 205.3 18.516 205.578 18.516C205.856 18.516 206.124 18.6266 206.32 18.8235C206.517 19.0204 206.628 19.2875 206.628 19.566V21.852C206.628 22.1305 206.517 22.3975 206.32 22.5945C206.124 22.7914 205.856 22.902 205.578 22.902C205.3 22.902 205.032 22.7914 204.836 22.5945C204.639 22.3975 204.528 22.1305 204.528 21.852V19.566ZM205.2 21.894C205.2 22.206 205.338 22.326 205.554 22.326C205.77 22.326 205.914 22.206 205.914 21.894V19.494C205.914 19.182 205.776 19.062 205.554 19.062C205.332 19.062 205.2 19.182 205.2 19.494V21.894Z" fill="#263238"/>
<path d="M205.014 25.344C205.187 25.3655 205.362 25.3205 205.504 25.218C205.645 25.1156 205.742 24.9633 205.776 24.792H206.238V29.19H205.548V25.836H205.014V25.344Z" fill="#263238"/>
<path d="M204.528 32.13C204.528 31.8515 204.639 31.5844 204.836 31.3875C205.032 31.1906 205.3 31.08 205.578 31.08C205.856 31.08 206.124 31.1906 206.32 31.3875C206.517 31.5844 206.628 31.8515 206.628 32.13V34.416C206.628 34.6944 206.517 34.9615 206.32 35.1584C206.124 35.3553 205.856 35.466 205.578 35.466C205.3 35.466 205.032 35.3553 204.836 35.1584C204.639 34.9615 204.528 34.6944 204.528 34.416V32.13ZM205.2 34.464C205.2 34.776 205.338 34.896 205.554 34.896C205.77 34.896 205.914 34.776 205.914 34.464V32.064C205.914 31.752 205.776 31.632 205.554 31.632C205.332 31.632 205.2 31.752 205.2 32.064V34.464Z" fill="#263238"/>
<path d="M205.014 37.9139C205.187 37.9354 205.362 37.8904 205.504 37.788C205.645 37.6855 205.742 37.5333 205.776 37.3619H206.238V41.7599H205.548V38.3999H205.014V37.9139Z" fill="#263238"/>
<path d="M205.014 44.196C205.187 44.2175 205.362 44.1725 205.504 44.0701C205.645 43.9676 205.742 43.8154 205.776 43.644H206.238V48.042H205.548V44.688H205.014V44.196Z" fill="#263238"/>
<path d="M205.014 50.484C205.187 50.5055 205.362 50.4605 205.504 50.358C205.645 50.2556 205.742 50.1034 205.776 49.932H206.238V54.324H205.548V51H205.014V50.484Z" fill="#263238"/>
<path d="M204.528 57.27C204.528 56.9915 204.639 56.7244 204.836 56.5275C205.032 56.3306 205.3 56.22 205.578 56.22C205.856 56.22 206.124 56.3306 206.32 56.5275C206.517 56.7244 206.628 56.9915 206.628 57.27V59.556C206.628 59.8345 206.517 60.1015 206.32 60.2984C206.124 60.4953 205.856 60.606 205.578 60.606C205.3 60.606 205.032 60.4953 204.836 60.2984C204.639 60.1015 204.528 59.8345 204.528 59.556V57.27ZM205.2 59.598C205.2 59.91 205.338 60.03 205.554 60.03C205.77 60.03 205.914 59.91 205.914 59.598V57.198C205.914 56.886 205.776 56.766 205.554 56.766C205.332 56.766 205.2 56.886 205.2 57.198V59.598Z" fill="#263238"/>
<path d="M204.528 63.552C204.528 63.2735 204.639 63.0064 204.836 62.8095C205.032 62.6126 205.3 62.502 205.578 62.502C205.856 62.502 206.124 62.6126 206.32 62.8095C206.517 63.0064 206.628 63.2735 206.628 63.552V65.838C206.628 66.1164 206.517 66.3835 206.32 66.5804C206.124 66.7773 205.856 66.888 205.578 66.888C205.3 66.888 205.032 66.7773 204.836 66.5804C204.639 66.3835 204.528 66.1164 204.528 65.838V63.552ZM205.2 65.88C205.2 66.198 205.338 66.318 205.554 66.318C205.77 66.318 205.914 66.198 205.914 65.88V63.48C205.914 63.162 205.776 63.048 205.554 63.048C205.332 63.048 205.2 63.162 205.2 63.48V65.88Z" fill="#263238"/>
<path d="M201.276 25.344C201.449 25.3655 201.624 25.3205 201.766 25.218C201.907 25.1156 202.004 24.9633 202.038 24.792H202.5V29.19H201.81V25.836H201.276V25.344Z" fill="#263238"/>
<path d="M200.796 32.13C200.785 31.9859 200.804 31.841 200.852 31.7045C200.899 31.5681 200.975 31.4429 201.073 31.3369C201.171 31.2308 201.29 31.1463 201.423 31.0884C201.555 31.0306 201.698 31.0007 201.843 31.0007C201.988 31.0007 202.131 31.0306 202.263 31.0884C202.396 31.1463 202.515 31.2308 202.613 31.3369C202.711 31.4429 202.787 31.5681 202.834 31.7045C202.882 31.841 202.901 31.9859 202.89 32.13V34.416C202.901 34.5602 202.882 34.7051 202.834 34.8416C202.787 34.978 202.711 35.1032 202.613 35.2092C202.515 35.3153 202.396 35.3998 202.263 35.4577C202.131 35.5155 201.988 35.5454 201.843 35.5454C201.698 35.5454 201.555 35.5155 201.423 35.4577C201.29 35.3998 201.171 35.3153 201.073 35.2092C200.975 35.1032 200.899 34.978 200.852 34.8416C200.804 34.7051 200.785 34.5602 200.796 34.416V32.13ZM201.486 34.464C201.486 34.776 201.624 34.896 201.84 34.896C202.056 34.896 202.2 34.776 202.2 34.464V32.064C202.2 31.752 202.062 31.632 201.84 31.632C201.618 31.632 201.486 31.752 201.486 32.064V34.464Z" fill="#263238"/>
<path d="M200.796 38.3999C200.785 38.2558 200.804 38.1109 200.852 37.9744C200.899 37.838 200.975 37.7128 201.073 37.6068C201.171 37.5007 201.29 37.4162 201.423 37.3583C201.555 37.3005 201.698 37.2706 201.843 37.2706C201.988 37.2706 202.131 37.3005 202.263 37.3583C202.396 37.4162 202.515 37.5007 202.613 37.6068C202.711 37.7128 202.787 37.838 202.834 37.9744C202.882 38.1109 202.901 38.2558 202.89 38.3999V40.6859C202.901 40.8301 202.882 40.975 202.834 41.1115C202.787 41.2479 202.711 41.3731 202.613 41.4791C202.515 41.5851 202.396 41.6697 202.263 41.7276C202.131 41.7854 201.988 41.8153 201.843 41.8153C201.698 41.8153 201.555 41.7854 201.423 41.7276C201.29 41.6697 201.171 41.5851 201.073 41.4791C200.975 41.3731 200.899 41.2479 200.852 41.1115C200.804 40.975 200.785 40.8301 200.796 40.6859V38.3999ZM201.486 40.7279C201.486 41.0399 201.624 41.1599 201.84 41.1599C202.056 41.1599 202.2 41.0399 202.2 40.7279V38.3999C202.2 38.0879 202.062 37.9679 201.84 37.9679C201.618 37.9679 201.486 38.0879 201.486 38.3999V40.7279Z" fill="#263238"/>
<path d="M201.276 44.196C201.449 44.2175 201.624 44.1725 201.766 44.0701C201.907 43.9676 202.004 43.8154 202.038 43.644H202.5V48.042H201.81V44.688H201.276V44.196Z" fill="#263238"/>
<path d="M201.276 56.766C201.449 56.7875 201.624 56.7425 201.766 56.64C201.907 56.5376 202.004 56.3853 202.038 56.214H202.5V60.6H201.81V57.258H201.276V56.766Z" fill="#263238"/>
<path d="M201.276 63.048C201.449 63.0695 201.624 63.0244 201.766 62.922C201.907 62.8196 202.004 62.6673 202.038 62.496H202.5V66.894H201.81V63.54H201.276V63.048Z" fill="#263238"/>
<path d="M201.276 69.3359C201.449 69.3574 201.624 69.3124 201.766 69.21C201.907 69.1075 202.004 68.9553 202.038 68.7839H202.5V73.1999H201.81V69.8459H201.276V69.3359Z" fill="#263238"/>
<path d="M32.4 89.142C32.4 88.8636 32.5106 88.5965 32.7075 88.3996C32.9044 88.2027 33.1715 88.092 33.45 88.092C33.7285 88.092 33.9955 88.2027 34.1925 88.3996C34.3894 88.5965 34.5 88.8636 34.5 89.142V91.434C34.5 91.7125 34.3894 91.9796 34.1925 92.1765C33.9955 92.3734 33.7285 92.484 33.45 92.484C33.1715 92.484 32.9044 92.3734 32.7075 92.1765C32.5106 91.9796 32.4 91.7125 32.4 91.434V89.142ZM33.09 91.476C33.09 91.788 33.228 91.908 33.45 91.908C33.672 91.908 33.804 91.788 33.804 91.476V89.076C33.804 88.764 33.666 88.644 33.45 88.644C33.234 88.644 33.09 88.764 33.09 89.076V91.476Z" fill="#263238"/>
<path d="M32.4 95.43C32.4 95.1515 32.5106 94.8845 32.7075 94.6875C32.9044 94.4906 33.1715 94.38 33.45 94.38C33.7285 94.38 33.9955 94.4906 34.1925 94.6875C34.3894 94.8845 34.5 95.1515 34.5 95.43V97.716C34.5 97.9945 34.3894 98.2616 34.1925 98.4585C33.9955 98.6554 33.7285 98.766 33.45 98.766C33.1715 98.766 32.9044 98.6554 32.7075 98.4585C32.5106 98.2616 32.4 97.9945 32.4 97.716V95.43ZM33.09 97.758C33.09 98.076 33.228 98.19 33.45 98.19C33.672 98.19 33.804 98.076 33.804 97.758V95.358C33.804 95.046 33.666 94.926 33.45 94.926C33.234 94.926 33.09 95.046 33.09 95.358V97.758Z" fill="#263238"/>
<path d="M32.88 101.208C33.0526 101.229 33.2268 101.184 33.3672 101.082C33.5077 100.979 33.6038 100.827 33.636 100.656H34.104V105.054H33.414V101.7H32.88V101.208Z" fill="#263238"/>
<path d="M32.4 108C32.4 107.721 32.5106 107.454 32.7075 107.257C32.9044 107.061 33.1715 106.95 33.45 106.95C33.7285 106.95 33.9955 107.061 34.1925 107.257C34.3894 107.454 34.5 107.721 34.5 108V110.292C34.5 110.57 34.3894 110.837 34.1925 111.034C33.9955 111.231 33.7285 111.342 33.45 111.342C33.1715 111.342 32.9044 111.231 32.7075 111.034C32.5106 110.837 32.4 110.57 32.4 110.292V108ZM33.09 110.334C33.09 110.646 33.228 110.766 33.45 110.766C33.672 110.766 33.804 110.646 33.804 110.334V107.934C33.804 107.622 33.666 107.502 33.45 107.502C33.234 107.502 33.09 107.622 33.09 107.934V110.334Z" fill="#263238"/>
<path d="M32.88 113.778C33.0526 113.799 33.2268 113.754 33.3672 113.652C33.5077 113.549 33.6038 113.397 33.636 113.226H34.104V117.6H33.414V114.246H32.88V113.778Z" fill="#263238"/>
<path d="M32.4 120.564C32.4 120.286 32.5106 120.018 32.7075 119.822C32.9044 119.625 33.1715 119.514 33.45 119.514C33.7285 119.514 33.9955 119.625 34.1925 119.822C34.3894 120.018 34.5 120.286 34.5 120.564V122.85C34.5 123.129 34.3894 123.396 34.1925 123.593C33.9955 123.789 33.7285 123.9 33.45 123.9C33.1715 123.9 32.9044 123.789 32.7075 123.593C32.5106 123.396 32.4 123.129 32.4 122.85V120.564ZM33.09 122.898C33.09 123.21 33.228 123.33 33.45 123.33C33.672 123.33 33.804 123.21 33.804 122.898V120.498C33.804 120.18 33.666 120.066 33.45 120.066C33.234 120.066 33.09 120.18 33.09 120.498V122.898Z" fill="#263238"/>
<path d="M32.88 126.348C33.0526 126.369 33.2268 126.324 33.3672 126.222C33.5077 126.119 33.6038 125.967 33.636 125.796H34.104V130.2H33.414V126.846H32.88V126.348Z" fill="#263238"/>
<path d="M32.4 133.134C32.4 132.856 32.5106 132.588 32.7075 132.392C32.9044 132.195 33.1715 132.084 33.45 132.084C33.7285 132.084 33.9955 132.195 34.1925 132.392C34.3894 132.588 34.5 132.856 34.5 133.134V135.42C34.5 135.698 34.3894 135.966 34.1925 136.162C33.9955 136.359 33.7285 136.47 33.45 136.47C33.1715 136.47 32.9044 136.359 32.7075 136.162C32.5106 135.966 32.4 135.698 32.4 135.42V133.134ZM33.09 135.462C33.09 135.78 33.228 135.894 33.45 135.894C33.672 135.894 33.804 135.78 33.804 135.462V133.062C33.804 132.75 33.666 132.63 33.45 132.63C33.234 132.63 33.09 132.75 33.09 133.062V135.462Z" fill="#263238"/>
<path d="M32.4 139.416C32.4 139.137 32.5106 138.87 32.7075 138.674C32.9044 138.477 33.1715 138.366 33.45 138.366C33.7285 138.366 33.9955 138.477 34.1925 138.674C34.3894 138.87 34.5 139.137 34.5 139.416V141.702C34.5 141.98 34.3894 142.248 34.1925 142.444C33.9955 142.641 33.7285 142.752 33.45 142.752C33.1715 142.752 32.9044 142.641 32.7075 142.444C32.5106 142.248 32.4 141.98 32.4 141.702V139.416ZM33.09 141.75C33.09 142.062 33.228 142.182 33.45 142.182C33.672 142.182 33.804 142.062 33.804 141.75V139.35C33.804 139.038 33.666 138.918 33.45 138.918C33.234 138.918 33.09 139.038 33.09 139.35V141.75Z" fill="#263238"/>
<path d="M32.4 145.704C32.4 145.426 32.5106 145.159 32.7075 144.962C32.9044 144.765 33.1715 144.654 33.45 144.654C33.7285 144.654 33.9955 144.765 34.1925 144.962C34.3894 145.159 34.5 145.426 34.5 145.704V147.99C34.5 148.269 34.3894 148.536 34.1925 148.733C33.9955 148.929 33.7285 149.04 33.45 149.04C33.1715 149.04 32.9044 148.929 32.7075 148.733C32.5106 148.536 32.4 148.269 32.4 147.99V145.704ZM33.09 148.032C33.09 148.344 33.228 148.464 33.45 148.464C33.672 148.464 33.804 148.344 33.804 148.032V145.632C33.804 145.32 33.666 145.2 33.45 145.2C33.234 145.2 33.09 145.32 33.09 145.632V148.032Z" fill="#263238"/>
<path d="M32.88 157.764C33.0528 157.787 33.2278 157.742 33.3686 157.639C33.5093 157.537 33.6051 157.384 33.636 157.212H34.104V161.61H33.414V158.256H32.88V157.764Z" fill="#263238"/>
<path d="M36.6 113.778C36.7733 113.799 36.9483 113.754 37.0897 113.652C37.2311 113.55 37.3284 113.397 37.362 113.226H37.824V117.6H37.146V114.246H36.6V113.778Z" fill="#263238"/>
<path d="M36.6 120.06C36.7733 120.081 36.9483 120.036 37.0897 119.934C37.2311 119.832 37.3284 119.679 37.362 119.508H37.824V123.906H37.146V120.552H36.6V120.06Z" fill="#263238"/>
<path d="M36.132 126.846C36.1211 126.702 36.14 126.557 36.1877 126.42C36.2354 126.284 36.3107 126.159 36.409 126.053C36.5073 125.947 36.6264 125.862 36.7589 125.804C36.8914 125.747 37.0344 125.717 37.179 125.717C37.3236 125.717 37.4666 125.747 37.5991 125.804C37.7316 125.862 37.8507 125.947 37.949 126.053C38.0473 126.159 38.1226 126.284 38.1703 126.42C38.218 126.557 38.2369 126.702 38.226 126.846V129.138C38.2369 129.282 38.218 129.427 38.1703 129.564C38.1226 129.7 38.0473 129.825 37.949 129.931C37.8507 130.037 37.7316 130.122 37.5991 130.18C37.4666 130.237 37.3236 130.267 37.179 130.267C37.0344 130.267 36.8914 130.237 36.7589 130.18C36.6264 130.122 36.5073 130.037 36.409 129.931C36.3107 129.825 36.2354 129.7 36.1877 129.564C36.14 129.427 36.1211 129.282 36.132 129.138V126.846ZM36.822 129.18C36.822 129.492 36.96 129.612 37.176 129.612C37.392 129.612 37.536 129.492 37.536 129.18V126.78C37.536 126.468 37.398 126.348 37.176 126.348C36.954 126.348 36.822 126.468 36.822 126.78V129.18Z" fill="#263238"/>
<path d="M36.132 133.134C36.1211 132.99 36.14 132.845 36.1877 132.708C36.2354 132.572 36.3107 132.447 36.409 132.341C36.5073 132.235 36.6264 132.15 36.7589 132.092C36.8914 132.034 37.0344 132.005 37.179 132.005C37.3236 132.005 37.4666 132.034 37.5991 132.092C37.7316 132.15 37.8507 132.235 37.949 132.341C38.0473 132.447 38.1226 132.572 38.1703 132.708C38.218 132.845 38.2369 132.99 38.226 133.134V135.42C38.2369 135.564 38.218 135.709 38.1703 135.845C38.1226 135.982 38.0473 136.107 37.949 136.213C37.8507 136.319 37.7316 136.404 37.5991 136.462C37.4666 136.519 37.3236 136.549 37.179 136.549C37.0344 136.549 36.8914 136.519 36.7589 136.462C36.6264 136.404 36.5073 136.319 36.409 136.213C36.3107 136.107 36.2354 135.982 36.1877 135.845C36.14 135.709 36.1211 135.564 36.132 135.42V133.134ZM36.822 135.462C36.822 135.78 36.96 135.894 37.176 135.894C37.392 135.894 37.536 135.78 37.536 135.462V133.062C37.536 132.75 37.398 132.63 37.176 132.63C36.954 132.63 36.822 132.75 36.822 133.062V135.462Z" fill="#263238"/>
<path d="M36.6 138.912C36.7735 138.935 36.9492 138.891 37.091 138.788C37.2327 138.685 37.3297 138.532 37.362 138.36H37.824V142.758H37.146V139.404H36.6V138.912Z" fill="#263238"/>
<path d="M36.6 151.482C36.7733 151.503 36.9483 151.458 37.0897 151.356C37.2311 151.254 37.3284 151.101 37.362 150.93H37.824V155.328H37.146V151.974H36.6V151.482Z" fill="#263238"/>
<path d="M28.656 108C28.656 107.721 28.7666 107.454 28.9635 107.257C29.1604 107.061 29.4275 106.95 29.706 106.95C29.9845 106.95 30.2515 107.061 30.4484 107.257C30.6454 107.454 30.756 107.721 30.756 108V110.292C30.756 110.57 30.6454 110.837 30.4484 111.034C30.2515 111.231 29.9845 111.342 29.706 111.342C29.4275 111.342 29.1604 111.231 28.9635 111.034C28.7666 110.837 28.656 110.57 28.656 110.292V108ZM29.352 110.334C29.352 110.646 29.49 110.766 29.706 110.766C29.922 110.766 30.066 110.646 30.066 110.334V107.934C30.066 107.622 29.928 107.502 29.706 107.502C29.484 107.502 29.352 107.622 29.352 107.934V110.334Z" fill="#263238"/>
<path d="M29.142 113.778C29.3153 113.799 29.4903 113.754 29.6317 113.652C29.7731 113.55 29.8704 113.397 29.904 113.226H30.366V117.6H29.676V114.246H29.142V113.778Z" fill="#263238"/>
<path d="M29.142 120.06C29.3153 120.081 29.4903 120.036 29.6317 119.934C29.7731 119.832 29.8704 119.679 29.904 119.508H30.366V123.906H29.676V120.552H29.142V120.06Z" fill="#263238"/>
<path d="M28.656 126.846C28.656 126.568 28.7666 126.3 28.9635 126.104C29.1604 125.907 29.4275 125.796 29.706 125.796C29.9845 125.796 30.2515 125.907 30.4484 126.104C30.6454 126.3 30.756 126.568 30.756 126.846V129.138C30.756 129.416 30.6454 129.684 30.4484 129.88C30.2515 130.077 29.9845 130.188 29.706 130.188C29.4275 130.188 29.1604 130.077 28.9635 129.88C28.7666 129.684 28.656 129.416 28.656 129.138V126.846ZM29.352 129.18C29.352 129.492 29.49 129.612 29.706 129.612C29.922 129.612 30.066 129.492 30.066 129.18V126.78C30.066 126.468 29.928 126.348 29.706 126.348C29.484 126.348 29.352 126.468 29.352 126.78V129.18Z" fill="#263238"/>
<path d="M29.142 132.63C29.3153 132.651 29.4903 132.606 29.6317 132.504C29.7731 132.402 29.8704 132.249 29.904 132.078H30.366V136.476H29.676V133.122H29.142V132.63Z" fill="#263238"/>
<path d="M28.656 139.416C28.656 139.137 28.7666 138.87 28.9635 138.674C29.1604 138.477 29.4275 138.366 29.706 138.366C29.9845 138.366 30.2515 138.477 30.4484 138.674C30.6454 138.87 30.756 139.137 30.756 139.416V141.702C30.756 141.98 30.6454 142.248 30.4484 142.444C30.2515 142.641 29.9845 142.752 29.706 142.752C29.4275 142.752 29.1604 142.641 28.9635 142.444C28.7666 142.248 28.656 141.98 28.656 141.702V139.416ZM29.352 141.75C29.352 142.062 29.49 142.182 29.706 142.182C29.922 142.182 30.066 142.062 30.066 141.75V139.35C30.066 139.038 29.928 138.918 29.706 138.918C29.484 138.918 29.352 139.038 29.352 139.35V141.75Z" fill="#263238"/>
<path d="M24.924 95.43C24.9131 95.2858 24.932 95.141 24.9797 95.0045C25.0274 94.868 25.1027 94.7428 25.201 94.6368C25.2993 94.5308 25.4184 94.4462 25.5509 94.3884C25.6834 94.3305 25.8264 94.3007 25.971 94.3007C26.1156 94.3007 26.2586 94.3305 26.3911 94.3884C26.5236 94.4462 26.6427 94.5308 26.741 94.6368C26.8393 94.7428 26.9146 94.868 26.9623 95.0045C27.0099 95.141 27.0289 95.2858 27.018 95.43V97.716C27.0289 97.8601 27.0099 98.005 26.9623 98.1415C26.9146 98.278 26.8393 98.4031 26.741 98.5092C26.6427 98.6152 26.5236 98.6998 26.3911 98.7576C26.2586 98.8154 26.1156 98.8453 25.971 98.8453C25.8264 98.8453 25.6834 98.8154 25.5509 98.7576C25.4184 98.6998 25.2993 98.6152 25.201 98.5092C25.1027 98.4031 25.0274 98.278 24.9797 98.1415C24.932 98.005 24.9131 97.8601 24.924 97.716V95.43ZM25.614 97.758C25.614 98.076 25.752 98.19 25.968 98.19C26.184 98.19 26.328 98.076 26.328 97.758V95.358C26.328 95.04 26.19 94.92 25.968 94.92C25.746 94.92 25.614 95.04 25.614 95.358V97.758Z" fill="#263238"/>
<path d="M25.404 107.496C25.5773 107.517 25.7523 107.472 25.8937 107.37C26.0351 107.268 26.1324 107.115 26.166 106.944H26.628V111.336H25.938V108H25.404V107.496Z" fill="#263238"/>
<path d="M24.924 114.282C24.9131 114.138 24.932 113.993 24.9797 113.857C25.0274 113.72 25.1027 113.595 25.201 113.489C25.2993 113.383 25.4184 113.298 25.5509 113.24C25.6834 113.183 25.8264 113.153 25.971 113.153C26.1156 113.153 26.2586 113.183 26.3911 113.24C26.5236 113.298 26.6427 113.383 26.741 113.489C26.8393 113.595 26.9146 113.72 26.9623 113.857C27.0099 113.993 27.0289 114.138 27.018 114.282V116.568C27.0289 116.712 27.0099 116.857 26.9623 116.994C26.9146 117.13 26.8393 117.255 26.741 117.361C26.6427 117.467 26.5236 117.552 26.3911 117.61C26.2586 117.667 26.1156 117.697 25.971 117.697C25.8264 117.697 25.6834 117.667 25.5509 117.61C25.4184 117.552 25.2993 117.467 25.201 117.361C25.1027 117.255 25.0274 117.13 24.9797 116.994C24.932 116.857 24.9131 116.712 24.924 116.568V114.282ZM25.614 116.61C25.614 116.928 25.752 117.042 25.968 117.042C26.184 117.042 26.328 116.928 26.328 116.61V114.24C26.328 113.922 26.19 113.802 25.968 113.802C25.746 113.802 25.614 113.922 25.614 114.24V116.61Z" fill="#263238"/>
<path d="M24.924 126.852C24.9131 126.708 24.932 126.563 24.9797 126.426C25.0274 126.29 25.1027 126.165 25.201 126.059C25.2993 125.953 25.4184 125.868 25.5509 125.81C25.6834 125.753 25.8264 125.723 25.971 125.723C26.1156 125.723 26.2586 125.753 26.3911 125.81C26.5236 125.868 26.6427 125.953 26.741 126.059C26.8393 126.165 26.9146 126.29 26.9623 126.426C27.0099 126.563 27.0289 126.708 27.018 126.852V129.138C27.0289 129.282 27.0099 129.427 26.9623 129.563C26.9146 129.7 26.8393 129.825 26.741 129.931C26.6427 130.037 26.5236 130.122 26.3911 130.18C26.2586 130.237 26.1156 130.267 25.971 130.267C25.8264 130.267 25.6834 130.237 25.5509 130.18C25.4184 130.122 25.2993 130.037 25.201 129.931C25.1027 129.825 25.0274 129.7 24.9797 129.563C24.932 129.427 24.9131 129.282 24.924 129.138V126.852ZM25.614 129.18C25.614 129.492 25.752 129.612 25.968 129.612C26.184 129.612 26.328 129.492 26.328 129.18V126.78C26.328 126.468 26.19 126.348 25.968 126.348C25.746 126.348 25.614 126.468 25.614 126.78V129.18Z" fill="#263238"/>
<path d="M24.924 133.134C24.9131 132.99 24.932 132.845 24.9797 132.708C25.0274 132.572 25.1027 132.447 25.201 132.341C25.2993 132.235 25.4184 132.15 25.5509 132.092C25.6834 132.034 25.8264 132.005 25.971 132.005C26.1156 132.005 26.2586 132.034 26.3911 132.092C26.5236 132.15 26.6427 132.235 26.741 132.341C26.8393 132.447 26.9146 132.572 26.9623 132.708C27.0099 132.845 27.0289 132.99 27.018 133.134V135.42C27.0289 135.564 27.0099 135.709 26.9623 135.845C26.9146 135.982 26.8393 136.107 26.741 136.213C26.6427 136.319 26.5236 136.404 26.3911 136.462C26.2586 136.519 26.1156 136.549 25.971 136.549C25.8264 136.549 25.6834 136.519 25.5509 136.462C25.4184 136.404 25.2993 136.319 25.201 136.213C25.1027 136.107 25.0274 135.982 24.9797 135.845C24.932 135.709 24.9131 135.564 24.924 135.42V133.134ZM25.614 135.462C25.614 135.78 25.752 135.9 25.968 135.9C26.184 135.9 26.328 135.78 26.328 135.462V133.062C26.328 132.744 26.19 132.624 25.968 132.624C25.746 132.624 25.614 132.744 25.614 133.062V135.462Z" fill="#263238"/>
<path d="M24.924 139.416C24.9131 139.272 24.932 139.127 24.9797 138.99C25.0274 138.854 25.1027 138.729 25.201 138.623C25.2993 138.517 25.4184 138.432 25.5509 138.374C25.6834 138.316 25.8264 138.287 25.971 138.287C26.1156 138.287 26.2586 138.316 26.3911 138.374C26.5236 138.432 26.6427 138.517 26.741 138.623C26.8393 138.729 26.9146 138.854 26.9623 138.99C27.0099 139.127 27.0289 139.272 27.018 139.416V141.702C27.0289 141.846 27.0099 141.991 26.9623 142.127C26.9146 142.264 26.8393 142.389 26.741 142.495C26.6427 142.601 26.5236 142.686 26.3911 142.744C26.2586 142.801 26.1156 142.831 25.971 142.831C25.8264 142.831 25.6834 142.801 25.5509 142.744C25.4184 142.686 25.2993 142.601 25.201 142.495C25.1027 142.389 25.0274 142.264 24.9797 142.127C24.932 141.991 24.9131 141.846 24.924 141.702V139.416ZM25.614 141.75C25.614 142.062 25.752 142.182 25.968 142.182C26.184 142.182 26.328 142.062 26.328 141.75V139.35C26.328 139.038 26.19 138.918 25.968 138.918C25.746 138.918 25.614 139.038 25.614 139.35V141.75Z" fill="#263238"/>
<path d="M25.404 157.8C25.5781 157.821 25.7539 157.775 25.8954 157.672C26.037 157.568 26.1337 157.414 26.166 157.242H26.628V161.64H25.938V158.286H25.404V157.8Z" fill="#263238"/>
<path d="M235.878 153.966C216.27 146.028 214.848 118.728 214.848 118.728H219.048V115.464C229.002 115.464 235.878 109.29 235.878 109.29C235.878 109.29 242.754 115.464 252.708 115.464V118.728H256.908C256.908 118.728 255.48 146.028 235.878 153.966Z" stroke="#263238" stroke-width="1.10721" stroke-linecap="round" stroke-linejoin="round"/>
<path d="M235.878 150.36C223.032 144.36 219.312 128.424 218.286 121.56H222.126V118.128C227.063 117.519 231.78 115.728 235.878 112.908C239.978 115.728 244.697 117.518 249.636 118.128V121.56H253.464C252.426 128.4 248.682 144.36 235.878 150.36Z" stroke="#263238" stroke-width="1.10721" stroke-linecap="round" stroke-linejoin="round"/>
<path d="M242.802 127.782H228.948C228.501 127.782 228.138 128.145 228.138 128.592V136.914C228.138 137.361 228.501 137.724 228.948 137.724H242.802C243.249 137.724 243.612 137.361 243.612 136.914V128.592C243.612 128.145 243.249 127.782 242.802 127.782Z" fill="#263238"/>
<path d="M236.154 119.4C235.401 119.363 234.649 119.48 233.943 119.743C233.237 120.005 232.591 120.409 232.045 120.928C231.5 121.447 231.065 122.072 230.768 122.765C230.47 123.457 230.317 124.203 230.316 124.956V125.556C230.316 125.607 230.326 125.658 230.346 125.705C230.365 125.753 230.394 125.796 230.43 125.832C230.466 125.868 230.509 125.897 230.557 125.916C230.604 125.936 230.655 125.946 230.706 125.946H232.11C232.161 125.946 232.212 125.936 232.259 125.916C232.307 125.897 232.35 125.868 232.386 125.832C232.422 125.796 232.451 125.753 232.47 125.705C232.49 125.658 232.5 125.607 232.5 125.556V125.094C232.489 124.224 232.807 123.383 233.39 122.738C233.973 122.092 234.778 121.691 235.644 121.614C236.105 121.584 236.567 121.648 237.002 121.803C237.437 121.959 237.836 122.202 238.173 122.517C238.51 122.833 238.78 123.214 238.964 123.638C239.148 124.061 239.243 124.518 239.244 124.98V125.58C239.244 125.683 239.285 125.783 239.358 125.856C239.431 125.929 239.531 125.97 239.634 125.97H241.038C241.141 125.97 241.241 125.929 241.314 125.856C241.387 125.783 241.428 125.683 241.428 125.58V125.16C241.455 123.707 240.922 122.299 239.941 121.227C238.959 120.155 237.604 119.501 236.154 119.4Z" fill="#263238"/>
<path d="M237.33 131.64C237.331 131.381 237.262 131.126 237.131 130.902C236.999 130.678 236.811 130.494 236.584 130.368C236.357 130.242 236.101 130.179 235.842 130.185C235.583 130.192 235.33 130.267 235.11 130.405C234.89 130.542 234.71 130.735 234.59 130.965C234.471 131.195 234.414 131.453 234.428 131.712C234.441 131.971 234.524 132.222 234.667 132.438C234.81 132.654 235.009 132.828 235.242 132.942L234.714 135.276H237.036L236.508 132.942C236.753 132.823 236.96 132.638 237.105 132.408C237.25 132.178 237.328 131.912 237.33 131.64Z" fill="white" stroke="#263238" stroke-width="1.10721" stroke-linecap="round" stroke-linejoin="round"/>
<path d="M173.928 28.8719H126.552C125.452 28.8719 124.56 29.7638 124.56 30.8639V57.54C124.56 58.6401 125.452 59.5319 126.552 59.5319H173.928C175.028 59.5319 175.92 58.6401 175.92 57.54V30.8639C175.92 29.7638 175.028 28.8719 173.928 28.8719Z" stroke="#263238" stroke-width="1.10721" stroke-linecap="round" stroke-linejoin="round"/>
<path d="M129.342 55.2479H144.204C144.585 55.2479 144.894 54.939 144.894 54.5579V33.8519C144.894 33.4708 144.585 33.1619 144.204 33.1619H129.342C128.961 33.1619 128.652 33.4708 128.652 33.8519V54.5579C128.652 54.939 128.961 55.2479 129.342 55.2479Z" stroke="#263238" stroke-width="1.10721" stroke-linecap="round" stroke-linejoin="round"/>
<path d="M136.8 55.242H129.384C129.19 55.242 129.004 55.1649 128.866 55.0276C128.729 54.8903 128.652 54.7041 128.652 54.51V49.41C128.652 49.41 132.798 49.23 133.494 48.348C134.19 47.466 133.422 46.086 133.422 46.086C133.17 45.774 133.11 43.56 133.11 43.56L132.858 43.494C132.612 43.434 132.258 41.598 132.258 40.908C132.257 40.7093 132.314 40.5145 132.42 40.3466C132.526 40.1786 132.678 40.0445 132.858 39.96C132.858 39.96 132.258 35.484 136.776 35.484C141.294 35.484 140.688 39.96 140.688 39.96C140.868 40.0445 141.02 40.1786 141.126 40.3466C141.232 40.5145 141.289 40.7093 141.288 40.908C141.288 41.598 140.964 43.434 140.688 43.494L140.436 43.56C140.436 43.56 140.376 45.774 140.124 46.086C140.124 46.086 139.35 47.466 140.052 48.348C140.754 49.23 144.894 49.41 144.894 49.41V54.51C144.895 54.6064 144.876 54.7019 144.84 54.7911C144.803 54.8802 144.749 54.9613 144.681 55.0294C144.613 55.0975 144.532 55.1514 144.443 55.1879C144.354 55.2244 144.258 55.2428 144.162 55.242H136.8Z" fill="#263238"/>
<path d="M170.772 55.3499H160.68C160.479 55.35 160.287 55.2715 160.143 55.1314C160 54.9912 159.917 54.8005 159.912 54.5999C159.912 54.3962 159.993 54.2009 160.137 54.0568C160.281 53.9128 160.476 53.8319 160.68 53.8319H170.772C170.976 53.8319 171.171 53.9128 171.315 54.0568C171.459 54.2009 171.54 54.3962 171.54 54.5999C171.535 54.8005 171.452 54.9912 171.309 55.1314C171.165 55.2715 170.973 55.35 170.772 55.3499Z" fill="#263238"/>
<path d="M170.772 34.59H149.85C149.646 34.59 149.451 34.509 149.307 34.365C149.163 34.221 149.082 34.0256 149.082 33.822C149.082 33.6183 149.163 33.4229 149.307 33.2789C149.451 33.1349 149.646 33.054 149.85 33.054H170.772C170.976 33.054 171.171 33.1349 171.315 33.2789C171.459 33.4229 171.54 33.6183 171.54 33.822C171.54 34.0256 171.459 34.221 171.315 34.365C171.171 34.509 170.976 34.59 170.772 34.59Z" fill="#263238"/>
<path d="M161.85 39.7799H149.85C149.748 39.7799 149.647 39.7597 149.553 39.7203C149.459 39.681 149.374 39.6234 149.303 39.5508C149.231 39.4782 149.175 39.3921 149.137 39.2975C149.099 39.203 149.08 39.1018 149.082 38.9999C149.082 38.7962 149.163 38.6009 149.307 38.4569C149.451 38.3128 149.646 38.2319 149.85 38.2319H161.85C162.051 38.2366 162.241 38.3196 162.381 38.4631C162.522 38.6067 162.6 38.7993 162.6 38.9999C162.603 39.2026 162.526 39.3983 162.386 39.5444C162.245 39.6906 162.053 39.7752 161.85 39.7799Z" fill="#263238"/>
<path d="M158.028 45H149.85C149.646 45 149.451 44.9191 149.307 44.775C149.163 44.631 149.082 44.4357 149.082 44.232C149.082 44.0283 149.163 43.833 149.307 43.6889C149.451 43.5449 149.646 43.464 149.85 43.464H158.028C158.232 43.464 158.427 43.5449 158.571 43.6889C158.715 43.833 158.796 44.0283 158.796 44.232C158.796 44.4357 158.715 44.631 158.571 44.775C158.427 44.9191 158.232 45 158.028 45Z" fill="#263238"/>
<path d="M161.85 50.16H149.85C149.646 50.16 149.451 50.0791 149.307 49.935C149.163 49.791 149.082 49.5957 149.082 49.392C149.079 49.2891 149.096 49.1867 149.133 49.0907C149.171 48.9947 149.227 48.9072 149.298 48.8333C149.37 48.7595 149.456 48.7007 149.55 48.6606C149.645 48.6206 149.747 48.5999 149.85 48.6H161.85C161.951 48.6023 162.051 48.6247 162.144 48.6658C162.237 48.707 162.32 48.7661 162.39 48.8397C162.46 48.9133 162.514 49.0001 162.55 49.0948C162.586 49.1896 162.603 49.2906 162.6 49.392C162.6 49.5926 162.522 49.7852 162.381 49.9288C162.241 50.0723 162.051 50.1553 161.85 50.16Z" fill="#263238"/>
<path d="M76.296 110.508V140.028L68.352 147.972H47.256V110.508H76.296Z" stroke="#263238" stroke-width="1.10721" stroke-linecap="round" stroke-linejoin="round"/>
<path d="M76.296 140.028L68.352 147.972V140.028H76.296Z" fill="#263238" stroke="#263238" stroke-width="1.10721" stroke-linecap="round" stroke-linejoin="round"/>
<path d="M54.33 115.284H71.856" stroke="#263238" stroke-width="1.10721" stroke-linecap="round" stroke-linejoin="round"/>
<path d="M51.69 118.584H71.856" stroke="#263238" stroke-width="1.10721" stroke-linecap="round" stroke-linejoin="round"/>
<path d="M51.69 121.884H71.856" stroke="#263238" stroke-width="1.10721" stroke-linecap="round" stroke-linejoin="round"/>
<path d="M51.69 125.184H71.856" stroke="#263238" stroke-width="1.10721" stroke-linecap="round" stroke-linejoin="round"/>
<path d="M51.69 128.484H71.856" stroke="#263238" stroke-width="1.10721" stroke-linecap="round" stroke-linejoin="round"/>
<path d="M51.69 131.784H71.856" stroke="#263238" stroke-width="1.10721" stroke-linecap="round" stroke-linejoin="round"/>
<path d="M51.69 135.078H71.856" stroke="#263238" stroke-width="1.10721" stroke-linecap="round" stroke-linejoin="round"/>
<path d="M51.69 138.378H69.222" stroke="#263238" stroke-width="1.10721" stroke-linecap="round" stroke-linejoin="round"/>
<path d="M77.676 115.284H81.066V144.804L73.128 152.748H52.032V149.256" stroke="#263238" stroke-width="1.10721" stroke-linecap="round" stroke-linejoin="round"/>
<path d="M81.066 144.804L73.128 152.748V144.804H81.066Z" fill="#263238" stroke="#263238" stroke-width="1.10721" stroke-linecap="round" stroke-linejoin="round"/>
<path d="M185.388 89.9821H115.092C113.687 89.9821 112.548 91.121 112.548 92.5261V170.73C112.548 172.135 113.687 173.274 115.092 173.274H185.388C186.793 173.274 187.932 172.135 187.932 170.73V92.5261C187.932 91.121 186.793 89.9821 185.388 89.9821Z" fill="#3451FF" stroke="#263238" stroke-width="1.10721" stroke-linecap="round" stroke-linejoin="round"/>
<g opacity="0.5">
<path d="M186.414 117.75H114.066" stroke="white" stroke-width="1.10721" stroke-linecap="round" stroke-linejoin="round"/>
<path d="M186.414 127.002H114.066" stroke="white" stroke-width="1.10721" stroke-linecap="round" stroke-linejoin="round"/>
<path d="M186.414 136.254H114.066" stroke="white" stroke-width="1.10721" stroke-linecap="round" stroke-linejoin="round"/>
<path d="M186.414 145.506H114.066" stroke="white" stroke-width="1.10721" stroke-linecap="round" stroke-linejoin="round"/>
<path d="M186.414 154.758H114.066" stroke="white" stroke-width="1.10721" stroke-linecap="round" stroke-linejoin="round"/>
<path d="M186.414 164.016H114.066" stroke="white" stroke-width="1.10721" stroke-linecap="round" stroke-linejoin="round"/>
<path d="M186.414 108.492H114.066" stroke="white" stroke-width="1.10721" stroke-linecap="round" stroke-linejoin="round"/>
<path d="M186.414 99.2401H114.066" stroke="white" stroke-width="1.10721" stroke-linecap="round" stroke-linejoin="round"/>
<path d="M169.128 171.786V91.4641" stroke="white" stroke-width="1.10721" stroke-linecap="round" stroke-linejoin="round"/>
<path d="M159.684 171.786V91.4641" stroke="white" stroke-width="1.10721" stroke-linecap="round" stroke-linejoin="round"/>
<path d="M150.24 171.786V91.4641" stroke="white" stroke-width="1.10721" stroke-linecap="round" stroke-linejoin="round"/>
<path d="M140.796 171.786V91.4641" stroke="white" stroke-width="1.10721" stroke-linecap="round" stroke-linejoin="round"/>
<path d="M131.352 171.786V91.4641" stroke="white" stroke-width="1.10721" stroke-linecap="round" stroke-linejoin="round"/>
<path d="M121.914 171.786V91.4641" stroke="white" stroke-width="1.10721" stroke-linecap="round" stroke-linejoin="round"/>
<path d="M178.572 171.786V91.4641" stroke="white" stroke-width="1.10721" stroke-linecap="round" stroke-linejoin="round"/>
</g>
<path d="M147.6 157.002C148.408 152.827 149.512 148.714 150.906 144.696C151.188 143.886 151.506 143.07 151.854 142.2C152.676 140.1 154.362 135.81 153.726 134.532C153.663 134.396 153.564 134.279 153.441 134.194C153.317 134.109 153.174 134.058 153.024 134.046C152.992 134.045 152.96 134.05 152.93 134.061C152.9 134.072 152.873 134.09 152.85 134.112C150.978 135.642 149.772 139.884 148.896 142.98L148.602 144.024C147.44 148.187 146.617 152.437 146.142 156.732" stroke="#263238" stroke-width="1.10721" stroke-linecap="round" stroke-linejoin="round"/>
<path d="M150.378 157.2C151.154 153.27 152.202 149.398 153.516 145.614C153.78 144.84 154.116 144.03 154.434 143.178C155.748 139.836 157.38 135.696 156.204 133.326C155.912 132.735 155.463 132.236 154.907 131.882C154.35 131.529 153.707 131.335 153.048 131.322C152.352 131.315 151.676 131.556 151.14 132C148.602 134.07 147.318 138.6 146.286 142.236L145.992 143.274C144.83 147.401 144.002 151.615 143.514 155.874" stroke="#263238" stroke-width="1.10721" stroke-linecap="round" stroke-linejoin="round"/>
<path d="M153.222 156.93C153.954 153.396 154.914 149.912 156.096 146.502C157.524 142.428 160.74 136.302 158.652 132.102C156.942 128.664 152.466 127.386 149.412 129.882C145.92 132.726 144.534 138.432 143.358 142.518C142.248 146.452 141.432 150.463 140.916 154.518" stroke="#263238" stroke-width="1.10721" stroke-linecap="round" stroke-linejoin="round"/>
<path d="M156.21 156.102C156.863 153.158 157.688 150.255 158.682 147.408C158.916 146.73 159.216 145.974 159.534 145.164C161.238 140.826 163.362 135.42 161.1 130.872C160.353 129.371 159.206 128.106 157.785 127.217C156.364 126.327 154.724 125.848 153.048 125.832C151.092 125.826 149.195 126.503 147.684 127.746C143.808 130.908 142.284 136.362 141.018 140.736L140.73 141.75C139.719 145.312 138.951 148.938 138.432 152.604" stroke="#263238" stroke-width="1.10721" stroke-linecap="round" stroke-linejoin="round"/>
<path d="M159.402 154.524C159.96 152.328 160.572 150.294 161.262 148.314C161.49 147.672 161.772 146.946 162.072 146.184C163.872 141.576 166.35 135.288 163.548 129.66C162.575 127.702 161.079 126.053 159.226 124.894C157.372 123.735 155.234 123.113 153.048 123.096C150.461 123.087 147.952 123.983 145.956 125.628C141.408 129.336 139.734 135.228 138.384 139.992L138.096 141C137.25 143.974 136.571 146.992 136.062 150.042" stroke="#263238" stroke-width="1.10721" stroke-linecap="round" stroke-linejoin="round"/>
<path d="M162.696 151.854C163.296 147.462 166.836 142.254 167.184 136.164C167.502 130.584 165.666 127.008 164.364 125.214C164.055 124.772 163.858 124.261 163.791 123.726C163.724 123.19 163.789 122.647 163.98 122.142C164.85 119.585 164.821 116.808 163.896 114.27" stroke="#263238" stroke-width="1.10721" stroke-linecap="round" stroke-linejoin="round"/>
<path d="M154.38 106.068C159 108.96 162 113.514 162.234 119.4C162.312 121.512 160.596 122.238 158.448 121.584C153.954 120.216 143.244 116.712 136.716 135.066C135.465 138.874 134.542 142.783 133.956 146.748" stroke="#263238" stroke-width="1.10721" stroke-linecap="round" stroke-linejoin="round"/>
<path d="M145.2 106.368C148.083 106.329 150.932 106.997 153.498 108.312C157.884 110.67 160.644 116.214 159.234 117.624C157.668 119.19 154.758 115.41 145.86 119.058C141.582 120.81 138.546 124.38 136.482 128.436C135.551 130.289 134.765 132.21 134.13 134.184C133.303 136.723 132.621 139.307 132.09 141.924" stroke="#263238" stroke-width="1.10721" stroke-linecap="round" stroke-linejoin="round"/>
<path d="M140.142 109.752C141.709 109.339 143.322 109.123 144.942 109.11C152.796 108.93 155.742 113.118 154.878 114.18C154.152 115.074 152.538 114.57 150.324 114.84C143.934 115.626 138.882 119.262 135.48 124.638C133.802 127.36 132.464 130.278 131.496 133.326C131.316 133.872 131.142 134.424 130.974 134.976" stroke="#263238" stroke-width="1.10721" stroke-linecap="round" stroke-linejoin="round"/>
<path d="M136.44 114.27C139.058 112.156 142.354 111.064 145.716 111.198C146.712 111.198 149.172 111.522 149.502 112.464C149.94 113.7 145.944 112.02 140.154 115.878C132.732 120.828 131.832 125.52 131.832 125.52" stroke="#263238" stroke-width="1.10721" stroke-linecap="round" stroke-linejoin="round"/>
<path d="M165.846 148.53C165.846 148.53 169.872 139.836 169.446 133.116C169.182 128.79 167.046 126.078 166.71 124.152C166.374 122.226 167.31 121.752 167.058 119.988" stroke="#263238" stroke-width="1.10721" stroke-linecap="round" stroke-linejoin="round"/>
<path d="M117.624 107.604V95.328H129.9" stroke="#263238" stroke-width="1.10721" stroke-linecap="round" stroke-linejoin="round"/>
<path d="M129.9 167.928H117.624V155.652" stroke="#263238" stroke-width="1.10721" stroke-linecap="round" stroke-linejoin="round"/>
<path d="M182.862 107.604V95.328H170.586" stroke="#263238" stroke-width="1.10721" stroke-linecap="round" stroke-linejoin="round"/>
<path d="M170.586 167.928H182.862V155.652" stroke="#263238" stroke-width="1.10721" stroke-linecap="round" stroke-linejoin="round"/>
<path d="M235.008 280.8C231.804 276 228.444 270.936 225.684 266.742C222.156 261.396 219.612 257.49 219.612 257.49C218.262 251.172 216.348 248.694 214.422 243.504C212.496 238.314 214.086 233.688 214.884 227.262C215.682 220.836 214.422 214.848 213.75 210.786C213.078 206.724 213.864 202.89 213.75 201.99C213.636 201.09 209.802 196.35 208.35 192.852C207.692 191.292 206.773 189.855 205.632 188.604C204.372 187.161 202.794 186.03 201.024 185.298C200.286 185.008 199.517 184.806 198.732 184.698C196.932 184.44 195.48 184.728 194.028 184.728C191.994 184.728 187.71 181.236 184.89 180.678C184.367 180.574 183.838 180.5 183.306 180.456C180.972 180.234 178.506 180.456 175.776 180.672C173.046 180.888 169.872 178.302 167.316 177.492H167.274C166.708 177.295 166.105 177.229 165.51 177.3C162.804 177.75 157.71 178.2 157.71 178.2C157.71 178.2 157.26 174.708 157.032 169.968C156.99 169.146 156.93 168.354 156.858 167.568C156.594 164.64 156.174 162.024 156.108 159.63C156.108 159.03 156.108 158.388 156.108 157.788C156.33 154.416 156.228 151.788 156.108 146.604C156.108 146.43 156.108 146.244 156.108 146.058C156.108 144.444 156.108 142.902 156.012 141.51C155.826 138.132 155.076 135.636 151.716 135.12C148.782 134.67 146.754 136.134 145.512 140.988C144.27 145.842 143.37 145.5 143.034 152.604C142.698 159.708 141.108 164.232 141.336 167.838C141.564 171.444 140.772 178.44 140.772 178.44C139.422 177.762 138.18 178.326 137.946 178.89C137.712 179.454 136.716 184.986 135.918 188.934C135.222 192.444 132.024 195.69 130.848 198.108V198.162C130.722 198.423 130.618 198.694 130.536 198.972C129.858 201.456 130.2 206.772 130.2 213.528C130.2 220.284 128.508 227.292 130.2 231.798C130.56 232.716 131.065 233.571 131.694 234.33C134.292 237.54 139.062 240.33 143.4 245.448C148.8 251.88 152.652 256.62 156.258 258.768C158.844 260.292 159.978 261.54 160.458 263.184C160.646 263.897 160.745 264.631 160.752 265.368C160.8 266.808 161.58 267.906 162.9 269.73C164.959 272.52 166.767 275.488 168.3 278.598C169.746 281.496 171.96 286.998 174.3 293.094L235.008 280.8Z" fill="white"/>
<path opacity="0.4" d="M156.09 157.758C156.054 158.358 156.048 158.958 156.09 159.6C151.776 158.784 143.448 160.914 143.322 163.458C143.178 166.56 142.8 173.892 144.378 175.602C145.956 177.312 149.34 178.404 149.34 178.404C149.09 178.423 148.842 178.455 148.596 178.5H148.512C147.432 178.727 146.448 179.28 145.692 180.084C142.392 183.468 142.254 190.968 143.334 194.58C147.852 209.58 140.538 221.448 137.934 220.008C135.33 218.568 135.12 205.674 135.906 202.656C136.381 200.896 136.613 199.079 136.596 197.256C135.444 196.872 133.026 197.43 130.806 198.12V198.066C132.006 195.666 135.18 192.402 135.876 188.892C136.674 184.944 137.676 179.412 137.904 178.848C138.132 178.284 139.38 177.72 140.73 178.398C140.73 178.398 141.522 171.408 141.294 167.796C141.066 164.184 142.65 159.672 142.992 152.562C143.334 145.452 144.228 145.8 145.47 140.946C146.712 136.092 148.74 134.628 151.674 135.078C155.034 135.594 155.784 138.078 155.97 141.468C155.592 141.11 155.192 140.777 154.77 140.472C153.707 139.647 152.373 139.252 151.032 139.368C149.478 139.584 148.116 141.168 147.252 142.8C146.01 145.2 145.806 147.774 147.552 146.892C149.532 145.902 153.618 146.232 156.108 146.562C156.21 151.74 156.312 154.386 156.09 157.758Z" fill="#3451FF"/>
<path opacity="0.4" d="M160.698 265.35C160.691 264.613 160.592 263.879 160.404 263.166C159.93 261.522 158.796 260.274 156.204 258.75C152.604 256.602 148.758 251.862 143.346 245.43C139.008 240.288 134.238 237.522 131.64 234.312C134.91 236.082 139.35 235.17 140.748 237.972C142.782 242.016 152.334 248.172 152.334 248.172C161.658 257.4 160.698 265.35 160.698 265.35Z" fill="#3451FF"/>
<path opacity="0.4" d="M167.22 177.468C166.122 177.246 163.146 184.584 162.864 187.188C162.114 193.938 165.576 214.746 161.124 214.278C159.282 214.086 157.122 204.366 156.996 199.836C156.594 186.078 157.146 180.36 157.146 180.36C157.146 180.36 156.162 172.74 156.822 167.55C156.894 168.33 156.954 169.122 156.996 169.95C157.224 174.69 157.674 178.182 157.674 178.182C157.674 178.182 162.75 177.732 165.474 177.282C166.063 177.212 166.659 177.275 167.22 177.468Z" fill="#3451FF"/>
<path opacity="0.4" d="M183.252 180.45C180.852 180.666 178.452 183.012 176.478 183.45C174.078 183.96 169.668 178.554 167.262 177.498C169.818 178.308 173.022 180.852 175.722 180.678C178.422 180.504 180.918 180.228 183.252 180.45Z" fill="#3451FF"/>
<path opacity="0.4" d="M198.702 184.692C197.513 186.181 196.556 187.842 195.864 189.618C193.932 195.864 195.756 219.498 192.642 215.628C188.586 210.6 192.822 193.158 189.864 186.498C188.928 184.368 185.586 180.96 184.86 180.672C187.68 181.23 191.964 184.722 193.998 184.722C195.45 184.722 196.908 184.434 198.702 184.692Z" fill="#3451FF"/>
<path opacity="0.4" d="M225.672 266.736C222.51 263.172 219.198 259.776 217.032 258.504C211.758 255.396 210.246 252.18 209.79 246.822C209.334 241.464 210.696 241.578 212.274 236.28C213.852 230.982 210.918 224.43 211.146 225.846C211.374 227.262 208.884 237.066 207.054 237.552C205.224 238.038 204.606 231.426 204.378 226.038C204.15 220.65 207.084 195.558 206.262 190.638C206.15 189.924 205.928 189.231 205.602 188.586C206.743 189.837 207.662 191.274 208.32 192.834C209.79 196.332 213.624 201.072 213.72 201.972C213.816 202.872 213.042 206.712 213.72 210.768C214.398 214.824 215.64 220.806 214.854 227.244C214.068 233.682 212.454 238.296 214.392 243.486C216.33 248.676 218.232 251.154 219.582 257.472C219.6 257.484 222.144 261.39 225.672 266.736Z" fill="#3451FF"/>
<path opacity="0.4" d="M178.05 193.8C179.25 195.06 180.006 211.572 180.684 215.634C181.362 219.696 179.256 229.434 178.05 226.47C176.844 223.506 173.166 188.664 178.05 193.8Z" fill="#3451FF"/>
<path d="M173.4 290.76C171.408 285.612 169.566 281.106 168.306 278.58C166.773 275.47 164.965 272.502 162.906 269.712C161.586 267.912 160.806 266.79 160.758 265.35C160.751 264.613 160.652 263.879 160.464 263.166V263.166C159.99 261.522 158.856 260.274 156.264 258.75C152.664 256.602 148.818 251.862 143.406 245.43C139.068 240.288 134.298 237.522 131.7 234.312C131.071 233.553 130.566 232.698 130.206 231.78C128.514 227.274 130.206 220.272 130.206 213.51C130.206 206.748 129.864 201.438 130.542 198.954C130.624 198.676 130.728 198.405 130.854 198.144V198.09C132.054 195.69 135.228 192.426 135.924 188.916C136.722 184.968 137.724 179.436 137.952 178.872C138.18 178.308 139.428 177.744 140.778 178.422C140.778 178.422 141.57 171.432 141.342 167.82C141.114 164.208 142.698 159.696 143.04 152.586C143.382 145.476 144.276 145.824 145.518 140.97C146.76 136.116 148.788 134.652 151.722 135.102C155.082 135.618 155.832 138.102 156.018 141.492C156.096 142.884 156.084 144.426 156.114 146.04C156.114 146.226 156.114 146.412 156.114 146.586C156.222 151.752 156.324 154.386 156.114 157.77C156.078 158.37 156.072 158.97 156.114 159.612C156.18 162.012 156.6 164.622 156.864 167.55C156.936 168.33 156.996 169.122 157.038 169.95C157.266 174.69 157.716 178.182 157.716 178.182C157.716 178.182 162.792 177.732 165.516 177.282C166.111 177.211 166.714 177.277 167.28 177.474H167.322C169.878 178.284 173.082 180.828 175.782 180.654C178.482 180.48 180.978 180.216 183.312 180.438C183.844 180.482 184.373 180.556 184.896 180.66C187.716 181.218 192 184.71 194.034 184.71C195.486 184.71 196.944 184.422 198.738 184.68C199.523 184.788 200.292 184.99 201.03 185.28C202.8 186.012 204.378 187.143 205.638 188.586C206.779 189.837 207.698 191.274 208.356 192.834C209.826 196.332 213.66 201.072 213.756 201.972C213.852 202.872 213.078 206.712 213.756 210.768C214.434 214.824 215.676 220.806 214.89 227.244C214.104 233.682 212.49 238.296 214.428 243.486C216.366 248.676 218.268 251.154 219.618 257.472C219.618 257.472 222.162 261.378 225.69 266.724C228.138 270.438 231.054 274.854 233.922 279.144" stroke="#263238" stroke-width="1.10721" stroke-linecap="round" stroke-linejoin="round"/>
<path d="M140.748 178.404C140.748 183.372 140.298 189.534 139.548 192.096C138.798 194.658 139.302 203.226 137.922 206.832" stroke="#263238" stroke-width="1.10721" stroke-linecap="round" stroke-linejoin="round"/>
<path d="M143.31 182.316C143.31 182.316 146.766 178.404 149.31 178.404C151.854 178.404 154.428 180.06 157.11 180.36C159.792 180.66 162.636 178.662 165.234 178.182" stroke="#263238" stroke-width="1.10721" stroke-linecap="round" stroke-linejoin="round"/>
<path d="M145.26 164.214C145.26 164.214 149.928 162.51 152.334 164.214" stroke="#263238" stroke-width="1.10721" stroke-linecap="round" stroke-linejoin="round"/>
<path d="M148.8 162C148.8 162 150.228 161.61 152.334 162.63" stroke="#263238" stroke-width="1.10721" stroke-linecap="round" stroke-linejoin="round"/>
<path d="M147.552 150C149.133 149.648 150.771 149.648 152.352 150" stroke="#263238" stroke-width="1.10721" stroke-linecap="round" stroke-linejoin="round"/>
<path d="M130.8 198.066C130.8 198.066 133.8 196.608 135 196.458" stroke="#263238" stroke-width="1.10721" stroke-linecap="round" stroke-linejoin="round"/>
<path d="M138.726 202.686C138.726 202.686 136.926 205.482 136.59 206.832" stroke="#263238" stroke-width="1.10721" stroke-linecap="round" stroke-linejoin="round"/>
<path d="M147.552 137.796C147.552 137.796 146.832 143.538 147.552 144.048C148.272 144.558 153.834 145.044 154.29 144.048C154.746 143.052 154.824 138.846 154.824 138.846C154.824 138.846 151.494 133.128 147.552 137.796Z" stroke="#263238" stroke-width="1.10721" stroke-linecap="round" stroke-linejoin="round"/>
<path d="M135.9 188.898C135.9 188.898 140.514 186.57 140.622 183.24C140.73 179.91 139.374 179.946 137.658 179.928" stroke="#263238" stroke-width="1.10721" stroke-linecap="round" stroke-linejoin="round"/>
<path d="M207.834 196.458C207.984 201.72 206.484 217.062 206.328 219.318C206.172 221.574 206.328 227.34 206.328 227.34" stroke="#263238" stroke-width="1.10721" stroke-linecap="round" stroke-linejoin="round"/>
<path d="M174.894 184.41C179.856 191.61 174.894 188.898 178.05 223.38" stroke="#263238" stroke-width="1.10721" stroke-linecap="round" stroke-linejoin="round"/>
<path d="M219.6 257.484C219.6 257.484 215.202 254.064 214.446 252.084" stroke="#263238" stroke-width="1.10721" stroke-linecap="round" stroke-linejoin="round"/>
<path d="M158.196 255.864C159.516 258.054 160.35 262.854 160.398 263.148" stroke="#263238" stroke-width="1.10721" stroke-linecap="round" stroke-linejoin="round"/>
</svg>
