<svg width="300" height="300" viewBox="0 0 300 300" fill="none" xmlns="http://www.w3.org/2000/svg">
<path d="M300 229.44H0V229.59H300V229.44Z" fill="#EBEBEB"/>
<path d="M189.402 233.526H174.126V233.676H189.402V233.526Z" fill="#EBEBEB"/>
<path d="M273.264 236.772H237.066V236.922H273.264V236.772Z" fill="#EBEBEB"/>
<path d="M170.874 233.598H133.476V233.748H170.874V233.598Z" fill="#EBEBEB"/>
<path d="M109.224 238.086H101.4V238.236H109.224V238.086Z" fill="#EBEBEB"/>
<path d="M152.454 238.086H116.826V238.236H152.454V238.086Z" fill="#EBEBEB"/>
<path d="M54.546 235.554H31.476V235.704H54.546V235.554Z" fill="#EBEBEB"/>
<path d="M142.2 202.68H26.346C25.4384 202.678 24.5686 202.317 23.9274 201.674C23.2862 201.032 22.926 200.162 22.926 199.254V36.396C22.9339 35.4936 23.2975 34.6308 23.9379 33.9949C24.5782 33.3591 25.4436 33.0015 26.346 33H142.2C143.109 33 143.98 33.361 144.623 34.0035C145.265 34.646 145.626 35.5174 145.626 36.426V199.254C145.626 200.163 145.265 201.034 144.623 201.677C143.98 202.319 143.109 202.68 142.2 202.68ZM26.346 33.12C25.4782 33.1216 24.6465 33.4674 24.0334 34.0816C23.4204 34.6958 23.076 35.5282 23.076 36.396V199.254C23.076 200.122 23.4204 200.954 24.0334 201.568C24.6465 202.183 25.4782 202.528 26.346 202.53H142.2C143.068 202.528 143.901 202.183 144.515 201.569C145.129 200.955 145.474 200.122 145.476 199.254V36.396C145.474 35.5276 145.129 34.6953 144.515 34.0813C143.901 33.4672 143.068 33.1216 142.2 33.12H26.346Z" fill="#EBEBEB"/>
<path d="M271.986 202.68H156.126C155.218 202.678 154.347 202.317 153.705 201.675C153.063 201.033 152.702 200.162 152.7 199.254V36.396C152.709 35.4931 153.074 34.6302 153.716 33.9946C154.357 33.3589 155.223 33.0015 156.126 33H271.986C272.887 33.0031 273.751 33.3613 274.39 33.997C275.029 34.6327 275.392 35.4947 275.4 36.396V199.254C275.4 200.161 275.041 201.03 274.401 201.672C273.761 202.314 272.892 202.677 271.986 202.68ZM156.126 33.12C155.258 33.1216 154.425 33.4672 153.811 34.0813C153.197 34.6953 152.852 35.5276 152.85 36.396V199.254C152.852 200.122 153.197 200.955 153.811 201.569C154.425 202.183 155.258 202.528 156.126 202.53H271.986C272.854 202.528 273.687 202.183 274.301 201.569C274.915 200.955 275.26 200.122 275.262 199.254V36.396C275.26 35.5276 274.915 34.6953 274.301 34.0813C273.687 33.4672 272.854 33.1216 271.986 33.12H156.126Z" fill="#EBEBEB"/>
<path d="M117.576 177.402H77.736L75.318 149.502H115.158L117.576 177.402Z" fill="#E6E6E6"/>
<path d="M119.64 177.402H79.8L77.382 149.502H117.222L119.64 177.402Z" fill="#F0F0F0"/>
<path d="M85.248 171.408L83.916 155.49H111.774L113.106 171.408H85.248Z" fill="white"/>
<path d="M126.534 177.402H121.86V229.44H126.534V177.402Z" fill="#E6E6E6"/>
<path d="M128.01 177.402H124.764V229.44H128.01V177.402Z" fill="#F0F0F0"/>
<path d="M82.764 183.144H128.01V177.402H82.764V183.144Z" fill="#F0F0F0"/>
<path d="M84.36 183.144H79.686V229.44H84.36V183.144Z" fill="#E6E6E6"/>
<path d="M85.836 183.144H82.59V229.44H85.836V183.144Z" fill="#F0F0F0"/>
<path d="M51.09 183.144H46.416V229.44H51.09V183.144Z" fill="#E6E6E6"/>
<path d="M52.5659 183.144H49.3199V229.44H52.5659V183.144Z" fill="#F0F0F0"/>
<path d="M96.954 183.144H92.28V229.44H96.954V183.144Z" fill="#E6E6E6"/>
<path d="M98.424 183.144H95.178V229.44H98.424V183.144Z" fill="#F0F0F0"/>
<path d="M82.764 177.402H46.416V183.144H82.764V177.402Z" fill="#E6E6E6"/>
<path d="M218.304 47.646H77.7061V125.922H218.304V47.646Z" fill="#E0E0E0"/>
<path d="M226.026 47.646H78.4141V125.922H226.026V47.646Z" fill="#F5F5F5"/>
<path d="M223.614 123.51V50.058L80.826 50.058V123.51L223.614 123.51Z" fill="white"/>
<path d="M138.642 123.51L165.6 50.058H121.11L94.152 123.51H138.642Z" fill="#F5F5F5"/>
<path d="M181.464 123.51L208.422 50.058H174.858L147.9 123.51H181.464Z" fill="#F5F5F5"/>
<path d="M262.866 154.68H250.914V229.44H262.866V154.68Z" fill="#E6E6E6"/>
<path d="M259.722 229.44H262.866V223.686H256.428L259.722 229.44Z" fill="#FAFAFA"/>
<path d="M152.67 154.68H140.718V229.44H152.67V154.68Z" fill="#E6E6E6"/>
<path d="M262.866 154.68H149.928V227.886H262.866V154.68Z" fill="#FAFAFA"/>
<path d="M260.73 178.302H152.07V157.626H260.73V178.302ZM152.67 177.702H260.13V158.226H152.67V177.702Z" fill="#E6E6E6"/>
<path d="M241.602 167.664H173.304C170.136 167.664 167.082 165.108 164.904 160.644L164.7 160.218H250.2L249.996 160.644C247.8 165.108 244.8 167.664 241.602 167.664ZM165.684 160.8C167.712 164.778 170.484 167.046 173.304 167.046H241.602C244.434 167.046 247.194 164.778 249.222 160.8H165.684Z" fill="#E6E6E6"/>
<path d="M153.072 229.44H149.928V223.686H156.366L153.072 229.44Z" fill="#FAFAFA"/>
<path d="M260.73 201.6H152.07V180.948H260.73V201.6ZM152.67 201H260.13V181.548H152.67V201Z" fill="#E6E6E6"/>
<path d="M241.602 190.986H173.304C170.136 190.986 167.082 188.424 164.904 183.966L164.7 183.534H250.2L249.996 183.966C247.8 188.4 244.8 190.986 241.602 190.986ZM165.684 184.134C167.712 188.112 170.484 190.386 173.304 190.386H241.602C244.434 190.386 247.194 188.112 249.222 184.134H165.684Z" fill="#E6E6E6"/>
<path d="M260.73 224.94H152.07V204.264H260.73V224.94ZM152.67 224.34H260.13V204.864H152.67V224.34Z" fill="#E6E6E6"/>
<path d="M241.602 214.302H173.304C170.136 214.302 167.082 211.746 164.904 207.288L164.7 206.856H250.2L249.996 207.288C247.8 211.746 244.8 214.302 241.602 214.302ZM165.684 207.456C167.712 211.434 170.484 213.702 173.304 213.702H241.602C244.434 213.702 247.194 211.434 249.222 207.456H165.684Z" fill="#E6E6E6"/>
<path d="M72.588 164.568V166.02H71.664L70.896 177.402H59.592L58.83 166.02H57.9V164.568H72.588Z" fill="#E6E6E6"/>
<path d="M68.868 136.326C67.944 129.546 58.794 127.614 47.184 127.362C36.138 127.128 32.598 123.222 32.598 123.222C32.598 123.222 32.634 139.044 48.552 144.78C63.666 150.216 69.798 143.118 68.868 136.326Z" fill="#E6E6E6"/>
<path d="M63.2281 151.692C63.4201 148.908 67.8721 143.784 78.5821 146.112C86.3221 147.798 89.2021 143.784 89.2021 143.784C89.2021 143.784 88.4821 155.112 76.8421 158.514C65.7841 161.748 62.8861 156.6 63.2281 151.692Z" fill="#E6E6E6"/>
<path d="M65.67 168.84C65.7303 168.841 65.79 168.828 65.8449 168.803C65.8998 168.778 65.9487 168.742 65.988 168.696C66.762 167.778 66.126 165.582 65.25 162.54C64.122 158.64 62.718 153.78 63.906 150.258C64.5645 148.398 65.3339 146.578 66.21 144.81C67.89 141.258 69.342 138.21 68.13 134.982C68.1111 134.931 68.0822 134.884 68.045 134.843C68.0077 134.803 67.9629 134.771 67.9131 134.748C67.8633 134.726 67.8095 134.713 67.7548 134.711C67.7001 134.71 67.6456 134.719 67.5945 134.738C67.5433 134.757 67.4965 134.787 67.4568 134.824C67.4171 134.862 67.3852 134.907 67.363 134.957C67.3408 135.007 67.3288 135.061 67.3276 135.116C67.3264 135.171 67.336 135.225 67.356 135.276C68.442 138.15 67.128 140.934 65.46 144.462C64.5727 146.259 63.7914 148.106 63.12 149.994C61.854 153.762 63.294 158.76 64.452 162.768C65.136 165.168 65.844 167.568 65.358 168.168C65.3194 168.209 65.2899 168.258 65.2713 168.312C65.2527 168.365 65.2454 168.422 65.2499 168.479C65.2544 168.535 65.2706 168.59 65.2975 168.64C65.3244 168.69 65.3613 168.733 65.406 168.768C65.4826 168.823 65.5762 168.848 65.67 168.84Z" fill="#E6E6E6"/>
<path d="M150 256.536C214.249 256.536 266.334 253.495 266.334 249.744C266.334 245.993 214.249 242.952 150 242.952C85.7505 242.952 33.666 245.993 33.666 249.744C33.666 253.495 85.7505 256.536 150 256.536Z" fill="#F5F5F5"/>
<path d="M149.976 216.63H64.776L60.114 79.608H145.314L149.976 216.63Z" fill="#3451FF"/>
<path d="M154.23 212.376H69.0301L64.3621 75.354H149.562L154.23 212.376Z" fill="#3451FF"/>
<path opacity="0.3" d="M154.23 212.376H69.0301L64.3621 75.354H149.562L154.23 212.376Z" fill="white"/>
<path d="M125.684 131.738C134.806 122.458 134.418 107.284 124.817 97.8458C115.215 88.4074 100.037 88.2788 90.9144 97.5587C81.7919 106.839 82.18 122.013 91.7812 131.451C101.383 140.89 116.561 141.018 125.684 131.738Z" fill="#3451FF"/>
<path d="M128.082 114.654C128.205 117.919 127.492 121.161 126.012 124.074C124.414 127.213 121.974 129.845 118.964 131.674C115.954 133.503 112.494 134.458 108.972 134.43C105.367 134.411 101.831 133.443 98.718 131.626C95.605 129.808 93.0247 127.204 91.236 124.074C89.5683 121.206 88.6365 117.97 88.524 114.654C88.4134 112.083 88.8265 109.516 89.7385 107.11C90.6504 104.704 92.042 102.508 93.8288 100.656C95.6156 98.8042 97.7602 97.3349 100.132 96.3375C102.505 95.3401 105.055 94.8354 107.628 94.854C112.929 94.8915 118.012 96.9697 121.821 100.657C125.63 104.344 127.872 109.357 128.082 114.654Z" fill="white"/>
<path opacity="0.6" d="M126 124.074C124.402 127.213 121.962 129.845 118.952 131.674C115.942 133.503 112.482 134.458 108.96 134.43C105.355 134.411 101.819 133.443 98.706 131.626C95.593 129.808 93.0127 127.204 91.224 124.074C96.2983 120.614 102.303 118.776 108.444 118.8C114.684 118.814 120.785 120.646 126 124.074Z" fill="#3451FF"/>
<path opacity="0.6" d="M114.463 114.161C117.818 110.748 117.675 105.169 114.144 101.698C110.614 98.2274 105.033 98.1801 101.678 101.592C98.3238 105.005 98.4665 110.584 101.997 114.055C105.527 117.526 111.109 117.573 114.463 114.161Z" fill="#3451FF"/>
<path d="M137.112 162.756H82.7641L82.3981 151.956H136.746L137.112 162.756Z" fill="white"/>
<path d="M137.772 182.058H83.418L83.052 171.258H137.406L137.772 182.058Z" fill="white"/>
<path d="M116.796 172.746L103.698 174.546C103.573 174.56 103.452 174.6 103.344 174.663C103.235 174.726 103.14 174.811 103.066 174.913C102.991 175.014 102.939 175.13 102.911 175.253C102.884 175.375 102.882 175.502 102.906 175.626L104.628 184.404C104.684 184.662 104.835 184.889 105.05 185.041C105.266 185.193 105.53 185.259 105.792 185.226L118.89 183.426C119.015 183.41 119.135 183.369 119.243 183.305C119.351 183.241 119.445 183.155 119.519 183.053C119.592 182.952 119.644 182.836 119.671 182.713C119.698 182.59 119.7 182.463 119.676 182.34L117.96 173.562C117.904 173.305 117.753 173.078 117.537 172.927C117.322 172.776 117.057 172.711 116.796 172.746ZM113.034 181.638L110.634 181.956L110.4 179.124C110.153 179.017 109.935 178.852 109.765 178.643C109.594 178.434 109.477 178.188 109.422 177.924C109.378 177.72 109.377 177.508 109.42 177.304C109.463 177.099 109.548 176.906 109.67 176.736C109.792 176.566 109.949 176.424 110.129 176.319C110.31 176.213 110.51 176.147 110.718 176.124C111.144 176.069 111.575 176.176 111.926 176.424C112.278 176.672 112.523 177.042 112.614 177.462C112.666 177.716 112.65 177.978 112.568 178.224C112.486 178.469 112.34 178.689 112.146 178.86L113.034 181.638Z" fill="#3451FF"/>
<path d="M115.5 172.272C115.268 172.301 115.034 172.243 114.843 172.109C114.652 171.975 114.519 171.774 114.468 171.546L114.3 170.688C114.06 169.517 113.404 168.473 112.453 167.749C111.502 167.025 110.32 166.671 109.128 166.752C108.526 166.786 107.939 166.95 107.406 167.231C106.873 167.513 106.407 167.905 106.039 168.383C105.671 168.86 105.411 169.412 105.275 169.999C105.139 170.586 105.131 171.196 105.252 171.786L105.444 172.776C105.466 172.886 105.466 172.999 105.442 173.108C105.418 173.218 105.371 173.321 105.305 173.411C105.239 173.502 105.155 173.577 105.058 173.633C104.961 173.689 104.853 173.724 104.742 173.736C104.51 173.768 104.274 173.711 104.083 173.577C103.891 173.442 103.758 173.239 103.71 173.01L103.548 172.176C103.383 171.397 103.378 170.592 103.532 169.81C103.686 169.029 103.997 168.286 104.445 167.628C104.893 166.969 105.47 166.408 106.141 165.978C106.812 165.548 107.562 165.258 108.348 165.126C110.051 164.84 111.799 165.221 113.23 166.189C114.66 167.158 115.662 168.64 116.028 170.328L116.22 171.312C116.242 171.423 116.241 171.538 116.216 171.648C116.191 171.759 116.143 171.863 116.075 171.953C116.007 172.044 115.921 172.119 115.822 172.174C115.723 172.229 115.613 172.262 115.5 172.272Z" fill="#3451FF"/>
<path d="M128.802 197.184H93.42L93.186 190.152H128.562L128.802 197.184Z" fill="#3451FF"/>
<path d="M111.732 157.356C111.743 157.612 111.701 157.868 111.61 158.108C111.518 158.348 111.379 158.567 111.201 158.752C111.022 158.936 110.808 159.083 110.572 159.182C110.335 159.282 110.081 159.332 109.824 159.33C109.295 159.326 108.788 159.119 108.407 158.751C108.026 158.384 107.801 157.885 107.778 157.356C107.767 157.1 107.809 156.844 107.9 156.604C107.992 156.364 108.131 156.145 108.309 155.96C108.487 155.776 108.702 155.629 108.938 155.53C109.175 155.43 109.429 155.38 109.686 155.382C110.215 155.385 110.724 155.591 111.105 155.959C111.486 156.327 111.71 156.827 111.732 157.356Z" fill="#263238"/>
<path d="M103.2 157.356C103.211 157.613 103.17 157.869 103.079 158.109C102.988 158.35 102.849 158.569 102.671 158.754C102.492 158.938 102.278 159.085 102.041 159.184C101.804 159.283 101.549 159.333 101.292 159.33C100.764 159.326 100.257 159.119 99.8772 158.751C99.4974 158.384 99.2735 157.884 99.252 157.356C99.2414 157.1 99.283 156.844 99.3743 156.604C99.4656 156.364 99.6047 156.145 99.7831 155.96C99.9615 155.776 100.176 155.629 100.412 155.53C100.649 155.43 100.903 155.38 101.16 155.382C101.689 155.385 102.196 155.592 102.576 155.959C102.956 156.327 103.18 156.827 103.2 157.356Z" fill="#263238"/>
<path d="M94.7219 157.356C94.7325 157.612 94.6909 157.868 94.5996 158.108C94.5083 158.348 94.3692 158.567 94.1908 158.752C94.0124 158.936 93.7984 159.083 93.5617 159.182C93.325 159.282 93.0706 159.332 92.814 159.33C92.2851 159.327 91.7776 159.12 91.3975 158.753C91.0174 158.385 90.794 157.885 90.7739 157.356C90.7634 157.1 90.805 156.844 90.8963 156.604C90.9876 156.364 91.1267 156.145 91.3051 155.96C91.4835 155.776 91.6975 155.629 91.9342 155.53C92.1709 155.43 92.4253 155.38 92.682 155.382C93.2108 155.385 93.7183 155.592 94.0984 155.959C94.4785 156.327 94.7018 156.827 94.7219 157.356Z" fill="#263238"/>
<path d="M120.234 157.356C120.245 157.613 120.203 157.869 120.112 158.108C120.02 158.348 119.881 158.567 119.703 158.752C119.524 158.936 119.31 159.083 119.074 159.182C118.837 159.282 118.583 159.332 118.326 159.33C117.797 159.327 117.29 159.121 116.91 158.753C116.529 158.385 116.306 157.885 116.286 157.356C116.277 157.1 116.32 156.845 116.413 156.607C116.505 156.368 116.645 156.151 116.824 155.968C117.003 155.785 117.217 155.641 117.454 155.543C117.69 155.445 117.944 155.397 118.2 155.4C118.725 155.404 119.228 155.609 119.607 155.973C119.985 156.337 120.209 156.832 120.234 157.356Z" fill="#263238"/>
<path d="M128.736 157.356C128.747 157.613 128.706 157.869 128.615 158.109C128.524 158.35 128.385 158.569 128.207 158.754C128.028 158.938 127.814 159.085 127.577 159.184C127.34 159.283 127.085 159.333 126.828 159.33C126.3 159.326 125.793 159.119 125.413 158.751C125.033 158.384 124.81 157.884 124.788 157.356C124.777 157.1 124.819 156.844 124.91 156.604C125.002 156.364 125.141 156.145 125.319 155.96C125.498 155.776 125.712 155.629 125.948 155.53C126.185 155.43 126.439 155.38 126.696 155.382C127.225 155.385 127.732 155.592 128.112 155.959C128.492 156.327 128.716 156.827 128.736 157.356Z" fill="#263238"/>
<path d="M200.346 104.568C201.144 105.852 201.81 107.076 202.494 108.354C203.178 109.632 203.796 110.916 204.402 112.23C205.639 114.891 206.662 117.645 207.462 120.468C207.57 120.822 207.648 121.2 207.738 121.566L207.87 122.124L207.936 122.4L208.014 122.856C208.149 123.89 208.086 124.941 207.828 125.952C207.414 127.521 206.784 129.026 205.956 130.422C204.475 132.959 202.686 135.303 200.628 137.4L198.102 135.492C199.37 133.161 200.498 130.757 201.48 128.292C201.918 127.206 202.226 126.072 202.398 124.914C202.453 124.56 202.437 124.199 202.35 123.852L202.11 123.12C202.014 122.82 201.924 122.52 201.81 122.214C200.898 119.739 199.842 117.319 198.648 114.966C197.448 112.566 196.158 110.166 194.868 107.874L200.346 104.568Z" fill="#FF8B7B"/>
<path d="M198.744 134.658L195.984 136.116L199.152 139.824C199.152 139.824 201.132 138.486 201.222 136.446L198.744 134.658Z" fill="#FF8B7B"/>
<path d="M192.282 138.402L195.672 141.096L199.152 139.824L195.984 136.116L192.282 138.402Z" fill="#FF8B7B"/>
<path d="M180.69 84.9361C180.624 85.2721 180.39 85.5061 180.174 85.4641C179.958 85.4221 179.832 85.1101 179.898 84.7801C179.964 84.4501 180.198 84.1801 180.42 84.2521C180.642 84.3241 180.756 84.6001 180.69 84.9361Z" fill="#263238"/>
<path d="M180.42 85.5121C179.816 86.4519 179.085 87.3039 178.248 88.0441C178.446 88.2489 178.685 88.4086 178.95 88.5122C179.216 88.6157 179.5 88.6607 179.784 88.6441L180.42 85.5121Z" fill="#FF5652"/>
<path d="M179.34 97.284V93.348L184.548 93.948C184.548 93.948 184.464 97.332 181.548 98.328L179.34 97.284Z" fill="#FF8B7B"/>
<path d="M180.84 90.516L184.506 91.572L184.572 93.978L179.364 93.348L180.84 90.516Z" fill="#FF8B7B"/>
<path opacity="0.2" d="M184.506 91.572L180.84 90.516L180.126 91.884C180.165 92.9619 180.502 94.008 181.099 94.9061C181.696 95.8042 182.531 96.5193 183.51 96.972C184.14 96.0922 184.508 95.0521 184.572 93.972L184.506 91.572Z" fill="black"/>
<path d="M182.286 83.334C182.325 83.333 182.362 83.3211 182.394 83.2998C182.426 83.2784 182.451 83.2484 182.467 83.2133C182.483 83.1782 182.488 83.1393 182.483 83.1012C182.477 83.0631 182.461 83.0274 182.436 82.998C182.225 82.7601 181.961 82.5759 181.664 82.4611C181.368 82.3463 181.048 82.3041 180.732 82.338C180.68 82.3469 180.634 82.3758 180.604 82.4185C180.574 82.4613 180.561 82.5143 180.57 82.566C180.579 82.6181 180.608 82.6647 180.65 82.6961C180.693 82.7274 180.746 82.741 180.798 82.734C181.048 82.7095 181.301 82.7451 181.535 82.838C181.769 82.9309 181.977 83.0784 182.142 83.268C182.161 83.2881 182.183 83.3043 182.207 83.3156C182.232 83.3269 182.259 83.3332 182.286 83.334Z" fill="#263238"/>
<path d="M189.954 91.0081C189.354 94.0981 188.982 98.3761 191.154 100.434C191.154 100.434 190.314 103.566 184.554 103.566C178.248 103.566 181.524 100.818 181.524 100.818C184.146 100.002 184.122 97.0201 183.522 94.6201L189.954 91.0081Z" fill="#FF8B7B"/>
<path d="M192.324 102.498C192.888 101.706 192.864 99.192 192.264 98.748C191.298 98.034 187.152 97.866 181.578 99.15C182.178 101.586 180.888 102.858 180.888 102.858L192.324 102.498Z" fill="#3451FF"/>
<path d="M211.08 244.944C210.909 245.004 210.727 245.03 210.546 245.02C210.365 245.009 210.187 244.963 210.024 244.884C209.962 244.826 209.92 244.751 209.903 244.668C209.885 244.586 209.894 244.5 209.928 244.422C209.947 244.357 209.98 244.297 210.024 244.246C210.069 244.196 210.124 244.155 210.186 244.128C210.756 243.852 212.064 244.386 212.124 244.41C212.142 244.417 212.157 244.43 212.168 244.446C212.179 244.462 212.184 244.481 212.184 244.5C212.184 244.519 212.179 244.538 212.169 244.555C212.16 244.572 212.147 244.586 212.13 244.596C211.792 244.745 211.44 244.861 211.08 244.944ZM210.39 244.266C210.351 244.275 210.312 244.29 210.276 244.308C210.239 244.322 210.205 244.344 210.178 244.373C210.151 244.403 210.131 244.438 210.12 244.476C210.066 244.656 210.12 244.716 210.156 244.734C210.384 244.926 211.224 244.734 211.818 244.512C211.366 244.325 210.878 244.241 210.39 244.266Z" fill="#3451FF"/>
<path d="M212.106 244.602H212.058C211.578 244.464 210.558 243.738 210.546 243.264C210.546 243.189 210.571 243.115 210.618 243.057C210.665 242.998 210.731 242.956 210.804 242.94C210.875 242.913 210.951 242.903 211.027 242.909C211.103 242.915 211.176 242.938 211.242 242.976C211.806 243.264 212.166 244.428 212.178 244.482C212.187 244.497 212.191 244.513 212.191 244.53C212.191 244.547 212.187 244.563 212.178 244.578C212.169 244.587 212.158 244.594 212.145 244.599C212.132 244.603 212.119 244.604 212.106 244.602ZM210.906 243.108H210.858C210.738 243.15 210.738 243.21 210.738 243.24C210.738 243.522 211.422 244.092 211.938 244.32C211.812 243.984 211.536 243.318 211.17 243.12C211.089 243.083 210.996 243.079 210.912 243.108H210.906Z" fill="#3451FF"/>
<path d="M179.916 245.652C179.376 245.652 178.854 245.574 178.68 245.334C178.635 245.27 178.61 245.194 178.61 245.115C178.61 245.037 178.635 244.96 178.68 244.896C178.714 244.837 178.76 244.786 178.815 244.746C178.87 244.706 178.932 244.677 178.998 244.662C179.7 244.47 181.176 245.31 181.236 245.346C181.254 245.355 181.269 245.37 181.278 245.389C181.287 245.407 181.289 245.428 181.284 245.448C181.282 245.469 181.273 245.488 181.259 245.503C181.245 245.518 181.226 245.528 181.206 245.532C180.78 245.61 180.349 245.65 179.916 245.652ZM179.25 244.83C179.186 244.82 179.122 244.82 179.058 244.83C179.017 244.838 178.979 244.855 178.945 244.879C178.911 244.902 178.882 244.933 178.86 244.968C178.788 245.094 178.818 245.154 178.86 245.19C179.058 245.466 180.12 245.472 180.906 245.358C180.393 245.078 179.831 244.898 179.25 244.83Z" fill="#3451FF"/>
<path d="M181.2 245.532H181.158C180.648 245.304 179.64 244.392 179.718 243.912C179.718 243.798 179.814 243.66 180.09 243.636C180.189 243.624 180.289 243.633 180.384 243.662C180.479 243.691 180.567 243.739 180.642 243.804C181.027 244.264 181.257 244.832 181.302 245.43C181.302 245.447 181.298 245.464 181.291 245.48C181.284 245.495 181.273 245.509 181.26 245.52C181.242 245.529 181.221 245.534 181.2 245.532ZM180.168 243.822H180.108C179.928 243.822 179.916 243.906 179.916 243.93C179.868 244.218 180.552 244.938 181.074 245.25C181.028 244.768 180.833 244.313 180.516 243.948C180.418 243.864 180.292 243.819 180.162 243.822H180.168Z" fill="#3451FF"/>
<path d="M185.832 245.436H181.614L181.194 235.662H185.412L185.832 245.436Z" fill="#FF8B7B"/>
<path d="M216.81 243.48L212.688 244.374L208.542 235.272L212.67 234.378L216.81 243.48Z" fill="#FF8B7B"/>
<path d="M212.286 243.96L216.924 242.958C217.005 242.941 217.09 242.952 217.164 242.989C217.238 243.026 217.297 243.087 217.332 243.162L218.94 246.654C218.983 246.739 219.005 246.832 219.005 246.927C219.005 247.022 218.982 247.115 218.939 247.199C218.895 247.284 218.833 247.356 218.756 247.412C218.679 247.467 218.59 247.504 218.496 247.518C216.876 247.836 216.066 247.914 214.032 248.352C212.778 248.628 209.946 249.318 208.212 249.69C206.478 250.062 205.884 248.4 206.562 248.094C209.592 246.708 210.852 245.49 211.674 244.356C211.823 244.154 212.041 244.013 212.286 243.96Z" fill="#263238"/>
<path d="M181.644 244.944H186.252C186.336 244.945 186.417 244.973 186.482 245.026C186.547 245.078 186.593 245.151 186.612 245.232L187.446 248.982C187.47 249.073 187.473 249.168 187.454 249.26C187.435 249.352 187.395 249.438 187.337 249.511C187.278 249.585 187.204 249.644 187.118 249.683C187.033 249.723 186.94 249.741 186.846 249.738C185.184 249.708 182.784 249.612 180.696 249.612C178.248 249.612 176.142 249.744 173.274 249.744C171.54 249.744 171.06 247.992 171.786 247.83C175.086 247.11 177.786 247.032 180.636 245.274C180.935 245.074 181.284 244.959 181.644 244.944Z" fill="#263238"/>
<path d="M198.702 101.4C202.656 102.306 205.902 112.404 205.902 112.404L198 118.446C195.949 116.253 194.502 113.566 193.8 110.646C192.402 105.354 194.658 100.464 198.702 101.4Z" fill="#3451FF"/>
<path opacity="0.4" d="M198.702 101.4C202.656 102.306 205.902 112.404 205.902 112.404L198 118.446C195.949 116.253 194.502 113.566 193.8 110.646C192.402 105.354 194.658 100.464 198.702 101.4Z" fill="black"/>
<path d="M177.9 113.442C176.916 114.504 175.932 115.452 174.9 116.442C174.39 116.922 173.874 117.402 173.346 117.864L172.548 118.566L172.35 118.74L172.008 119.016C171.656 119.297 171.266 119.527 170.85 119.7C170.387 119.897 169.889 119.999 169.386 120C168.956 120.002 168.529 119.927 168.126 119.778C167.679 119.608 167.271 119.348 166.926 119.016C166.487 118.586 166.164 118.051 165.99 117.462C165.899 117.171 165.841 116.872 165.816 116.568C165.785 116.213 165.785 115.855 165.816 115.5C165.846 115.212 165.882 114.96 165.93 114.726C166.094 113.908 166.327 113.105 166.626 112.326C166.896 111.585 167.206 110.86 167.556 110.154C167.94 109.392 168.306 108.834 168.672 108.198C170.159 105.763 171.855 103.462 173.742 101.322C175.61 99.1946 177.669 97.2425 179.892 95.49L182.1 97.764C180.552 99.84 179.028 102.066 177.618 104.256C176.215 106.434 174.933 108.687 173.778 111.006C173.52 111.57 173.178 112.206 173.016 112.662C172.801 113.192 172.615 113.732 172.458 114.282C172.307 114.777 172.193 115.282 172.116 115.794C172.112 115.874 172.112 115.954 172.116 116.034C172.116 116.082 172.116 116.106 172.116 115.98C172.106 115.845 172.08 115.712 172.038 115.584C171.908 115.159 171.671 114.774 171.348 114.468C171.061 114.204 170.725 114 170.358 113.868C170.036 113.746 169.695 113.683 169.35 113.682C169.019 113.678 168.69 113.741 168.384 113.868C168.28 113.91 168.18 113.96 168.084 114.018L168.312 113.808L169.038 113.148L170.472 111.804C171.42 110.91 172.374 109.956 173.274 109.068L177.9 113.442Z" fill="#FF8B7B"/>
<path opacity="0.2" d="M195.312 108.816C197.46 110.94 198.162 114.816 198.312 118.176L197.964 118.446C195.913 116.253 194.466 113.566 193.764 110.646C193.686 110.334 193.614 110.046 193.56 109.704L195.312 108.816Z" fill="black"/>
<path d="M173.706 105.6C172.842 110.16 172.302 119.526 174.804 138.066H197.4C197.556 134.604 195.378 117.696 198.72 101.37C196.223 100.891 193.698 100.572 191.16 100.416C187.963 100.233 184.757 100.233 181.56 100.416C180.504 100.512 179.46 100.668 178.56 100.83C177.363 101.04 176.258 101.609 175.391 102.46C174.525 103.312 173.937 104.407 173.706 105.6Z" fill="#3451FF"/>
<path opacity="0.4" d="M173.706 105.6C172.842 110.16 172.302 119.526 174.804 138.066H197.4C197.556 134.604 195.378 117.696 198.72 101.37C196.223 100.891 193.698 100.572 191.16 100.416C187.963 100.233 184.757 100.233 181.56 100.416C180.504 100.512 179.46 100.668 178.56 100.83C177.363 101.04 176.258 101.609 175.391 102.46C174.525 103.312 173.937 104.407 173.706 105.6Z" fill="black"/>
<path opacity="0.2" d="M177.162 112.362L173.082 111.384C172.956 113.856 172.944 116.916 173.124 120.702C175.002 118.566 177.402 115.23 177.162 112.362Z" fill="black"/>
<path opacity="0.2" d="M181.194 235.662L181.41 240.702H185.634L185.418 235.662H181.194Z" fill="black"/>
<path opacity="0.2" d="M212.67 234.378L208.542 235.272L210.678 239.964L214.806 239.07L212.67 234.378Z" fill="black"/>
<path d="M191.958 86.4961C190.878 90.5401 190.446 92.9641 187.95 94.6441C184.2 97.2001 179.52 94.2721 179.4 90.0001C179.268 86.1421 181.062 80.1721 185.4 79.3561C186.353 79.1772 187.337 79.2439 188.257 79.5501C189.177 79.8563 190.004 80.3918 190.66 81.1062C191.317 81.8205 191.78 82.6901 192.007 83.6331C192.234 84.5761 192.217 85.5614 191.958 86.4961Z" fill="#FF8B7B"/>
<path d="M182.49 86.646C182.286 86.106 181.356 81.924 182.232 80.838C183.108 79.752 193.098 80.538 194.574 81.99C197.028 84.39 195.324 86.55 192.642 89.328C190.626 91.416 190.548 93.768 189.528 94.128C187.728 94.728 184.98 94.164 184.428 92.262C183.876 90.36 182.49 86.646 182.49 86.646Z" fill="#263238"/>
<path d="M193.362 77.232C189.834 75.732 183.216 77.394 179.64 76.53C179.594 77.8597 180.032 79.161 180.871 80.1933C181.71 81.2256 182.895 81.9193 184.206 82.146C187.172 82.7114 190.186 82.9906 193.206 82.98C197.13 82.8 196.362 78.51 193.362 77.232Z" fill="#263238"/>
<path d="M193.914 82.116C195.203 82.2428 196.501 81.9949 197.652 81.402C198.312 82.998 194.682 83.436 193.914 82.116Z" fill="#263238"/>
<path d="M184.41 86.8141C184.329 87.8546 183.907 88.8394 183.21 89.6161C182.286 90.6301 181.326 89.9941 181.164 88.7641C181.02 87.6481 181.32 85.764 182.448 85.224C183.576 84.684 184.488 85.5601 184.41 86.8141Z" fill="#FF8B7B"/>
<path d="M182.814 138.084C182.814 138.084 187.614 170.334 190.236 182.418C193.11 195.648 208.554 239.418 208.554 239.418L216.108 237.78C216.108 237.78 205.308 202.104 202.908 183.606C201.048 169.398 197.394 138.072 197.394 138.072L182.814 138.084Z" fill="#3451FF"/>
<path d="M206.742 236.904C206.712 236.904 208.152 239.64 208.152 239.64L216.648 237.798L215.934 235.242L206.742 236.904Z" fill="#263238"/>
<path opacity="0.3" d="M185.844 149.574C191.382 150.66 190.794 171.312 190.128 181.938C188.532 174.426 186.192 159.978 184.596 149.724C184.983 149.533 185.423 149.48 185.844 149.574Z" fill="black"/>
<path d="M174.804 138.084C174.804 138.084 174.204 169.638 174.684 182.484C175.164 195.87 179.838 239.7 179.838 239.7H186.99C186.99 239.7 187.248 196.65 187.59 183.504C187.938 169.176 189.666 138.06 189.666 138.06L174.804 138.084Z" fill="#3451FF"/>
<path d="M178.464 236.88C178.428 236.88 178.866 239.844 178.866 239.844H187.56L187.8 237.198L178.464 236.88Z" fill="#263238"/>
<path d="M182.55 107.004C184.572 112.458 172.686 118.884 172.686 118.884L167.538 112.284C167.538 112.284 171 105.432 175.2 102.348C180.39 98.544 181.008 102.852 182.55 107.004Z" fill="#3451FF"/>
<path opacity="0.4" d="M182.55 107.004C184.572 112.458 172.686 118.884 172.686 118.884L167.538 112.284C167.538 112.284 171 105.432 175.2 102.348C180.39 98.544 181.008 102.852 182.55 107.004Z" fill="black"/>
<path d="M229.122 65.598C241.081 65.598 250.776 59.4196 250.776 51.798C250.776 44.1765 241.081 37.998 229.122 37.998C217.163 37.998 207.468 44.1765 207.468 51.798C207.468 59.4196 217.163 65.598 229.122 65.598Z" fill="#3451FF"/>
<path d="M221.31 58.746C219.884 58.7414 218.504 58.2343 217.415 57.3136C216.325 56.393 215.595 55.1177 215.352 53.712C215.113 52.1894 215.457 50.6327 216.314 49.3519C217.171 48.071 218.479 47.16 219.978 46.8C221.208 46.5167 222.496 46.6259 223.66 47.1124C224.825 47.5988 225.807 48.4381 226.47 49.512L240.372 46.644C240.906 46.527 241.465 46.6159 241.937 46.8928C242.408 47.1698 242.758 47.6145 242.916 48.138C242.989 48.4133 243.005 48.7005 242.963 48.9821C242.921 49.2637 242.822 49.5338 242.672 49.7759C242.522 50.0179 242.324 50.2268 242.091 50.3899C241.857 50.5529 241.593 50.6666 241.314 50.724L240.954 50.796C240.901 50.8056 240.85 50.8274 240.806 50.8597C240.763 50.8919 240.727 50.9338 240.702 50.982C240.68 51.0311 240.668 51.0842 240.668 51.138C240.668 51.1919 240.68 51.245 240.702 51.294L240.948 51.93C241.03 52.1362 241.038 52.3646 240.971 52.576C240.903 52.7874 240.763 52.9685 240.576 53.088C240.429 53.1792 240.304 53.3027 240.211 53.4493C240.119 53.5959 240.061 53.7617 240.042 53.934C240.024 54.1318 239.945 54.319 239.814 54.4688C239.684 54.6186 239.51 54.7233 239.316 54.768L239.034 54.828C238.839 54.8642 238.637 54.8371 238.458 54.7508C238.279 54.6645 238.132 54.5235 238.038 54.348C237.914 54.1388 237.727 53.9736 237.504 53.8755C237.281 53.7774 237.033 53.7513 236.795 53.8008C236.556 53.8504 236.339 53.9731 236.174 54.1518C236.008 54.3306 235.903 54.5565 235.872 54.798C235.855 54.9946 235.777 55.1807 235.647 55.3295C235.518 55.4784 235.344 55.5822 235.152 55.626L234.87 55.686C234.675 55.7212 234.473 55.6937 234.294 55.6075C234.115 55.5213 233.968 55.3808 233.874 55.206C233.784 55.0572 233.663 54.9297 233.519 54.8324C233.375 54.735 233.212 54.67 233.04 54.642C232.809 54.6143 232.597 54.5033 232.442 54.3298C232.287 54.1564 232.201 53.9324 232.2 53.7V53.016C232.198 52.9625 232.184 52.9102 232.159 52.8626C232.135 52.815 232.1 52.7732 232.058 52.7402C232.016 52.7071 231.967 52.6836 231.915 52.6711C231.863 52.6587 231.809 52.6576 231.756 52.668L227.322 53.58C227.141 54.8085 226.586 55.9513 225.733 56.8531C224.879 57.7549 223.769 58.3719 222.552 58.62C222.143 58.7036 221.727 58.7458 221.31 58.746ZM220.11 47.346C218.749 47.6639 217.559 48.4856 216.78 49.6457C216.001 50.8057 215.69 52.218 215.91 53.598C216.146 54.882 216.834 56.039 217.849 56.86C218.864 57.6809 220.139 58.1115 221.444 58.0738C222.749 58.0361 223.997 57.5326 224.963 56.6544C225.929 55.7763 226.549 54.5814 226.71 53.286V53.07L231.6 52.08C231.74 52.0461 231.886 52.0438 232.028 52.0734C232.169 52.103 232.302 52.1636 232.417 52.2509C232.532 52.3382 232.626 52.4501 232.692 52.5783C232.758 52.7065 232.795 52.8478 232.8 52.992V53.676C232.801 53.7575 232.831 53.836 232.883 53.8983C232.936 53.9606 233.008 54.0029 233.088 54.018C233.35 54.0556 233.601 54.1524 233.82 54.3011C234.039 54.4497 234.222 54.6463 234.354 54.876C234.386 54.9408 234.437 54.9941 234.5 55.0285C234.564 55.0629 234.636 55.0767 234.708 55.068L234.984 55.008C235.054 54.99 235.116 54.95 235.162 54.8938C235.207 54.8376 235.233 54.7682 235.236 54.696C235.274 54.3225 235.429 53.9707 235.68 53.6914C235.931 53.4122 236.264 53.2199 236.632 53.1424C236.999 53.065 237.382 53.1063 237.724 53.2605C238.066 53.4146 238.351 53.6736 238.536 54C238.567 54.0643 238.617 54.1174 238.679 54.1518C238.742 54.1862 238.813 54.2003 238.884 54.192L239.172 54.132C239.241 54.113 239.302 54.0724 239.346 54.0163C239.39 53.9602 239.416 53.8914 239.418 53.82C239.448 53.5566 239.537 53.3034 239.68 53.0799C239.822 52.8563 240.014 52.6682 240.24 52.53C240.306 52.4824 240.354 52.414 240.377 52.3357C240.4 52.2574 240.396 52.1738 240.366 52.098L240.12 51.462C240.069 51.3309 240.048 51.1903 240.057 51.0499C240.066 50.9096 240.105 50.773 240.173 50.6495C240.24 50.5261 240.334 50.4189 240.447 50.3354C240.56 50.2519 240.69 50.1941 240.828 50.166L241.194 50.088C241.392 50.0458 241.58 49.9641 241.745 49.8477C241.911 49.7313 242.052 49.5827 242.159 49.4107C242.266 49.2388 242.337 49.047 242.368 48.8469C242.399 48.6467 242.39 48.4424 242.34 48.246C242.223 47.8685 241.967 47.5491 241.625 47.3521C241.282 47.1552 240.877 47.0951 240.492 47.184L226.2 50.154L226.092 49.968C225.518 48.9458 224.626 48.1382 223.553 47.6674C222.479 47.1965 221.281 47.0879 220.14 47.358L220.11 47.346ZM221.31 56.514C220.565 56.5223 219.833 56.3139 219.204 55.914C218.46 55.4256 217.908 54.6942 217.643 53.8445C217.378 52.9949 217.416 52.0796 217.75 51.2547C218.085 50.4298 218.694 49.7464 219.476 49.3209C220.258 48.8954 221.163 48.7543 222.037 48.9215C222.911 49.0887 223.701 49.5539 224.27 50.2378C224.84 50.9218 225.154 51.7821 225.161 52.6721C225.167 53.5621 224.864 54.4267 224.304 55.1186C223.744 55.8104 222.962 56.2866 222.09 56.466C221.835 56.5123 221.575 56.5324 221.316 56.526L221.31 56.514ZM221.31 49.428C221.086 49.4293 220.864 49.4514 220.644 49.494C220.226 49.5831 219.83 49.7536 219.478 49.9958C219.125 50.238 218.825 50.5472 218.592 50.9057C218.359 51.2643 218.2 51.6651 218.122 52.0854C218.044 52.5056 218.05 52.9371 218.139 53.355C218.228 53.773 218.399 54.1694 218.641 54.5215C218.883 54.8736 219.192 55.1746 219.551 55.4072C219.909 55.6398 220.31 55.7995 220.73 55.8772C221.151 55.9549 221.582 55.9491 222 55.86C222.628 55.7294 223.202 55.4159 223.652 54.9591C224.102 54.5023 224.406 53.9226 224.526 53.2931C224.647 52.6636 224.579 52.0125 224.33 51.4218C224.081 50.8312 223.663 50.3274 223.128 49.974C222.597 49.6208 221.972 49.4348 221.334 49.44L221.31 49.428Z" fill="white"/>
<path opacity="0.6" d="M211.5 73.692C215.43 73.692 218.616 71.6612 218.616 69.156C218.616 66.6508 215.43 64.62 211.5 64.62C207.57 64.62 204.384 66.6508 204.384 69.156C204.384 71.6612 207.57 73.692 211.5 73.692Z" fill="#3451FF"/>
<path opacity="0.3" d="M200.178 75.552C201.792 75.552 203.1 74.7193 203.1 73.692C203.1 72.6648 201.792 71.832 200.178 71.832C198.564 71.832 197.256 72.6648 197.256 73.692C197.256 74.7193 198.564 75.552 200.178 75.552Z" fill="#3451FF"/>
</svg>
