<svg width="255" height="255" viewBox="0 0 255 255" fill="none" xmlns="http://www.w3.org/2000/svg">
<g clip-path="url(#clip0_57_2068)">
<mask id="mask0_57_2068" style="mask-type:alpha" maskUnits="userSpaceOnUse" x="76" y="30" width="103" height="71">
<path d="M76.6806 30.2175H178.681V100.087H76.6806V30.2175Z" fill="white"/>
</mask>
<g mask="url(#mask0_57_2068)">
<path d="M127.747 99.9733C111.082 99.9733 94.4138 99.9733 77.7458 99.9733C76.6806 99.9733 76.747 100.018 76.747 98.9745C76.747 97.7473 76.747 97.7473 77.9928 97.7473C80.9386 97.7473 83.9056 97.7473 86.8488 97.7473C87.6191 97.7473 87.6191 97.8377 87.6191 96.9744C87.6191 88.4505 87.6191 79.9266 87.6191 71.3814C87.6191 71.3123 87.6191 71.2433 87.6191 71.1769C87.5952 70.6084 87.5952 70.6084 87.0081 70.6084C86.0572 70.6084 85.1275 70.6084 84.1766 70.6084C83.4753 70.6084 83.4514 70.6084 83.4514 69.9019C83.4514 69.3122 83.4302 68.7198 83.4514 68.1301C83.4514 67.7662 83.3611 67.6308 82.9759 67.6069C82.2959 67.5856 82.2959 67.5617 82.2959 66.8578C82.2959 54.9233 82.2959 42.9675 82.2959 31.0356C82.2959 30.9214 82.2959 30.8072 82.2959 30.6717C82.2747 30.3981 82.4314 30.2866 82.6811 30.3078C82.9998 30.3078 83.292 30.3317 83.6108 30.3317C101.772 30.3317 119.914 30.3317 138.075 30.3317C139.501 30.3317 139.365 30.2866 139.365 31.6492C139.365 33.5803 139.365 35.5353 139.365 37.4691C139.365 38.1942 139.365 38.1942 140.115 38.1942C149.693 38.1942 159.271 38.1942 168.874 38.1942C169.599 38.1942 170.345 38.1942 171.07 38.1942C171.525 38.1942 171.546 38.242 171.546 38.6962C171.546 48.8564 171.546 59.0166 171.525 69.1767C171.525 69.267 171.525 69.3573 171.525 69.4716C171.525 70.0851 171.525 70.0851 172.136 70.1064C172.226 70.1064 172.316 70.1064 172.43 70.1064C172.906 70.1303 172.951 70.1755 172.972 70.6536C172.996 70.9033 172.972 71.1769 172.972 71.4266C172.951 71.9259 172.906 71.9711 172.385 71.995C172.112 71.995 171.82 72.0162 171.525 71.995C171.206 71.9711 171.116 72.1305 171.116 72.4253C171.116 72.6537 171.116 72.9034 171.116 73.1319C171.094 73.6073 171.025 73.7216 170.529 73.7216C169.599 73.7455 168.693 73.7216 167.763 73.7216C167.607 73.7216 167.426 73.7216 167.267 73.7455C167.107 73.7455 167.017 73.857 166.996 74.0164C166.996 74.1997 166.996 74.4042 166.996 74.5848C166.996 81.9958 166.996 89.428 166.996 96.8363C166.996 96.9292 166.996 97.0195 166.996 97.1338C166.996 97.7473 166.996 97.7473 167.628 97.7473C170.935 97.7473 174.242 97.7473 177.549 97.7473C177.706 97.7473 177.886 97.7473 178.046 97.7473C178.612 97.7686 178.657 97.8138 178.681 98.3609C178.681 98.77 178.681 99.1552 178.681 99.5642C178.681 99.8617 178.566 99.9972 178.25 99.9972C177.979 99.9733 177.685 99.9972 177.39 99.9972C160.857 99.9733 144.303 99.9733 127.747 99.9733ZM110.853 30.855C101.841 30.855 92.828 30.855 83.7914 30.855C82.7263 30.855 82.8405 30.7408 82.8405 31.7847C82.8405 43.265 82.8405 54.7187 82.8405 66.1991C82.8405 67.243 82.7714 67.1287 83.7463 67.1287C94.775 67.1287 105.804 67.1287 116.811 67.1287C117.853 67.1287 117.738 67.243 117.738 66.1539C117.738 56.0389 117.738 45.9239 117.738 35.8089C117.738 35.6256 117.738 35.4211 117.738 35.2405C117.762 34.7862 117.829 34.7172 118.283 34.672C118.44 34.6508 118.623 34.672 118.78 34.672C125.075 34.672 131.394 34.672 137.689 34.672C137.918 34.672 138.165 34.6508 138.393 34.672C138.731 34.6959 138.869 34.5578 138.845 34.2178C138.824 33.3997 138.845 32.5576 138.845 31.7395C138.845 30.7859 138.959 30.855 137.963 30.855C128.926 30.855 119.89 30.855 110.853 30.855ZM148.561 86.267C148.561 83.4275 148.561 80.5853 148.561 77.7458C148.561 77.1083 148.561 77.1083 147.948 77.1083C147.857 77.1083 147.767 77.1083 147.656 77.1083C143.94 77.1083 140.25 77.1083 136.534 77.1083C135.607 77.1083 135.652 76.9728 135.652 77.9955C135.652 83.5869 135.652 89.1783 135.652 94.7697C135.652 94.9052 135.652 95.0645 135.652 95.2C135.652 95.4284 135.742 95.5639 135.992 95.5639C136.127 95.5639 136.287 95.5639 136.422 95.5639C140.226 95.5639 144.009 95.5639 147.812 95.5639C147.948 95.5639 148.086 95.5639 148.243 95.5639C148.447 95.5639 148.537 95.4497 148.561 95.2452C148.561 95.0645 148.561 94.86 148.561 94.6794C148.561 91.8584 148.561 89.0641 148.561 86.267ZM102.632 76.9728C99.2827 76.9728 95.9305 76.9728 92.5783 76.9728C91.6938 76.9728 91.7628 76.8586 91.7628 77.8361C91.7628 84.1766 91.7628 90.5409 91.7628 96.8841C91.7628 97.0195 91.7867 97.1789 91.7628 97.3144C91.7416 97.6544 91.877 97.7686 92.217 97.7686C93.2795 97.7473 94.3447 97.7473 95.4098 97.7686C95.7498 97.7686 95.9517 97.6783 95.9066 97.2931C95.8853 97.1098 95.9066 96.9053 95.9066 96.7247C95.9066 91.9966 95.9066 87.2445 95.9066 82.5191C95.9066 82.11 95.9066 81.7222 95.8853 81.3131C95.8853 81.0395 95.9756 80.9041 96.2466 80.928C96.382 80.928 96.5414 80.928 96.6769 80.928C100.73 80.928 104.808 80.928 108.861 80.928C109.02 80.928 109.201 80.928 109.36 80.928C109.562 80.928 109.653 81.0395 109.677 81.2441C109.677 81.4034 109.677 81.5867 109.677 81.7461C109.677 86.7691 109.677 91.792 109.677 96.815C109.677 96.9956 109.677 97.2002 109.677 97.3834C109.653 97.7022 109.812 97.7925 110.107 97.7925C111.103 97.7925 112.099 97.7925 113.074 97.7925C113.345 97.7925 113.459 97.6783 113.459 97.4047C113.459 97.2241 113.459 97.0195 113.459 96.8363C113.459 91.0642 113.459 85.2683 113.459 79.4936C113.459 78.8587 113.459 78.2212 113.459 77.5864C113.459 77.0392 113.435 77.0392 112.915 77.018C112.755 77.018 112.575 77.018 112.418 77.018C109.156 76.9728 105.894 76.9728 102.632 76.9728ZM152.094 87.4278C152.094 90.5648 152.094 93.678 152.094 96.815C152.094 96.9956 152.094 97.2002 152.094 97.3834C152.094 97.6544 152.185 97.7925 152.455 97.7686C152.591 97.7686 152.726 97.7686 152.886 97.7686C157.144 97.7686 161.378 97.7686 165.636 97.7686C166.565 97.7686 166.451 97.8138 166.451 96.9053C166.451 90.61 166.451 84.3147 166.451 78.0167C166.451 77.8573 166.451 77.6767 166.451 77.5173C166.451 77.2677 166.361 77.1083 166.09 77.1322C165.952 77.1322 165.816 77.1322 165.66 77.1322C161.402 77.1322 157.165 77.1322 152.91 77.1322C152.795 77.1322 152.681 77.1534 152.546 77.1322C152.161 77.0844 152.049 77.2889 152.07 77.6316C152.07 77.7909 152.07 77.9716 152.07 78.1309C152.094 81.2228 152.094 84.3147 152.094 87.4278ZM133.275 56.4931C133.275 59.7895 133.275 63.0833 133.275 66.3797C133.275 66.563 133.275 66.7675 133.275 66.9481C133.251 67.2669 133.41 67.3572 133.705 67.3572C134.111 67.3572 134.497 67.3572 134.906 67.3572C135.381 67.3333 135.402 67.3333 135.402 66.8126C135.402 66.6533 135.402 66.47 135.402 66.3106C135.402 60.4031 135.402 54.5142 135.402 48.6067C135.402 48.4234 135.402 48.2189 135.402 48.0383C135.402 47.8098 135.493 47.6744 135.721 47.6956C135.833 47.6956 135.947 47.6956 136.082 47.6956C141.586 47.6956 147.087 47.6956 152.591 47.6956C153.271 47.6956 153.271 47.6956 153.295 48.4022C153.295 48.5137 153.295 48.628 153.295 48.7634C153.295 54.6072 153.295 60.4695 153.295 66.3106C153.295 67.4714 153.09 67.3572 154.357 67.3572C154.992 67.3572 154.992 67.3572 154.992 66.7436C154.992 66.6533 154.992 66.563 154.992 66.4487C154.992 59.7895 154.992 53.1276 154.992 46.4684C154.992 45.5148 155.082 45.5812 154.108 45.5812C147.451 45.5812 140.792 45.5812 134.135 45.5812C134 45.5812 133.84 45.6051 133.705 45.5812C133.365 45.56 133.23 45.7194 133.251 46.0381C133.275 46.1948 133.251 46.3781 133.251 46.5375C133.275 49.8551 133.275 53.1728 133.275 56.4931ZM131.758 87.4039C131.758 84.2005 131.758 81.0183 131.758 77.8122C131.758 77.1083 131.758 77.1083 131.078 77.1083C129.697 77.1083 128.292 77.1083 126.91 77.1083C126.005 77.1083 126.05 76.9941 126.05 77.9955C126.05 84.2908 126.05 90.5861 126.05 96.8841C126.05 97.0195 126.05 97.1789 126.05 97.3144C126.026 97.6092 126.14 97.7473 126.456 97.7473C128.087 97.7473 129.718 97.7473 131.349 97.7473C131.689 97.7473 131.803 97.6092 131.779 97.2692C131.758 97.1098 131.779 96.9292 131.779 96.7698C131.758 93.6541 131.758 90.5409 131.758 87.4039ZM127.795 98.2919C111.262 98.2919 94.7511 98.2919 78.2213 98.2919C78.0619 98.2919 77.8813 98.3158 77.7219 98.2919C77.3606 98.2467 77.2916 98.4273 77.2703 98.7461C77.2464 99.3836 77.2703 99.4287 77.9264 99.4287C78.0619 99.4287 78.2213 99.4287 78.3567 99.4287C104.808 99.4287 131.28 99.4287 157.733 99.4287C164.324 99.4287 170.914 99.4287 177.48 99.4287C178.181 99.4287 178.181 99.4048 178.16 98.7913C178.136 98.2919 178.136 98.2919 177.615 98.2919C177.435 98.2919 177.23 98.2919 177.05 98.2919C160.653 98.2919 144.213 98.2919 127.795 98.2919ZM106.89 91.2448C106.89 89.3377 106.89 87.4039 106.89 85.4967C106.89 84.8592 106.89 84.8353 106.279 84.8353C103.968 84.8353 101.66 84.8353 99.3491 84.8353C98.7833 84.8353 98.7594 84.8592 98.7594 85.4489C98.7594 89.3589 98.7594 93.2689 98.7594 97.155C98.7594 97.7234 98.7833 97.7234 99.373 97.7234C101.66 97.7234 103.947 97.7234 106.234 97.7234C106.869 97.7234 106.89 97.7234 106.89 97.0408C106.89 95.1336 106.89 93.1786 106.89 91.2448ZM144.779 55.9937C144.779 58.0603 144.779 60.1056 144.779 62.1748C144.779 62.7672 144.779 62.7672 145.366 62.7672C147.382 62.7672 149.377 62.7672 151.39 62.7672C151.98 62.7672 152.004 62.7672 152.004 62.1297C152.004 58.0842 152.004 54.0387 152.004 49.9906C152.004 49.3319 152.004 49.3106 151.345 49.3106C149.398 49.3106 147.427 49.3106 145.48 49.3106C144.824 49.3106 144.8 49.3106 144.8 49.9694C144.779 51.9695 144.779 53.9697 144.779 55.9937ZM136.603 56.015C136.603 58.0842 136.603 60.1295 136.603 62.1987C136.603 62.7433 136.627 62.7433 137.147 62.7672C139.14 62.7672 141.111 62.7672 143.103 62.7672C143.623 62.7672 143.647 62.7433 143.647 62.1987C143.647 58.1055 143.647 54.0148 143.647 49.9003C143.647 49.3106 143.647 49.2867 143.058 49.2867C141.132 49.2867 139.185 49.2867 137.259 49.2867C136.627 49.2867 136.627 49.2867 136.627 49.9694C136.603 51.9934 136.603 54.0148 136.603 56.015ZM91.2422 84.1314C91.2422 79.9717 91.2422 75.7908 91.2422 71.6311C91.2422 71.4717 91.2422 71.2884 91.2422 71.1291C91.2183 70.6084 91.2183 70.6084 90.7216 70.6084C90.1558 70.6084 89.59 70.6084 89.0216 70.6084C88.0706 70.6084 88.1609 70.5394 88.1609 71.493C88.1609 79.9505 88.1609 88.4053 88.1609 96.8602C88.1609 96.9956 88.1609 97.155 88.1609 97.2931C88.1397 97.6331 88.2752 97.7686 88.6152 97.7473C89.3403 97.7234 90.0867 97.7234 90.8119 97.7473C91.1519 97.7473 91.2873 97.6092 91.2422 97.2931C91.2183 97.1338 91.2422 96.9505 91.2422 96.7911C91.2422 92.565 91.2422 88.3602 91.2422 84.1314ZM151.574 87.4278C151.574 84.2908 151.574 81.1777 151.574 78.0406C151.574 77.8573 151.574 77.6528 151.574 77.4722C151.574 77.1986 151.435 77.1083 151.188 77.1083C150.939 77.1083 150.848 77.1986 150.848 77.4483C150.848 77.6528 150.848 77.8812 150.848 78.0858C150.848 83.7462 150.848 89.4041 150.848 95.0645C150.848 95.2 150.848 95.3594 150.848 95.4975C150.825 95.973 150.779 96.042 150.328 96.042C149.828 96.0633 149.332 96.0633 148.832 96.0633C144.054 96.0633 139.299 96.042 134.52 96.042C133.455 96.042 133.455 96.042 133.455 95.0194C133.455 89.3589 133.455 83.6984 133.455 78.0406C133.455 77.8361 133.455 77.6077 133.455 77.4031C133.455 77.2889 133.41 77.1773 133.275 77.1322C132.685 76.9277 132.345 77.1534 132.324 77.767C132.324 77.8812 132.324 77.9955 132.324 78.1309C132.324 83.6533 132.324 89.1783 132.324 94.7006C132.324 95.4497 132.324 96.2227 132.324 96.9744C132.324 97.8377 132.255 97.7686 133.139 97.7686C139.025 97.7686 144.89 97.7686 150.779 97.7686C150.915 97.7686 151.074 97.7686 151.21 97.7686C151.459 97.7686 151.619 97.6783 151.595 97.4047C151.595 97.2241 151.595 97.0195 151.595 96.8363C151.574 93.678 151.574 90.5409 151.574 87.4278ZM121.587 84.2217C121.587 80.1072 121.587 75.9714 121.587 71.8569C121.587 71.6762 121.587 71.4717 121.587 71.2884C121.587 70.6084 121.587 70.6084 120.931 70.6084C120.615 70.6084 120.32 70.6084 120.004 70.6084C119.053 70.6084 119.143 70.5394 119.143 71.493C119.143 79.9505 119.143 88.4053 119.143 96.8602C119.143 96.9956 119.143 97.155 119.143 97.2931C119.12 97.6092 119.234 97.7686 119.574 97.7473C120.094 97.7234 120.615 97.7234 121.136 97.7473C121.476 97.7686 121.611 97.6092 121.566 97.2931C121.542 97.1338 121.566 96.9505 121.566 96.7911C121.587 92.6102 121.587 88.4053 121.587 84.2217ZM146.341 72.0162C143.012 72.0162 139.684 72.0162 136.353 72.0162C131.848 72.0162 127.341 72.0162 122.833 72.0162C122.087 72.0162 122.11 72.0401 122.11 72.768C122.11 73.1531 122.267 73.2673 122.631 73.2434C122.743 73.2434 122.857 73.2434 122.992 73.2434C138.595 73.2434 154.177 73.2434 169.78 73.2434C169.96 73.2434 170.165 73.2434 170.345 73.2222C170.483 73.2222 170.55 73.1319 170.595 73.0177C170.8 72.335 170.574 72.0162 169.87 72.0162C169.803 72.0162 169.734 72.0162 169.668 72.0162C161.853 72.0162 154.086 72.0162 146.341 72.0162ZM144.394 64.2201C141.902 64.2201 139.389 64.2201 136.898 64.2201C136.738 64.2201 136.558 64.2201 136.398 64.2201C136.104 64.1989 135.968 64.3105 135.968 64.6292C135.992 65.4022 135.968 66.1991 135.968 66.972C135.968 67.243 136.082 67.3572 136.353 67.3572C136.489 67.3572 136.627 67.3572 136.784 67.3572C141.833 67.3572 146.885 67.3572 151.911 67.3572C152.049 67.3572 152.185 67.3572 152.341 67.3572C152.591 67.3572 152.726 67.2669 152.726 66.9933C152.726 66.1991 152.726 65.3809 152.726 64.5841C152.726 64.3583 152.615 64.2441 152.386 64.2441C152.206 64.2441 152.004 64.2441 151.821 64.2441C149.353 64.2201 146.861 64.2201 144.394 64.2201ZM103.017 70.1064C109.111 70.1064 115.202 70.1064 121.295 70.1064C122.156 70.1064 122.156 70.0851 122.11 69.2431C122.087 68.9483 121.996 68.8128 121.701 68.8128C121.587 68.8128 121.476 68.8128 121.34 68.8128C109.156 68.8128 96.993 68.8128 84.8114 68.8128C84.652 68.8128 84.4714 68.8128 84.312 68.8128C84.1075 68.8128 84.0411 68.9031 83.9959 69.1077C83.8605 69.9709 83.972 70.1064 84.8327 70.1064C90.8809 70.1064 96.9478 70.1064 103.017 70.1064ZM120.727 51.7198C120.727 46.7872 120.727 41.8784 120.727 36.9458C120.727 36.3083 120.727 36.3083 120.116 36.3083C119.46 36.3083 119.46 36.3083 119.46 36.967C119.46 37.0361 119.46 37.1051 119.46 37.1716C119.46 46.8775 119.46 56.5834 119.46 66.2894C119.46 66.4248 119.46 66.5842 119.46 66.7197C119.46 66.972 119.55 67.1075 119.821 67.1287C120.66 67.2217 120.727 67.1766 120.727 66.2894C120.727 61.4258 120.727 56.5834 120.727 51.7198ZM116.878 85.0186C116.878 81.2441 116.878 77.4934 116.878 73.7216C116.878 72.1544 116.878 72.1544 115.316 72.2659C115.292 72.2659 115.271 72.2659 115.247 72.2659C115.021 72.2659 114.907 72.3801 114.907 72.6086C114.907 73.3364 114.907 74.0855 114.907 74.8133C114.907 74.9275 114.907 75.0842 115.066 75.0842C115.587 75.0842 115.496 75.472 115.496 75.7908C115.496 78.1761 115.496 80.5641 115.496 82.9733C115.496 87.6775 115.52 92.3817 115.52 97.1098C115.52 97.7473 115.52 97.7473 116.153 97.7473C116.878 97.7473 116.902 97.7473 116.902 97.0195C116.902 93.0192 116.878 89.0189 116.878 85.0186ZM147.337 70.6536C139.435 70.6536 131.53 70.6536 123.627 70.6536C123.242 70.6536 122.878 70.6748 122.493 70.6536C122.222 70.6536 122.11 70.7678 122.11 71.0387C122.11 71.3362 122.201 71.493 122.517 71.4717C122.697 71.4717 122.902 71.4717 123.083 71.4717C138.959 71.4717 154.833 71.4717 170.73 71.4717C171.161 71.4717 171.591 71.4717 172 71.4717C172.271 71.4717 172.43 71.4026 172.452 71.0839C172.452 70.72 172.295 70.6297 171.976 70.6536C171.774 70.6748 171.546 70.6536 171.344 70.6536C163.349 70.6536 155.332 70.6536 147.337 70.6536ZM118.283 51.0823C118.283 56.1292 118.283 61.1761 118.283 66.2203C118.283 66.4036 118.283 66.6081 118.283 66.7887C118.283 66.972 118.328 67.1075 118.554 67.1075C118.758 67.1075 118.939 67.0623 118.939 66.8126C118.939 66.6081 118.939 66.3797 118.939 66.1751C118.939 56.4241 118.939 46.6517 118.939 36.9006C118.939 35.7637 118.849 35.7637 120.049 35.7637C126.095 35.7637 132.14 35.7637 138.189 35.7637C138.415 35.7637 138.845 35.9444 138.824 35.4689C138.824 35.012 138.393 35.1953 138.165 35.1953C131.734 35.1953 125.325 35.1953 118.894 35.1953C118.259 35.1953 118.259 35.1953 118.259 35.8089C118.259 35.9231 118.259 36.0373 118.259 36.1728C118.283 41.1267 118.283 46.1045 118.283 51.0823ZM95.3647 75.1533C96.4511 75.1533 97.5375 75.132 98.6239 75.1533C98.9427 75.1533 99.0994 75.063 99.0781 74.6991C99.0542 73.4931 99.0542 72.2898 99.0781 71.0839C99.0781 70.72 98.9427 70.5845 98.5788 70.5845C96.4511 70.6084 94.3447 70.5845 92.217 70.5845C91.877 70.5845 91.7628 70.72 91.7628 71.0387C91.7628 72.2447 91.7867 73.448 91.7628 74.6539C91.7628 75.0178 91.8983 75.1533 92.2622 75.132C93.3034 75.1533 94.3447 75.1533 95.3647 75.1533ZM106.439 75.1533C106.64 75.1533 106.869 75.1533 107.071 75.1533C108.5 75.1533 109.902 75.1533 111.329 75.1533C112.009 75.1533 112.009 75.1533 112.009 74.4494C112.009 73.857 112.009 73.2673 112.009 72.675C112.009 72.4041 111.895 72.2898 111.624 72.2898C111.488 72.2898 111.329 72.2898 111.193 72.2898C108.046 72.2898 104.919 72.2898 101.772 72.2898C101.66 72.2898 101.546 72.2898 101.41 72.2898C101.094 72.2659 100.935 72.3801 100.935 72.7201C100.935 73.3364 100.89 73.95 100.866 74.5636C100.845 75.1533 100.866 75.1533 101.455 75.1533C103.132 75.1533 104.784 75.1533 106.439 75.1533ZM121.25 51.7198C121.25 56.5595 121.25 61.3806 121.25 66.2203C121.25 66.3797 121.25 66.563 121.25 66.7197C121.226 67.0384 121.361 67.1287 121.68 67.1287C121.972 67.1287 122.11 67.0172 122.087 66.6984C122.087 66.5151 122.087 66.3106 122.087 66.13C122.087 57.1519 122.087 48.1737 122.087 39.1956C122.087 38.9008 121.972 38.5369 122.177 38.3084C122.357 38.0826 122.721 38.2181 122.992 38.2181C123.263 38.1942 123.354 38.1039 123.377 37.833C123.513 36.3083 123.537 36.3083 122.017 36.3083C121.226 36.3083 121.271 36.2419 121.271 37.0812C121.25 41.9687 121.25 46.8562 121.25 51.7198ZM102.972 68.2895C109.042 68.2895 115.111 68.2895 121.157 68.2895C121.361 68.2895 121.587 68.2895 121.792 68.2895C121.996 68.2895 122.063 68.1753 122.063 67.9708C122.063 67.7901 122.017 67.652 121.792 67.6308C121.635 67.6308 121.452 67.6308 121.295 67.6308C109.111 67.6308 96.9478 67.6308 84.7663 67.6308C84.6069 67.6308 84.4263 67.6308 84.2669 67.6308C84.0172 67.6308 83.9508 67.7662 83.9508 67.9947C83.9508 68.1992 84.0411 68.2895 84.243 68.2895C84.4263 68.2895 84.6281 68.2895 84.8114 68.2895C90.9022 68.2895 96.9478 68.2895 102.972 68.2895ZM149.082 86.267C149.082 89.0641 149.082 91.8584 149.082 94.6555C149.082 94.8361 149.082 95.0406 149.082 95.2239C149.082 95.3833 149.148 95.4736 149.308 95.5187C149.964 95.702 150.283 95.4975 150.283 94.8148C150.283 94.7697 150.283 94.7245 150.283 94.6794C150.283 89.1092 150.283 83.5417 150.283 77.9716C150.283 77.8122 150.283 77.6316 150.283 77.4722C150.283 77.1986 150.168 77.0844 149.897 77.0844C149.759 77.0844 149.603 77.0844 149.467 77.0844C149.148 77.0631 149.037 77.2225 149.058 77.5173C149.058 77.6767 149.058 77.8573 149.058 78.0167C149.082 80.7686 149.082 83.5178 149.082 86.267ZM133.976 86.267C133.976 89.088 133.976 91.9062 133.976 94.7245C133.976 94.9052 133.976 95.1097 134 95.293C134 95.4045 134.09 95.4975 134.226 95.5427C134.86 95.7233 135.153 95.5187 135.153 94.8839C135.153 94.8361 135.153 94.7909 135.153 94.7458C135.153 89.1544 135.153 83.563 135.153 77.9955C135.153 77.8361 135.153 77.6528 135.153 77.4934C135.153 77.2677 135.062 77.1322 134.813 77.1534C134.677 77.1534 134.52 77.1534 134.385 77.1534C134.066 77.1322 133.976 77.2889 133.976 77.5864C133.976 77.7458 133.976 77.9264 133.976 78.0858C133.976 80.7898 133.976 83.5178 133.976 86.267ZM134.86 37.2858C134.837 36.1941 135.062 36.3083 133.84 36.3083C133.795 36.3083 133.75 36.3083 133.705 36.3083C133.477 36.3083 133.365 36.4225 133.365 36.6509C133.365 36.9909 133.365 37.3548 133.365 37.6948C133.386 38.173 133.386 38.1942 133.907 38.1942C135.041 38.2181 134.837 38.2181 134.86 37.2858ZM138.845 37.2858C138.845 37.06 138.845 36.8076 138.845 36.5819C138.845 36.4916 138.8 36.3534 138.731 36.3534C138.3 36.287 137.87 36.2419 137.487 36.3773C137.169 36.4916 137.349 36.8767 137.328 37.1503C137.304 37.3097 137.328 37.4903 137.328 37.6497C137.349 38.242 137.349 38.242 137.918 38.242C139.025 38.2181 138.824 38.2633 138.845 37.2858ZM125.303 37.2406C125.303 37.0361 125.303 36.8076 125.303 36.6031C125.303 36.4464 125.234 36.3534 125.054 36.3083C124.124 36.1037 123.877 36.3083 123.877 37.2406C123.877 37.4451 123.877 37.6736 123.877 37.8781C123.877 38.1039 124.012 38.1942 124.238 38.2181C125.234 38.3323 125.325 38.2633 125.303 37.2406ZM131.439 37.2406C131.439 37.4691 131.439 37.7187 131.439 37.9445C131.439 38.0587 131.484 38.173 131.644 38.1942C132.005 38.2181 132.414 38.3323 132.73 38.1278C132.98 37.9684 132.82 37.6045 132.844 37.3309C132.866 37.1264 132.844 36.9006 132.844 36.6961C132.866 36.3773 132.709 36.287 132.414 36.287C131.235 36.3083 131.439 36.218 131.439 37.2406ZM129.537 37.2645C129.537 37.4691 129.537 37.6948 129.537 37.8994C129.537 38.0587 129.606 38.1942 129.763 38.1942C130.058 38.2181 130.374 38.2181 130.669 38.1942C130.85 38.1942 130.897 38.0375 130.897 37.8781C130.897 37.4451 130.897 37.0361 130.897 36.6031C130.897 36.3986 130.804 36.3322 130.603 36.3083C129.628 36.1728 129.513 36.2419 129.537 37.2645ZM129.017 37.2406C128.993 36.218 129.221 36.287 128.021 36.287C127.997 36.287 127.975 36.287 127.952 36.287C127.681 36.2631 127.59 36.4225 127.59 36.6722C127.59 37.0361 127.59 37.4212 127.59 37.7851C127.59 38.0375 127.681 38.1491 127.952 38.1942C128.948 38.3084 129.017 38.2633 129.017 37.2406ZM136.807 37.2645C136.784 36.218 137.009 36.287 135.766 36.287C135.493 36.287 135.381 36.3773 135.381 36.6509C135.381 37.06 135.381 37.4451 135.381 37.8542C135.381 38.0826 135.493 38.173 135.721 38.1942C136.693 38.3323 136.807 38.242 136.807 37.2645ZM127.07 37.2406C127.07 37.0361 127.07 36.8076 127.07 36.6031C127.07 36.5128 127.046 36.3773 126.955 36.3534C126.639 36.2631 126.299 36.2419 125.981 36.3534C125.734 36.4225 125.845 36.7173 125.824 36.9219C125.8 37.1503 125.824 37.4 125.824 37.6258C125.845 38.2181 125.845 38.2181 126.411 38.2181C127.046 38.2181 127.046 38.2181 127.07 37.6045C127.07 37.4691 127.07 37.3548 127.07 37.2406ZM113.209 73.7455C113.209 73.3577 113.209 72.9937 113.209 72.6086C113.209 72.3801 113.119 72.2659 112.869 72.2659C112.644 72.2659 112.508 72.3589 112.508 72.5847C112.508 73.3125 112.508 74.0403 112.508 74.7894C112.508 75.0178 112.62 75.132 112.848 75.132C113.074 75.132 113.209 75.063 113.185 74.8133C113.209 74.4706 113.209 74.1067 113.209 73.7455ZM113.73 73.6764C113.73 74.0616 113.73 74.4255 113.73 74.8133C113.73 75.0391 113.82 75.1533 114.07 75.1533C114.275 75.1533 114.386 75.063 114.386 74.8584C114.386 74.1067 114.386 73.3577 114.386 72.6086C114.386 72.3589 114.251 72.2898 114.025 72.2898C113.799 72.2898 113.754 72.4253 113.754 72.6086C113.73 72.9725 113.73 73.3125 113.73 73.6764Z" fill="#FFFBF0"/>
</g>
<path d="M155.152 87.0639C155.152 84.3811 155.152 81.6983 155.152 79.0394C155.152 78.8588 155.152 78.6542 155.152 78.4709C155.152 78.1761 155.308 78.0406 155.582 78.0167C155.693 78.0167 155.808 78.0167 155.943 78.0167C158.366 78.0167 160.812 78.0167 163.235 78.0167C163.984 78.0167 164.05 78.0619 164.05 78.8136C164.05 84.3147 164.05 89.8131 164.05 95.293C164.05 95.9517 164.029 95.973 163.37 95.973C160.881 95.973 158.366 95.973 155.874 95.973C155.218 95.973 155.173 95.9066 155.173 95.2239C155.152 92.4959 155.152 89.7919 155.152 87.0639ZM163.508 87.0188C163.508 84.405 163.508 81.8125 163.508 79.1988C163.508 78.54 163.508 78.54 162.849 78.54C160.677 78.54 158.501 78.54 156.328 78.54C156.259 78.54 156.193 78.54 156.124 78.54C155.829 78.5188 155.672 78.6091 155.693 78.9491C155.693 79.0394 155.693 79.1323 155.693 79.2439C155.693 84.4263 155.693 89.6325 155.693 94.8148C155.693 95.4736 155.693 95.4736 156.35 95.4736C158.525 95.4736 160.698 95.4736 162.873 95.4736C162.918 95.4736 162.964 95.4736 163.009 95.4736C163.349 95.5188 163.553 95.3833 163.508 94.9955C163.484 94.86 163.508 94.7245 163.508 94.5652C163.508 92.0417 163.508 89.5183 163.508 87.0188Z" fill="#FFFBF0"/>
<path d="M162.873 86.9284C162.873 89.1783 162.873 91.4281 162.873 93.678C162.873 93.8373 162.873 94.018 162.873 94.1773C162.849 94.427 162.759 94.5651 162.488 94.5651C160.698 94.5651 158.91 94.5651 157.099 94.5412C156.623 94.5412 156.578 94.4509 156.554 93.9967C156.554 93.8586 156.554 93.7231 156.554 93.5637C156.554 89.1092 156.554 84.6547 156.554 80.2001C156.554 80.1098 156.554 80.0169 156.554 79.9026C156.578 79.2226 156.599 79.1775 157.279 79.1775C158.886 79.1775 160.496 79.1775 162.103 79.1775C162.849 79.1775 162.895 79.2226 162.895 79.9956C162.873 82.3358 162.873 84.6308 162.873 86.9284ZM162.329 86.9045C162.329 85.9058 162.329 84.9283 162.329 83.9269C162.329 82.6997 162.329 81.4725 162.329 80.2453C162.329 79.9505 162.262 79.7459 161.898 79.7459C160.406 79.7459 158.931 79.7459 157.439 79.7459C157.189 79.7459 157.03 79.8362 157.053 80.1072C157.053 80.2666 157.053 80.4498 157.053 80.6092C157.053 84.7901 157.053 88.995 157.053 93.1786C157.053 93.3141 157.053 93.4734 157.053 93.6089C157.03 93.9064 157.165 94.0419 157.46 94.018C158.955 94.018 160.427 94.018 161.922 94.018C162.238 94.018 162.329 93.8586 162.329 93.5876C162.329 93.4283 162.329 93.245 162.329 93.0883C162.329 91.0403 162.329 88.9737 162.329 86.9045Z" fill="#FFFBF0"/>
<mask id="mask1_57_2068" style="mask-type:alpha" maskUnits="userSpaceOnUse" x="62" y="0" width="131" height="130">
<path d="M62.6556 0H192.602V129.946H62.6556V0Z" fill="white"/>
</mask>
<g mask="url(#mask1_57_2068)">
<path d="M127.628 129.946C110.282 129.946 93.9463 123.194 81.6903 110.912C69.4078 98.6531 62.6556 82.3198 62.6556 64.9719C62.6556 47.6266 69.4078 31.2933 81.6903 19.0347C93.9463 6.75219 110.282 0 127.628 0C144.975 0 161.309 6.75219 173.567 19.0347C185.85 31.3172 192.602 47.6266 192.602 64.9719C192.602 82.3198 185.85 98.6531 173.567 110.912C161.309 123.194 144.975 129.946 127.628 129.946ZM127.628 3.89406C111.321 3.89406 95.973 10.2584 84.4422 21.7866C72.9141 33.3173 66.5497 48.6652 66.5497 64.9719C66.5497 81.2812 72.9141 96.6291 84.4422 108.16C95.973 119.688 111.321 126.05 127.628 126.05C143.937 126.05 159.285 119.688 170.813 108.16C182.344 96.6291 188.705 81.2812 188.705 64.9719C188.705 48.6652 182.344 33.3173 170.813 21.7866C159.285 10.2584 143.937 3.89406 127.628 3.89406Z" fill="#C2C2C2"/>
</g>
<path d="M41.3312 149.929L42.7709 148.49L44.2133 149.932L42.7762 151.372M44.2106 147.05L45.6503 145.613L47.0926 147.055L45.653 148.492M47.09 144.173L48.5297 142.734L49.972 144.176L48.5323 145.616M49.9667 141.294L51.4064 139.854L52.8487 141.297L51.4091 142.736M52.8461 138.415L54.2858 136.978L55.7281 138.42L54.2884 139.857M55.7255 135.538L57.1651 134.098L58.6075 135.54L57.1678 136.98M58.6022 132.658L60.0419 131.219L61.4842 132.661L60.0445 134.101M61.4816 129.779L62.9212 128.342L64.3636 129.784L62.9239 131.221M64.3609 126.902L65.8006 125.463L67.243 126.905L65.8033 128.345M67.2376 124.023L68.6773 122.583L70.1197 124.026L68.68 125.465M70.117 121.144L71.5567 119.707L72.9991 121.149L71.5594 122.589M72.9964 118.267L74.4334 116.827L75.8784 118.27L74.4387 119.709M75.8731 115.388L77.3128 113.948L78.7551 115.39L77.3155 116.83M78.7525 112.511L80.1922 111.071L81.6345 112.513L80.1948 113.953" fill="white"/>
<path d="M212.224 152.094L210.784 150.655L212.226 149.212L213.666 150.652M209.344 149.215L207.905 147.775L209.347 146.333L210.787 147.773M206.465 146.335L205.028 144.896L206.47 143.453L207.907 144.893M203.588 143.459L202.149 142.019L203.591 140.577L205.031 142.014M200.709 140.579L199.269 139.14L200.712 137.697L202.151 139.137M197.83 137.7L196.39 136.26L197.835 134.818L199.272 136.258M194.953 134.821L193.513 133.384L194.955 131.941L196.395 133.378M192.073 131.944L190.634 130.504L192.076 129.062L193.516 130.502M189.194 129.065L187.754 127.625L189.197 126.183L190.636 127.622M186.317 126.185L184.878 124.745L186.32 123.303L187.76 124.743M183.438 123.308L181.998 121.869L183.441 120.426L184.88 121.866M180.559 120.429L179.119 118.989L180.561 117.547L182.001 118.987M177.679 117.55L176.242 116.11L177.685 114.668L179.124 116.107M174.803 114.673L173.363 113.233L174.805 111.791L176.245 113.228M171.923 111.794L171.833 111.703L173.275 110.258L173.365 110.351" fill="white"/>
<path d="M127.681 167.025V164.972H129.721V167.025M127.681 162.916V160.862H129.721V162.916M127.681 158.809V156.756H129.721V158.809M127.681 154.7V152.647H129.721V154.7M127.681 150.593V148.537H129.721V150.593M127.681 146.484V144.431H129.721V146.484M127.681 142.375V140.322H129.721V142.375M127.681 138.268V136.215H129.721V138.268M127.681 134.159V132.106H129.721V134.159M127.681 130.053V129.795H129.721V130.053" fill="white"/>
<mask id="mask2_57_2068" style="mask-type:alpha" maskUnits="userSpaceOnUse" x="11" y="144" width="37" height="37">
<path d="M11.9744 144.949H47.4273V180.402H11.9744V144.949Z" fill="white"/>
</mask>
<g mask="url(#mask2_57_2068)">
<path d="M29.6995 180.402C24.9687 180.402 20.5116 178.558 17.1673 175.209C13.8151 171.865 11.9744 167.408 11.9744 162.674C11.9744 157.943 13.8151 153.486 17.1673 150.142C20.5116 146.79 24.9687 144.949 29.6995 144.949C34.433 144.949 38.8901 146.79 42.2317 150.142C45.5839 153.494 47.4273 157.943 47.4273 162.674C47.4273 167.408 45.5839 171.865 42.2317 175.209C38.8901 178.558 34.433 180.402 29.6995 180.402ZM29.6995 146.011C25.2503 146.011 21.0641 147.749 17.9191 150.894C14.7714 154.039 13.0369 158.225 13.0369 162.674C13.0369 167.123 14.7714 171.312 17.9191 174.457C21.0641 177.602 25.2503 179.339 29.6995 179.339C34.1487 179.339 38.3376 177.602 41.4826 174.457C44.6276 171.312 46.3622 167.123 46.3622 162.674C46.3622 158.225 44.6276 154.039 41.4826 150.894C38.3376 147.749 34.1487 146.011 29.6995 146.011Z" fill="#C2C2C2"/>
</g>
<mask id="mask3_57_2068" style="mask-type:alpha" maskUnits="userSpaceOnUse" x="208" y="146" width="36" height="36">
<path d="M208.383 146.216H243.833V181.666H208.383V146.216Z" fill="white"/>
</mask>
<g mask="url(#mask3_57_2068)">
<path d="M226.108 181.666C221.375 181.666 216.92 179.825 213.576 176.473C210.224 173.132 208.383 168.675 208.383 163.941C208.383 159.208 210.224 154.753 213.576 151.409C216.92 148.057 221.375 146.216 226.108 146.216C230.841 146.216 235.296 148.057 238.64 151.409C241.992 154.758 243.833 159.208 243.833 163.941C243.833 168.675 241.992 173.132 238.64 176.473C235.296 179.825 230.841 181.666 226.108 181.666ZM226.108 147.278C221.659 147.278 217.472 149.013 214.327 152.161C211.18 155.306 209.445 159.492 209.445 163.941C209.445 168.39 211.18 172.577 214.327 175.724C217.472 178.869 221.659 180.604 226.108 180.604C230.557 180.604 234.743 178.869 237.891 175.724C241.036 172.577 242.771 168.39 242.771 163.941C242.771 159.492 241.036 155.306 237.891 152.161C234.743 149.013 230.557 147.278 226.108 147.278Z" fill="#C2C2C2"/>
</g>
<mask id="mask4_57_2068" style="mask-type:alpha" maskUnits="userSpaceOnUse" x="110" y="167" width="37" height="36">
<path d="M110.96 167.025H146.413V202.478H110.96V167.025Z" fill="white"/>
</mask>
<g mask="url(#mask4_57_2068)">
<path d="M128.687 202.478C123.954 202.478 119.497 200.635 116.153 197.285C112.803 193.941 110.96 189.484 110.96 184.75C110.96 180.019 112.803 175.562 116.153 172.218C119.497 168.866 123.954 167.025 128.687 167.025C133.418 167.025 137.875 168.866 141.22 172.218C144.569 175.57 146.413 180.019 146.413 184.75C146.413 189.484 144.569 193.941 141.22 197.285C137.875 200.635 133.418 202.478 128.687 202.478ZM128.687 168.087C124.238 168.087 120.049 169.825 116.904 172.97C113.759 176.115 112.022 180.301 112.022 184.75C112.022 189.199 113.759 193.388 116.904 196.533C120.049 199.678 124.238 201.415 128.687 201.415C133.137 201.415 137.323 199.678 140.468 196.533C143.613 193.388 145.35 189.199 145.35 184.75C145.35 180.301 143.613 176.115 140.468 172.97C137.323 169.825 133.137 168.087 128.687 168.087Z" fill="#C2C2C2"/>
</g>
<path d="M22.1239 166.188H26.3686V175.132H22.1239V166.188Z" fill="#D6D4D4"/>
<path d="M28.4909 162.095H32.7356V175.132H28.4909V162.095Z" fill="#D6D4D4"/>
<path d="M34.858 156.99H39.1027V175.132H34.858V156.99Z" fill="#D6D4D4"/>
<mask id="mask5_57_2068" style="mask-type:alpha" maskUnits="userSpaceOnUse" x="19" y="174" width="23" height="2">
<path d="M19.72 174.08H41.2542V175.512H19.72V174.08Z" fill="white"/>
</mask>
<g mask="url(#mask5_57_2068)">
<path d="M40.8451 175.509H20.1158C19.9059 175.509 19.7386 175.342 19.7386 175.132C19.7386 174.925 19.9059 174.755 20.1158 174.755H40.8451C41.055 174.755 41.2223 174.925 41.2223 175.132C41.2223 175.342 41.055 175.509 40.8451 175.509Z" fill="#FFFBF0"/>
</g>
<path d="M18.7505 166.813C18.6655 166.813 18.5778 166.783 18.5088 166.722C18.3494 166.589 18.3281 166.35 18.4636 166.191L21.5316 162.557C21.6538 162.414 21.8609 162.382 22.0203 162.483L23.6645 163.508L28.2014 158.087C28.3209 157.946 28.5228 157.911 28.6822 158.004L30.5283 159.083L36.2658 152.262C36.3986 152.102 36.6377 152.084 36.797 152.216C36.9564 152.352 36.9777 152.588 36.8422 152.748L30.9028 159.811C30.7833 159.951 30.5814 159.986 30.4247 159.893L28.5759 158.815L24.0311 164.244C23.9116 164.39 23.7017 164.422 23.5423 164.324L21.8981 163.296L19.04 166.677C18.9656 166.767 18.8594 166.813 18.7505 166.813Z" fill="#FFFBF0"/>
<mask id="mask6_57_2068" style="mask-type:alpha" maskUnits="userSpaceOnUse" x="34" y="150" width="5" height="6">
<path d="M34 150.012H38.76V155.04H34V150.012Z" fill="white"/>
</mask>
<g mask="url(#mask6_57_2068)">
<path d="M38.7361 150.012L37.1849 154.835L36.4331 152.75L34.2497 152.368L38.7361 150.012Z" fill="#FFFBF0"/>
</g>
<mask id="mask7_57_2068" style="mask-type:alpha" maskUnits="userSpaceOnUse" x="114" y="174" width="30" height="22">
<path d="M114.232 174.606H143.302V195.006H114.232V174.606Z" fill="white"/>
</mask>
<g mask="url(#mask7_57_2068)">
<path d="M139.118 184.551C138.909 184.551 138.736 184.721 138.736 184.933V185.308C138.736 185.704 138.415 186.025 138.019 186.025C137.623 186.025 137.302 185.704 137.302 185.308V184.933C137.302 184.721 137.132 184.551 136.919 184.551H134.037C134.024 184.503 134.002 184.461 133.973 184.418C134.52 183.743 134.534 182.333 134.512 180.088C134.51 179.772 134.505 179.419 134.505 179.084C134.505 177.913 135.971 176.821 137.328 176.481L137.652 176.402C137.843 176.354 137.966 176.173 137.939 175.979L137.891 175.621V175.618C137.891 175.613 137.889 175.607 137.889 175.602C137.897 175.477 137.997 175.376 138.125 175.371C138.13 175.371 138.136 175.371 138.141 175.371H138.152C138.279 175.376 138.38 175.477 138.388 175.602C138.388 175.607 138.388 175.613 138.385 175.618C138.385 175.621 138.385 175.621 138.385 175.621L138.337 175.979C138.311 176.173 138.436 176.354 138.624 176.402L138.948 176.481C140.306 176.821 141.772 177.913 141.772 179.084C141.772 179.408 141.769 179.748 141.764 180.075V180.088C141.743 182.336 141.756 183.749 142.306 184.421C142.34 184.463 142.378 184.506 142.417 184.551H139.118ZM136.356 194.238H117.183C115.977 194.238 114.997 193.258 114.997 192.055V182.636C114.997 181.433 115.977 180.452 117.183 180.452H133.75C133.763 182.229 133.729 183.51 133.378 183.937C133.333 183.996 133.28 184.054 133.222 184.115C133.083 184.261 133.017 184.45 133.03 184.641L126.772 189.34L116.846 181.714C116.678 181.584 116.439 181.616 116.312 181.783C116.182 181.95 116.214 182.19 116.381 182.32L126.536 190.124C126.605 190.177 126.687 190.203 126.77 190.203C126.852 190.203 126.932 190.177 127.001 190.126L133.477 185.263C133.556 185.297 133.649 185.316 133.75 185.316H136.537C136.542 186.129 137.206 186.79 138.019 186.79C138.205 186.79 138.38 186.756 138.542 186.695V192.055C138.542 193.258 137.562 194.238 136.356 194.238ZM143.055 184.115C142.997 184.054 142.943 183.996 142.898 183.937C142.524 183.48 142.51 182.057 142.529 180.096V180.083C142.532 179.754 142.537 179.414 142.537 179.084C142.537 178.689 142.428 178.295 142.218 177.91C142.03 177.568 141.764 177.241 141.427 176.941C140.808 176.388 139.974 175.953 139.14 175.743L139.142 175.722C139.15 175.679 139.153 175.65 139.153 175.615C139.153 175.35 139.049 175.097 138.863 174.909C138.677 174.718 138.428 174.611 138.162 174.606C138.16 174.606 138.157 174.606 138.152 174.606H138.138C138.133 174.606 138.128 174.606 138.122 174.606C137.572 174.614 137.124 175.065 137.124 175.615C137.124 175.65 137.129 175.682 137.134 175.724L137.137 175.743C136.303 175.953 135.471 176.388 134.85 176.941C134.512 177.241 134.247 177.568 134.058 177.91C133.848 178.295 133.742 178.689 133.742 179.084C133.742 179.284 133.742 179.488 133.745 179.687H117.183C115.555 179.687 114.232 181.01 114.232 182.636V192.055C114.232 193.68 115.555 195.003 117.183 195.003H136.356C137.984 195.003 139.307 193.68 139.307 192.055V186.121C139.307 186.097 139.304 186.073 139.302 186.052C139.427 185.834 139.501 185.584 139.501 185.316H142.526C142.877 185.316 143.097 185.09 143.188 184.878C143.302 184.615 143.252 184.323 143.055 184.115Z" fill="#C2C2C2"/>
</g>
<path d="M231.102 163.59H221.226C221.019 163.59 220.851 163.755 220.851 163.96C220.851 164.164 221.019 164.329 221.226 164.329H231.102C231.309 164.329 231.476 164.164 231.476 163.96C231.476 163.755 231.309 163.59 231.102 163.59Z" fill="#C2C2C2"/>
<path d="M231.102 166.943H221.226C221.019 166.943 220.851 167.11 220.851 167.312C220.851 167.516 221.019 167.681 221.226 167.681H231.102C231.309 167.681 231.476 167.516 231.476 167.312C231.476 167.11 231.309 166.943 231.102 166.943Z" fill="#C2C2C2"/>
<path d="M227.301 170.298H221.226C221.019 170.298 220.851 170.462 220.851 170.667C220.851 170.871 221.019 171.036 221.226 171.036H227.301C227.505 171.036 227.673 170.871 227.673 170.667C227.673 170.462 227.505 170.298 227.301 170.298Z" fill="#C2C2C2"/>
<path d="M222.405 160.321C221.962 160.321 221.6 159.962 221.6 159.524C221.6 159.319 221.433 159.152 221.226 159.152C221.019 159.152 220.851 159.319 220.851 159.524C220.851 160.244 221.356 160.849 222.033 161.014V161.582C222.033 161.787 222.201 161.952 222.405 161.952C222.612 161.952 222.78 161.787 222.78 161.582V161.014C223.457 160.849 223.962 160.244 223.962 159.524C223.962 158.695 223.295 158.02 222.466 157.988C222.448 157.983 222.426 157.983 222.405 157.983C221.962 157.983 221.6 157.625 221.6 157.184C221.6 156.745 221.962 156.387 222.405 156.387C222.851 156.387 223.213 156.745 223.213 157.184C223.213 157.388 223.38 157.555 223.587 157.555C223.794 157.555 223.962 157.388 223.962 157.184C223.962 156.464 223.457 155.858 222.78 155.693V155.13C222.78 154.926 222.612 154.761 222.405 154.761C222.201 154.761 222.033 154.926 222.033 155.13V155.693C221.356 155.858 220.851 156.464 220.851 157.184C220.851 158.012 221.515 158.687 222.347 158.719C222.365 158.724 222.387 158.724 222.405 158.724C222.851 158.724 223.213 159.083 223.213 159.524C223.213 159.962 222.851 160.321 222.405 160.321Z" fill="#C2C2C2"/>
<mask id="mask8_57_2068" style="mask-type:alpha" maskUnits="userSpaceOnUse" x="218" y="152" width="17" height="24">
<path d="M218.062 152.23H234.382V175.69H218.062V152.23Z" fill="white"/>
</mask>
<g mask="url(#mask8_57_2068)">
<path d="M233.198 152.23H219.247C218.593 152.23 218.062 152.753 218.062 153.398V174.518C218.062 175.164 218.593 175.69 219.247 175.69H229.298C229.399 175.69 229.492 175.65 229.564 175.581L234.271 170.927C234.34 170.858 234.38 170.765 234.38 170.667V153.398C234.38 152.753 233.848 152.23 233.198 152.23ZM231.389 172.731L229.673 174.428V171.466C229.673 171.23 229.869 171.036 230.108 171.036H233.105L231.389 172.731ZM233.633 170.298H230.108C229.455 170.298 228.926 170.821 228.926 171.466V174.951H219.247C219.005 174.951 218.811 174.757 218.811 174.518V153.398C218.811 153.162 219.005 152.968 219.247 152.968H233.198C233.437 152.968 233.633 153.162 233.633 153.398V170.298Z" fill="#C2C2C2"/>
</g>
</g>
<defs>
<clipPath id="clip0_57_2068">
<rect width="255" height="255" fill="white"/>
</clipPath>
</defs>
</svg>
