<svg width="350" height="350" viewBox="0 0 350 350" fill="none" xmlns="http://www.w3.org/2000/svg">
<path d="M254.88 96.7313C232.396 74.2182 202.501 61.8188 170.702 61.8188C161.128 61.8188 151.732 62.949 142.654 65.1365C141.87 67.674 140.828 70.1641 139.526 72.5594C149.428 69.7047 159.892 68.1662 170.702 68.1662C232.848 68.1662 283.409 118.792 283.409 181.019C283.409 243.246 232.848 293.872 170.702 293.872C108.555 293.872 57.9943 243.246 57.9943 181.019C57.9943 170.264 59.5073 159.852 62.3255 149.99C59.9557 151.302 57.4656 152.37 54.9062 153.191C52.7625 162.199 51.6542 171.526 51.6542 181.019C51.6542 212.858 64.0354 242.794 86.5229 265.307C109.007 287.82 138.903 300.22 170.702 300.22C202.501 300.22 232.396 287.82 254.88 265.307C277.364 242.794 289.749 212.858 289.749 181.019C289.749 149.18 277.364 119.244 254.88 96.7313Z" fill="white"/>
<path d="M62.9672 130.153L66.5729 134.302C66.912 134.695 67.2437 135.107 67.5719 135.512C78.8521 109.988 99.3125 89.3995 124.742 77.9844C124.389 77.6964 124.031 77.4083 123.689 77.1094L119.408 73.387C107.355 79.1547 96.2463 86.9932 86.5229 96.7313C76.6646 106.601 68.7495 117.895 62.9672 130.153Z" fill="white"/>
<path d="M84.3062 30.2385C66.9484 20.4422 43.9323 23.4573 28.4594 38.9521C12.9865 54.4432 9.975 77.4885 19.7568 94.8682C8.35989 108.154 8.46562 127.688 20.424 139.661C32.0432 151.295 50.7828 151.725 64.0062 141.28C63.3609 140.379 62.6245 139.435 61.7859 138.465L60.5573 137.051C49.4885 145.731 33.8807 145.421 24.2776 135.804C19.5271 131.046 16.8656 124.615 16.7818 117.691C16.6979 110.709 19.2245 103.866 23.8911 98.4266L26.3812 95.5245L24.5073 92.1885C15.6953 76.537 18.9073 56.2333 32.313 42.8094C45.7187 29.3854 66.0005 26.1734 81.6302 34.9927L84.9588 36.8703L87.8573 34.3766C93.2932 29.7026 100.126 27.176 107.1 27.2599C114.012 27.3401 120.436 30.0052 125.187 34.763C134.794 44.3807 135.1 60.0031 126.434 71.0901L127.848 72.3187C128.815 73.1609 129.759 73.8974 130.656 74.5464C141.09 61.3047 140.66 42.5396 129.041 30.9057C117.082 18.9292 97.5734 18.8271 84.3062 30.2385Z" fill="white"/>
<path d="M149.187 87.2339V138.057C149.187 138.615 148.735 139.07 148.174 139.07C147.616 139.07 147.16 138.615 147.16 138.057V87.2339H136.679V138.057C136.679 138.615 136.227 139.07 135.665 139.07C135.107 139.07 134.652 138.615 134.652 138.057V87.2339H124.173V138.057C124.173 138.615 123.718 139.07 123.16 139.07C122.602 139.07 122.146 138.615 122.146 138.057V87.2339H111.665V146.059C111.665 152.181 113.969 158.018 118.154 162.48C125.074 169.867 128.661 180.316 127.998 191.144L124.615 246.338C125.938 247.279 127.298 248.179 128.68 249.04L132.216 191.403C132.953 179.415 128.949 167.818 121.235 159.585C117.79 155.907 115.89 151.102 115.89 146.059V91.4667H117.917V138.057C117.917 140.948 120.269 143.303 123.16 143.303C126.047 143.303 128.399 140.948 128.399 138.057V91.4667H130.426V138.057C130.426 140.948 132.778 143.303 135.665 143.303C138.556 143.303 140.908 140.948 140.908 138.057V91.4667H142.935V138.057C142.935 140.948 145.286 143.303 148.174 143.303C151.065 143.303 153.417 140.948 153.417 138.057V91.4667H155.444V146.059C155.444 151.102 153.544 155.907 150.099 159.585C142.384 167.818 138.381 179.415 139.118 191.403L143.084 256.091C144.51 256.619 145.95 257.108 147.408 257.553L143.336 191.144C142.669 180.316 146.26 169.867 153.18 162.48C157.365 158.018 159.669 152.181 159.669 146.059V87.2339H149.187Z" fill="white"/>
<path d="M229.739 129.474C229.739 118.355 226.92 107.869 221.798 99.9505C216.497 91.751 209.351 87.2339 201.68 87.2339C194.009 87.2339 186.867 91.751 181.563 99.9542C176.444 107.869 173.626 118.351 173.626 129.474C173.626 142.982 177.727 155.334 184.877 163.362C191.322 170.603 194.666 180.48 194.053 190.473L189.871 258.69C191.322 258.329 192.755 257.928 194.177 257.491L198.275 190.732C198.953 179.623 195.22 168.62 188.03 160.544C181.657 153.387 177.851 141.772 177.851 129.474C177.851 108.518 188.544 91.4667 201.68 91.4667C214.82 91.4667 225.513 108.518 225.513 129.474C225.513 141.772 221.707 153.387 215.33 160.544C208.141 168.62 204.407 179.623 205.089 190.732L208.804 251.318C210.193 250.56 211.557 249.765 212.895 248.927L209.307 190.473C208.695 180.48 212.038 170.599 218.488 163.359C225.637 155.331 229.739 142.979 229.739 129.474Z" fill="white"/>
<path d="M233.913 132.143C233.829 134.327 233.643 136.471 233.359 138.582C241.573 150.697 246.374 165.306 246.374 181.019C246.374 209.016 231.131 233.512 208.516 246.63L208.808 251.322C233.683 237.752 250.6 211.327 250.6 181.019C250.6 162.63 244.366 145.673 233.913 132.143Z" fill="white"/>
<path d="M170.702 256.791C160.851 256.791 151.437 254.895 142.8 251.453L143.084 256.094C151.696 259.281 161 261.023 170.702 261.023C178.868 261.023 186.751 259.787 194.173 257.494L194.458 252.962C186.98 255.445 178.996 256.791 170.702 256.791Z" fill="white"/>
<path d="M128.979 244.202C108.536 230.621 95.0286 207.371 95.0286 181.019C95.0286 165.696 99.5969 151.426 107.439 139.49V132.212C97.012 145.728 90.7995 162.659 90.7995 181.019C90.7995 209.708 105.962 234.912 128.68 249.036L128.979 244.202Z" fill="white"/>
<path d="M82.0385 92.2432C95.3458 78.9177 111.114 68.9609 128.319 62.7885C131.881 53.776 130.298 43.4437 123.408 36.5458C119.124 32.2547 113.323 29.8521 107.071 29.7755C100.709 29.699 94.4672 32.0141 89.4979 36.287L85.2615 39.9328L80.3943 37.1875C65.7453 28.9188 46.7031 31.963 34.0922 44.5885C21.4812 57.2177 18.4406 76.2818 26.6984 90.9526L29.4401 95.8234L25.8016 100.067C21.5286 105.044 19.2208 111.293 19.2974 117.662C19.3703 123.922 21.7729 129.733 26.0568 134.024C33.013 140.988 43.4693 142.53 52.5401 138.83C58.6943 121.508 68.6693 105.627 82.0385 92.2432Z" fill="white"/>
</svg>
